<?xml version="1.0" encoding="utf-8"?>
<!-- Generator: Adobe Illustrator 27.5.0, SVG Export Plug-In . SVG Version: 6.00 Build 0)  -->
<svg version="1.1" xmlns="http://www.w3.org/2000/svg" xmlns:xlink="http://www.w3.org/1999/xlink" x="0px" y="0px"
	 viewBox="0 0 500 500" style="enable-background:new 0 0 500 500;" xml:space="preserve">
<g id="BACKGROUND">
	<rect style="fill:#FFFFFF;" width="500" height="500"/>
</g>
<g id="OBJECTS">
	<g>
		<path style="fill:#F3E8E2;" d="M216.55,134.55c15.18,12.12,21.52,34.2,15.07,52.53c-4.44,12.62-14.18,22.91-25.54,29.97
			c-18.62,11.57-41.05,15-62.87,17.18c-17.65,1.77-35.55,2.87-53.05,0.01s-34.75-10-47.11-22.73
			c-12.35-12.73-19.1-31.54-14.81-48.75c5.17-20.73,24.29-34.96,33.22-54.37c8.4-18.26,7.67-40.8,20.63-56.16
			c10.04-11.89,26.2-16.68,41.67-18.33c17.18-1.84,35.12-0.44,50.67,7.09s28.38,21.86,31.25,38.9c1.65,9.78,0.04,19.8,0.49,29.71
			S210.28,129.55,216.55,134.55z"/>
		<g>
			<g>
				<ellipse style="fill:#CCCFD4;" cx="204.96" cy="196.33" rx="26.87" ry="5.28"/>
				<g>
					<g>
						<g>
							<path style="fill:#FAA540;" d="M219.21,162.97l-4.28,30.25l-0.37,2.6c-3.24,2.15-15.8,2.85-21,0l-0.39-2.26
								c-0.01,0-0.01,0-0.01,0l-5.41-30.59H219.21L219.21,162.97z"/>
							<ellipse style="fill:#FFCC7A;" cx="203.47" cy="162.97" rx="15.73" ry="2.64"/>
							<path style="fill:#4D0746;" d="M218.83,162.97c0,0.83-3.95,1.54-9.53,1.82c-1.64,0.08-3.42,0.13-5.27,0.13
								c-0.65,0-1.3-0.01-1.92-0.02c-0.2,0-0.4-0.01-0.61-0.01c-0.97-0.03-1.91-0.06-2.8-0.1c-5.54-0.28-9.47-0.99-9.47-1.82
								c0-0.68,2.64-1.29,6.64-1.64c1.22-0.1,2.58-0.19,4.02-0.24c1.31-0.06,2.7-0.08,4.13-0.08c0.85,0,1.7,0.01,2.51,0.03
								c2.89,0.06,5.5,0.24,7.55,0.5C217.01,161.9,218.83,162.4,218.83,162.97z"/>
						</g>
						<path style="fill:#4D0746;" d="M214.93,193.22l-0.37,2.6c-3.24,2.15-15.8,2.85-21,0l-0.39-2.26
							C196.66,194.47,205.92,196.31,214.93,193.22z"/>
					</g>
					<g>
						<g>
							<g>
								<path style="fill:#346D99;" d="M202.11,164.9c1.55-1.23,3.03-2.53,4.43-3.86c3.33-3.18,6.25-6.63,8.73-10.36
									c0.03-0.04,0.06-0.07,0.07-0.12c0.2-0.29,0.39-0.59,0.58-0.88c0.4-0.62,0.81-1.41,0.49-2.09c-0.36-0.77-1.4-0.89-2.24-0.82
									c-3.62,0.33-7.05,2.31-9.16,5.25c3.49-6.55,7.25-13.25,10.46-20.21c0.51-1.1,0.94-2.59,0.01-3.38
									c-0.75-0.63-1.89-0.35-2.78,0.06c-2.76,1.28-5.1,3.44-6.59,6.1c3.41-6.59,6.71-12.94,9.5-19.44c0-0.01,0.01-0.02,0.01-0.03
									c0.59-1.36,1.15-2.72,1.68-4.09c0.36-0.91,0.71-1.85,0.72-2.83v-0.11c-0.01-0.93-0.39-1.89-1.18-2.4
									c-0.01-0.01-0.02-0.01-0.03-0.02c-1.29-0.8-2.96-0.06-4.21,0.78c-1.4,0.96-2.69,2.05-3.85,3.27c-0.01,0-0.01,0,0,0.01
									c0,0-0.01,0-0.01,0.01c-2.16,2.26-3.89,4.92-5.03,7.84c2.38-7.78,4.62-15.18,6.87-22.58c0.31-1.05,0.63-2.14,0.52-3.22
									c-0.11-1.09-0.77-2.2-1.83-2.51c-1.3-0.36-2.57,0.56-3.52,1.5c-2.94,2.89-5.12,6.56-6.25,10.53
									c1.55-8.04,3.55-15.74,4.34-23.61c0.06-0.62,0.11-1.25,0.1-1.87c-0.01-0.61-0.08-1.2-0.27-1.77
									c-0.37-1.17-1.3-2.23-2.52-2.41c-1.73-0.24-3.15,1.3-4.09,2.77c-1.01,1.58-1.87,3.24-2.59,4.98
									c-1.07,2.6-1.79,5.35-2.13,8.14c0.04-7.89-0.48-15.64-1.93-23.18c-0.26-1.35-0.54-2.69-0.86-4.02
									c-0.55-2.29-1.86-5.07-4.22-4.91c-1.35,0.09-2.43,1.26-2.87,2.54c-0.43,1.29-0.34,2.68-0.24,4.03
									c0.06,0.74,0.1,1.48,0.16,2.22c0.34,4.8,0.68,9.61,1.02,14.4c-1.97-10.33-7.95-19.83-16.41-26.08
									c-0.2-0.16-0.41-0.3-0.62-0.45c-2.69-1.91-6.7-3.38-8.99-1.01c-1.19,1.24-1.41,3.19-0.96,4.85
									c0.45,1.66,1.46,3.11,2.48,4.51c5.91,8.11,12.61,15.64,20,22.44c-2.49-0.53-4.51-2.35-6.9-3.22
									c-2.4-0.87-5.84-0.15-6.26,2.37c-0.29,1.76,1.08,3.33,2.36,4.58c6.3,6.22,12.77,12.26,19.41,18.12
									c-2.63-2.31-5.55-4.26-8.68-5.81c-1.13-0.56-2.48-1.07-3.62-0.52c-1.17,0.57-1.61,2.09-1.33,3.36
									c0.27,1.27,1.07,2.35,1.86,3.38c5.81,7.61,11.63,15.22,17.44,22.83c-2.14-2.88-4.8-5.38-7.79-7.37
									c-0.99-0.65-2.2-1.27-3.31-0.83c-1.9,0.74-1.52,3.53-0.75,5.41c0.77,1.89,1.61,3.75,2.5,5.59v0.01
									c2.95,6.15,6.51,12.01,10.62,17.45c0.47,0.62,0.95,1.25,1.43,1.86c-0.3-0.15-0.6-0.32-0.86-0.52
									c-1.06-0.74-1.88-1.82-2.7-2.84c-1.02-1.29-2.17-2.6-3.73-3.11c-1.56-0.52-3.63,0.12-4.08,1.7
									c-0.41,1.43,0.6,2.86,1.54,4.01c3.26,4,6.53,7.98,9.79,11.97c0.95,1.15,1.89,2.31,2.83,3.45c0.89,0.05,1.83,0.07,2.8,0.1"/>
								<path style="fill:#4589AD;" d="M190.43,64.37c-0.14-0.25-0.28-0.5-0.44-0.74c-0.62-0.98-1.38-1.95-2.46-2.35
									c-1.98-0.74-4.23,0.78-5.03,2.73c-0.04,0.08-0.06,0.16-0.09,0.24c-0.06-0.74-0.1-1.48-0.16-2.22
									c-0.1-1.35-0.19-2.75,0.24-4.03c0.43-1.29,1.52-2.45,2.87-2.54c2.35-0.17,3.67,2.62,4.22,4.91
									C189.89,61.68,190.17,63.02,190.43,64.37z"/>
								<path style="fill:#4589AD;" d="M203.95,75.83c-0.6-0.39-1.28-0.64-1.98-0.73c-1.97-0.23-3.95,0.68-5.44,1.99
									c-0.77,0.69-1.43,1.47-2.04,2.31c0.72-1.74,1.58-3.4,2.59-4.98c0.94-1.47,2.36-3.01,4.09-2.77
									c1.21,0.17,2.15,1.24,2.52,2.41C203.87,74.63,203.94,75.23,203.95,75.83z"/>
								<path style="fill:#4589AD;" d="M195.43,130.74c-2.32-2.31-7.75-7.8-11.04-6.3c-1.45,0.66-1.16,3.23-0.54,6.38
									c-0.89-1.85-1.73-3.7-2.5-5.59c-0.77-1.88-1.15-4.67,0.75-5.41c1.1-0.44,2.31,0.17,3.31,0.83c2.99,1.98,5.65,4.49,7.79,7.37
									c-5.81-7.61-11.63-15.22-17.44-22.83c-0.79-1.03-1.6-2.11-1.86-3.38c-0.28-1.27,0.17-2.79,1.33-3.36
									c1.14-0.54,2.49-0.04,3.62,0.52c3.13,1.54,6.05,3.5,8.68,5.81c-6.64-5.86-13.11-11.9-19.41-18.12
									c-1.28-1.26-2.65-2.82-2.36-4.58c0.41-2.52,3.86-3.24,6.26-2.37c2.39,0.87,4.41,2.69,6.9,3.22
									c-7.39-6.8-14.09-14.33-20-22.44c-1.02-1.4-2.03-2.85-2.48-4.51s-0.23-3.61,0.96-4.85c2.3-2.37,6.3-0.9,8.99,1.01
									c0.2,0.15,0.41,0.29,0.62,0.45c-4.92-1.42-8.47-0.84-8.8,1.75c-0.76,6.09,21.93,27.56,22.06,29.39
									c0.06,0.89-9.75-1.69-10.2,0.72c-0.45,2.4,18.94,19.98,18.75,21.03c-0.12,0.66-10.88-5.9-12.46-3.71
									C174.65,104.11,191.37,123.72,195.43,130.74z"/>
							</g>
							<path style="fill:none;stroke:#254970;stroke-linecap:round;stroke-miterlimit:10;" d="M166.57,59.4
								c25.65,27.45,38.63,66.21,35.07,103.57"/>
						</g>
						<g>
							<g>
								<path style="fill:#3B8A94;" d="M202.11,164.9c0.62,0.01,1.27,0.02,1.92,0.02c1.86,0,3.64-0.05,5.27-0.13
									c1.6-1.11,3.2-2.2,4.79-3.25c4.64-3.11,9.24-6.08,13.85-9.04c0.79-0.51,1.67-1.19,1.64-2.13c-0.05-1.26-1.62-1.78-2.88-1.86
									c-3.91-0.26-7.89,0.51-11.44,2.18c-0.11,0.05-0.22,0.1-0.33,0.16c0.14-0.09,0.27-0.18,0.4-0.28
									c5.17-3.52,10.55-6.66,15.92-9.8c0.96-0.56,2.04-1.32,2.05-2.43c0.02-0.86-0.68-1.61-1.49-1.92c-0.8-0.31-1.7-0.28-2.55-0.2
									c-4.28,0.35-8.5,1.46-12.39,3.24c5.82-4.12,10.93-7.2,16.05-10.29c0.68-0.4,1.37-0.83,1.87-1.43
									c0.51-0.61,0.82-1.44,0.6-2.2c-0.4-1.4-2.19-1.77-3.64-1.76c-3.47,0.03-6.93,0.84-10.05,2.34c4.64-3.22,9.53-6.1,14.41-8.97
									c1.07-0.63,2.2-1.3,2.89-2.35c0.71-1.04,0.85-2.56,0-3.48c-0.86-0.94-2.32-0.9-3.58-0.74c-3.46,0.45-6.86,1.37-10.09,2.73
									c3.67-3.93,8.06-8.14,11.98-12.75c0.34-0.4,0.69-0.82,1-1.25c0.48-0.65,0.88-1.34,1.11-2.11c0.39-1.28,0.22-2.82-0.77-3.72
									c-1.49-1.35-3.87-0.65-5.67,0.28c-1.56,0.8-3.06,1.72-4.48,2.75c-0.17,0.13-0.36,0.26-0.53,0.39
									c-0.17,0.12-0.35,0.26-0.52,0.39c-0.35,0.27-0.69,0.54-1.03,0.83c-0.69,0.57-1.36,1.17-2,1.79
									c-0.25,0.24-0.51,0.5-0.75,0.74c-0.04,0.03-0.06,0.06-0.08,0.08c-0.26,0.27-0.51,0.53-0.76,0.81
									c-0.21,0.23-0.42,0.46-0.62,0.7c-0.11,0.12-0.21,0.24-0.31,0.36c-0.11,0.12-0.21,0.24-0.29,0.36
									c-0.23,0.27-0.45,0.54-0.67,0.82c-0.27,0.35-0.53,0.7-0.79,1.06c-0.13,0.17-0.26,0.35-0.38,0.53
									c-0.13,0.18-0.25,0.37-0.37,0.54c-0.5,0.73-0.96,1.48-1.39,2.24c-0.25,0.43-0.49,0.87-0.72,1.31
									c-0.05-0.28-0.08-0.54-0.12-0.81c-0.04-0.26-0.06-0.52-0.1-0.78c-0.1-0.73-0.17-1.43-0.24-2.12
									c-0.15-1.52-0.23-2.98-0.31-4.42c-0.04-0.65-0.12-1.39-0.63-1.78c-0.95-0.73-2.22,0.29-2.9,1.28
									c-0.3,0.43-0.59,0.87-0.85,1.32c-0.12,0.18-0.23,0.38-0.33,0.56c-0.31,0.52-0.61,1.07-0.88,1.62
									c-0.17,0.34-0.33,0.68-0.49,1.02c-0.15,0.31-0.28,0.62-0.41,0.94c-0.17,0.38-0.32,0.76-0.46,1.15
									c-0.07,0.19-0.15,0.39-0.22,0.59c-0.07,0.18-0.14,0.39-0.2,0.58c-0.14,0.39-0.27,0.79-0.39,1.18c-0.01,0-0.01,0,0,0.01
									c-0.13,0.4-0.25,0.82-0.36,1.22c-0.03,0.08-0.06,0.17-0.07,0.26c-0.08,0.28-0.15,0.57-0.22,0.86
									c-0.12,0.46-0.22,0.92-0.32,1.39c-0.06,0.31-0.13,0.62-0.19,0.92c-0.06,0.3-0.11,0.62-0.17,0.92
									c-0.03,0.08-0.04,0.17-0.05,0.26c-0.08,0.41-0.15,0.83-0.21,1.25c-0.09,0.55-0.17,1.1-0.24,1.66
									c-0.04,0.26-0.07,0.51-0.1,0.78c-0.04,0.35-0.08,0.7-0.11,1.05c-0.37,3.35-0.54,6.75-0.69,10.09
									c-0.29-3.03-0.75-6.04-1.2-9.07c-0.16-1.01-0.39-2.16-1.3-2.65c-0.91-0.51-2.11-0.02-2.74,0.81
									c-0.63,0.83-0.83,1.89-0.96,2.92c-0.35,2.7-0.45,5.41-0.37,8.12c0.19,6.49,1.41,12.99,2.62,19.39
									c-1.5-3.19-2.54-5.54-3.89-7.7c-0.51-0.8-1.13-1.62-2.04-1.86c-1.44-0.37-2.85,1.02-3.08,2.49
									c-0.23,1.46,0.36,2.92,0.94,4.29c0.16,0.37,0.31,0.74,0.47,1.11c0.19,0.45,0.38,0.89,0.57,1.34
									c1.62,3.83,3.23,7.66,4.85,11.48c0.53,1.27,1.07,2.54,1.61,3.79"/>
								<path style="fill:#5DB0B0;" d="M239.43,97.17c-0.23,0.77-0.63,1.46-1.11,2.11c-0.01-1.1,0.21-4.1-0.79-4.51
									c-2.45-1.01-11.71,1.48-21.21,18.21c0.22-2.23-1.09-10.34-1.68-10.53c-1.32-0.43-6.84,8.24-8.68,33.75
									c-0.91-3.45-0.98-15.98-3.45-16.14c-2.47-0.16-2.35,8.13-3.05,10.48c-0.08-2.71,0.02-5.42,0.37-8.12
									c0.13-1.03,0.32-2.09,0.96-2.92c0.62-0.83,1.83-1.31,2.74-0.81c0.9,0.49,1.14,1.64,1.3,2.65c0.45,3.02,0.91,6.04,1.2,9.07
									c0.46-10.28,1.12-21.16,6.96-29.62c0.68-0.98,1.96-2.01,2.9-1.28c0.51,0.39,0.6,1.13,0.63,1.78
									c0.15,2.56,0.3,5.13,0.77,8.13c3.44-6.7,9.01-12.26,15.7-15.7c1.8-0.93,4.18-1.63,5.67-0.28
									C239.65,94.35,239.83,95.9,239.43,97.17z"/>
							</g>
							<path style="fill:none;stroke:#254970;stroke-linecap:round;stroke-miterlimit:10;" d="M205.12,164.12
								c1.22-10.79,3.49-22.61,7.06-32.88c4.48-12.87,9.37-22.39,20.98-32.37"/>
						</g>
					</g>
				</g>
			</g>
			<g>
				<ellipse style="fill:#CCCFD4;" cx="119.84" cy="210.56" rx="72.11" ry="11.02"/>
				<g>
					<g>
						<path style="fill:#370A38;" d="M76.2,210.65v-37.36h3.86v37.36c0,0.67-0.55,1.22-1.22,1.22h-1.42
							C76.75,211.87,76.2,211.32,76.2,210.65z"/>
					</g>
					<g>
						<g>
							<path style="fill:#FDAD91;" d="M161.56,139.71c-0.51,4.47-1.43,8.64-2.57,12.5c-1.07,3.64-2.33,7.01-3.62,10.11
								c-0.55,1.34-1.1,2.63-1.64,3.87c-0.53,1.19-1.05,2.34-1.53,3.44c-1.3,2.95-2.34,7.67-5.04,7.89
								c-2.79,0.23-6.14-4.23-6.12-6.53c1.79-3.68,3.43-7.32,4.87-11c0.26-0.66,0.51-1.32,0.76-1.99c1.18-3.17,2.21-6.39,3.06-9.73
								c0.03-0.11,0.06-0.21,0.09-0.31c1.01-3.74,2.71-5.36,4.09-6.37C155.41,140.49,159.37,139.35,161.56,139.71z"/>
							<path style="fill:#F08275;" d="M158.98,152.22c-1.07,3.64-2.33,7.01-3.62,10.11c-0.55,1.34-1.1,2.63-1.64,3.87
								c-2.74-1.89-5.35-3.97-7.83-6.21c0.26-0.66,0.51-1.32,0.76-1.99c1.18-3.17,2.21-6.39,3.06-9.73
								c0.03-0.11,0.06-0.21,0.09-0.31c2.6,1.11,5.17,2.28,7.72,3.5C158.02,151.68,158.52,151.93,158.98,152.22z"/>
							<path style="fill:#3B8A94;" d="M161.56,139.71c-0.97,8.69-3.55,16.22-6.19,22.62c-0.89-0.33-1.75-0.76-2.58-1.19
								c-2.04-1.05-5.74-2.32-7.78-3.37c1.18-3.17,2.42-6.35,3.8-9.5c1.99-4.52,3.68-5.65,5.1-6.68
								C155.41,140.49,159.37,139.35,161.56,139.71z"/>
							<path style="fill:#FDAD91;" d="M148.57,167.68c-3.85-6.15-8.38-12.75-12.28-18.62c-1.42,0.93-4.14,3.01-5.68,4.17
								c2.66,6.15,6.37,12.75,9.03,18.9c0.63,1.45,1.28,2.94,2.43,4.02c1.3,1.22,3.19,1.78,4.94,1.47
								C148.77,177.3,152.7,174.27,148.57,167.68z"/>
							<g>
								<path style="fill:#FDAD91;" d="M137.06,150.62c-1.09-5.27-3.26-11.48-5.2-16.51c-0.3-0.78-0.7-1.66-1.51-1.41
									c-0.75,0.23-0.51,1.09-0.29,1.84c1.08,3.68,1.89,7.44,1.89,7.44s-2.11-5-3.17-7.49c-0.21-0.5-0.44-1.02-0.85-1.37
									c-0.42-0.35-1.09-0.47-1.51-0.12c-0.45,0.38-0.39,1.1-0.22,1.68c-0.7-0.13-1.39,0.63-1.3,1.53
									c-0.49,0.05-0.85,0.53-0.91,1.02c-0.06,0.49,0.09,0.97,0.24,1.43c0.58,1.75,1.16,3.5,1.8,5.39
									c0.23,2.22,0.53,4.49,1.53,6.49s2.84,3.74,5.27,3.94C134.31,153.29,136.08,152.19,137.06,150.62z"/>
								<path style="fill:none;stroke:#F08275;stroke-linecap:round;stroke-miterlimit:10;" d="M134.7,145.59
									c-1.18-1.93-2.37-3.85-3.55-5.78c-0.41-0.67-1.07-1.44-1.82-1.19c-0.68,0.23-0.82,1.14-0.68,1.84
									c0.3,1.48,1.3,2.75,1.51,4.25c0.14,1-0.08,2.01-0.15,3.02c-0.06,1.01,0.08,2.12,0.79,2.83"/>
							</g>
						</g>
						<g>
							<g>
								<path style="fill:#F08275;" d="M157.28,202.1c-1.13,2.76-2.81,5.77-5.72,6.41c-2.28,0.5-4.57-0.64-6.6-1.78
									c-4.92-2.76-9.71-5.78-14.34-9.02c-5.55-3.89-10.88-8.1-15.93-12.61c-10.04,8.99-21.13,17.46-30.84,27.08
									c-3.99-0.56-5.85-2.6-8.39-5.09c9.25-12.21,19.47-23.81,30.07-35.06c1.84-1.95,3.82-3.98,6.42-4.65
									c3.21-0.84,6.52,0.59,9.53,1.97c5.17,2.39,10.34,4.78,15.52,7.17c5.61,2.6,11.23,5.19,16.84,7.78
									c3.72,1.72,5.36,5,5.54,8.27C159.55,195.85,158.52,199.06,157.28,202.1z"/>
								<path style="fill:#F08275;" d="M82.57,205.01c0.92,3.38,3.44,8.55,1.88,10.64c-1.22,1.63-6.55-0.25-9.02-1.12
									c-4.48-1.57-9.65-3.01-13.49-5.04c-1.17-0.62-3.04-3.63,0.82-4.32C68.29,204.19,73.72,203.92,82.57,205.01z"/>
							</g>
							<g>
								<path style="fill:#28598A;" d="M157.28,202.1c-1.13,2.76-2.81,5.77-5.72,6.41c-2.28,0.5-4.57-0.64-6.6-1.78
									c-4.92-2.76-9.71-5.78-14.34-9.02c3.59-6.51,5.81-13.79,6.39-21.19c5.61,2.6,11.23,5.19,16.84,7.78
									c3.72,1.72,5.36,5,5.54,8.27C159.55,195.85,158.52,199.06,157.28,202.1z"/>
								<path style="fill:#DAEDED;" d="M133.65,174.86c1.13,6.58,0.36,13.47-2.01,19.43c1.23,0.63,2.47,1.27,3.84,1.88
									c3.2-5.91,4.17-13,2.43-19.43C136.8,175.53,135.24,174.75,133.65,174.86z"/>
							</g>
						</g>
						<g>
							<g>
								<path style="fill:#FDAD91;" d="M175.04,186.89c-1.1,7.53-5.84,20.75-13.48,25.29c-3.93,2.33-8.46,2.88-13.37,2.27
									c-1.54-0.19-3.12-0.51-4.73-0.91c-3.97-0.99-8.12-2.56-12.34-4.43c-1.11-0.49-2.23-1-3.35-1.52
									c-11.67-5.47-23.3-12.43-27.89-12.64c-4.21-0.18-28.01,10.5-42.46,14.9c-2.82-2.12-4.43-5.62-4.14-8.75
									c15.06-7.94,38.66-20.97,46.36-22.17c5.29-0.83,22.42,3.19,37.76,5.58c0.01,0.01,0.02,0.01,0.02,0.01
									c0.34,0.06,0.68,0.1,1.02,0.16c3.8,0.58,7.48,1.06,10.8,1.31c0.36-1.52,0.54-2.54,1.07-3.4c0.4-0.69,1-1.26,2.05-1.89
									c1.01,0.4,2.11,0.73,3.26,0.99C162.46,183.28,171.16,183.04,175.04,186.89z"/>
								<path style="fill:#F08275;" d="M154.44,203.54c-0.31,3.56-2.47,6.7-4.84,9.37c-0.46,0.52-0.93,1.03-1.41,1.54
									c-1.54-0.19-3.12-0.51-4.73-0.91c-3.97-0.99-8.12-2.56-12.34-4.43c2.53-0.63,4.8-2.39,6.2-4.61c1.86-2.9,2.42-6.49,2.2-9.93
									c-0.21-3.43-1.16-6.77-2.11-10.07c-0.01-0.01-0.01-0.01-0.01-0.02l0.03,0.03l6.22,4.85c2.95,1.2,5.73,2.94,7.78,5.37
									C153.47,197.18,154.72,200.37,154.44,203.54z"/>
								<path style="fill:#FDAD91;" d="M59.09,206.75c-1.36,3.23-2.55,8.86-5.07,9.54c-1.96,0.53-5.01-4.24-6.42-6.44
									c-2.56-4-5.75-8.32-7.52-12.28c-0.54-1.2-0.16-4.73,3.31-2.9C48.35,197.31,52.78,200.44,59.09,206.75z"/>
							</g>
							<g>
								<g>
									<path style="fill:#346E94;" d="M175.04,186.89c-0.03,0.18-0.06,0.37-0.08,0.55c-1.25,7.61-5.94,20.31-13.4,24.74
										c-5.16,3.07-11.37,3.05-18.1,1.36c0.18-1.19,0.32-2.4,0.41-3.6c0.64-8.71-1.23-17.6-5.43-25.27
										c3.8,0.58,7.48,1.06,10.8,1.31c0.36-1.52,0.54-2.54,1.07-3.4c0.23-0.04,0.46-0.06,0.69-0.1c1.54-0.23,3.09-0.5,4.62-0.8
										c2.37,0.55,4.96,0.89,7.5,1.25C167.9,183.6,172.51,184.38,175.04,186.89z"/>
									<path style="fill:#28598A;" d="M174.96,187.44c-1.25,7.61-5.94,20.31-13.4,24.74c-5.16,3.07-11.37,3.05-18.1,1.36
										c0.18-1.19,0.32-2.4,0.41-3.6c1.18-4.09,1.14-8.52-0.13-12.59c2.55,4.29,3.95,9.26,4.01,14.26c5,0.72,10.26-0.8,14.11-4.05
										c2.03-1.72,3.76-4.18,3.5-6.83c-0.36-3.66-4.1-5.81-6.97-8.11c-3.31-2.65-5.87-6.18-7.39-10.13
										c1.54-0.23,3.09-0.5,4.62-0.8c2.37,0.55,4.96,0.89,7.5,1.25c1.48,0.43,2.84,0.85,4.16,1.23
										C169.92,184.94,172.72,185.91,174.96,187.44z"/>
								</g>
								<path style="fill:#F7FBFB;" d="M136.24,184.17c4.44,8.52,4.86,19.27,2.2,28.36c1.88,1.24,4.23,1.57,6.79,1.81
									c2.11-9.07,1.56-14.84-0.4-22.59c-0.72-2.85-1.74-5.71-3.75-7.86C139.45,183.88,137.81,183.82,136.24,184.17z"/>
							</g>
						</g>
						<g>
							<g>
								<path style="fill:#FDAD91;" d="M169.9,136c-2.71,5.85-8.32,10.51-14.78,12.26c0.78-2.71,1.61-5.47,1.54-8.29
									c-0.03-1.22-0.25-2.47-0.68-3.62c-0.56-1.51-1.47-2.85-2.76-3.78c3.02-2.29,5.74-4.69,8.44-7.09c0.2-0.18,0.4-0.36,0.6-0.53
									c0.05,2.13,1.45,4.06,2.87,5.78C166.64,132.57,168.22,134.32,169.9,136z"/>
								<path style="fill:#F08275;" d="M160.28,127c-0.99,4.01-1.58,6.25-4.3,9.36c-0.56-1.51-1.47-2.85-2.76-3.78
									C156.24,130.3,157.58,129.4,160.28,127z"/>
							</g>
							<g>
								<g>
									<path style="fill:#0C1942;" d="M166.27,120.84c2.49-1,5.35-0.97,7.85-0.02s4.65,2.79,6.05,5.07
										c0.3,0.49,0.58,1.02,0.61,1.6c0.03,0.58-0.25,1.2-0.79,1.42c-0.54,0.21-1.27-0.19-1.35-0.6c0.61,1.65,0.14,3.65-1.15,4.85
										c-0.66,0.62-1.7,1.03-2.46,0.53c-0.41-0.27-0.63-0.76-0.7-1.24c-0.07-0.48,0.01-0.98,0.02-1.55
										c-0.22,0.7-0.55,1.39-1.05,1.92c-0.5,0.54-1.21,0.91-1.95,0.91c-0.74,0-1.48-0.44-1.75-1.13c-0.35-0.9,0.17-1.88,0.34-2.83
										c0.26-1.39-0.26-2.86-1.18-3.93c-0.92-1.07-2.22-1.78-3.63-2.08C165.53,122.75,165.91,121.75,166.27,120.84z"/>
									<path style="fill:#BA2F4A;" d="M168.85,118.31c0.79,0.16,1.72,0.44,1.96,1.22c0.13,0.44-0.01,0.91-0.16,1.34
										c-0.31,0.84-0.71,1.64-1.18,2.4c-0.44,0.71-1,1.42-1.78,1.71c-0.78,0.3-1.84,0.01-2.19-0.78c0.03-0.03,0.07-0.07,0.1-0.1"
										/>
								</g>
								<g>
									<path style="fill:#FDAD91;" d="M158.84,130.52c-1.34,1.67-3.02,3.52-4.95,4.45c-1.93,0.93-4.22,1.31-6.22,0.54
										c-2.55-0.97-4.08-3.52-5.43-5.89c-1.34-0.12-2.29-0.21-3.2-0.47c-0.26-0.08-0.53-0.18-0.67-0.41
										c-0.18-0.31-0.04-0.7,0.1-1.03c0.56-1.3,1.12-2.6,1.68-3.9c-1.27-3.26-1.37-5.32-1.25-7.99c0.12-2.67,0.87-5.37,2.5-7.5
										c1.78-2.33,4.5-3.81,7.35-4.52c2.85-0.71,5.82-0.71,8.88-0.52c3.68,0.88,6.66,3.88,7.95,7.43
										c1.29,3.55-1.05,6.41-2.38,9.95C161.87,124.2,165.65,122.02,158.84,130.52z"/>
									<path style="fill:#F08275;" d="M159.15,121.7c-3.27-0.69-6.32-2.42-8.6-4.87c-2.28-2.45-3.77-5.62-4.29-8.98
										c-4.06,2.37-6.98,6.61-7.74,11.24c-1-3.73-0.32-7.88,1.84-11.09c1.46-2.18,3.61-3.94,6.11-4.73
										c2.5-0.79,5.36-0.56,7.59,0.83c1.79,1.11,3.1,2.87,4.03,4.76C159.72,112.18,160.3,115.99,159.15,121.7z"/>
								</g>
								<g>
									<path style="fill:#0C1942;" d="M170.27,115.61c-0.46,4.81-3.53,9.47-7.22,12.37c-1.86-1.62-3.3-3.66-4.78-5.89
										c-3.19-1.4-5.9-3.85-7.61-6.87c-1.72-3.02-2.42-6.61-1.7-10.01c-3.22,0.85-6.1,2.93-7.92,5.72
										c-1.81,2.79-2.54,6.27-1.85,9.49c-1.66-0.94-2.96-2.31-3.94-3.92c-1.45-2.35-2.22-5.22-2.49-7.99
										c-0.18-1.92-0.14-4.01,0.96-5.6c1.12-1.61,3.09-2.38,5-2.8c3.42-0.76,7.04-0.68,10.63,0.16c0.49,0.1,0.97,0.23,1.46,0.37
										c4.71-0.11,9.75-0.13,13.71,2.43C168.6,105.69,170.73,110.8,170.27,115.61z"/>
									<path style="fill:#183061;" d="M149.37,100.26c-3.32,0.35-6.63,0.78-9.85,1.67c-1.33,0.37-2.72,0.85-3.64,1.9
										c-1.11,1.27-1.3,3.1-1.33,4.79c-0.04,2.65,0.2,5.29,0.72,7.88c-1.45-2.35-2.22-5.22-2.49-7.99
										c-0.18-1.92-0.14-4.01,0.96-5.6c1.12-1.61,3.09-2.38,5-2.8C142.16,99.34,145.77,99.42,149.37,100.26z"/>
								</g>
								<g>
									<path style="fill:#31353B;" d="M142.836,121.93c0.431-0.099,0.906,0.371,1.062,1.049c0.156,0.678-0.067,1.308-0.497,1.407
										c-0.431,0.099-0.906-0.371-1.062-1.049C142.182,122.659,142.405,122.029,142.836,121.93z"/>
									<path style="fill:none;stroke:#0C1942;stroke-linecap:round;stroke-miterlimit:10;" d="M140.16,118.72
										c1.08-0.85,2.72-0.88,3.84-0.08"/>
									<path style="fill:#AD4044;" d="M144,130.19c1.05-0.64,2.05-1.38,2.97-2.2c0.19,0.75,0.39,1.5,0.41,2.27
										c0.02,0.77-0.14,1.57-0.61,2.18c-0.09,0.12-0.22,0.24-0.36,0.22c-0.09-0.01-0.17-0.09-0.23-0.15
										C145.53,131.84,144.89,131.19,144,130.19z"/>
								</g>
								<path style="fill:#FDAD91;" d="M155.62,121.75c0.73-1.33,1.85-2.43,3.18-3.15c0.72-0.39,1.55-0.66,2.35-0.5
									c1.2,0.25,2.03,1.49,2.05,2.72s-0.63,2.39-1.51,3.25s-1.96,1.47-3.05,2.06"/>
							</g>
						</g>
						<g>
							<path style="fill:#40989E;" d="M181.28,168.54c-0.84,6.64-2.62,18.85-8.83,29.27c-8.29-3.22-16.44-8.52-22.5-14.92
								c0.97-1.03,1.82-2.15,2.52-3.33c1.21-2.05,2-4.3,2.31-6.61c-0.18-0.17-0.37-0.35-0.55-0.53c-2.19-2.15-4.15-4.56-4.78-7.48
								c-0.08-0.38-0.14-0.76-0.17-1.14c-0.28-2.99,0.8-6.02,2.18-8.72c1.56-3.05,2.83-5.69,3.87-8.95
								c5.39-4.03,8.79-8.09,12.21-12.92c5.74,2.9,9.89,9.12,12,15.48c0.85,2.54,1.44,4.99,1.79,7.51
								C181.87,159.99,181.85,163.93,181.28,168.54z"/>
							<g>
								<path style="fill:#3B8A94;" d="M181.28,168.54c-0.84,6.64-2.62,18.85-8.83,29.27c-8.29-3.22-16.44-8.52-22.5-14.92
									c0.97-1.03,1.82-2.15,2.52-3.33c5.13,2.14,11.09,2.64,15.85-0.08c3.42-1.96,5.8-5.31,7.68-8.76
									c2.48-4.55,4.28-9.45,5.34-14.51C181.87,159.99,181.85,163.93,181.28,168.54z"/>
								<path style="fill:#3B8A94;" d="M163.73,166.97c-1.77,2.66-4.9,4.07-7.95,5.02c-0.51,0.16-1.02,0.3-1.54,0.41
									c-2.19-2.15-4.15-4.56-4.78-7.48c-0.08-0.38-0.14-0.76-0.17-1.14C153.73,166.05,158.75,167.17,163.73,166.97z"/>
							</g>
						</g>
						<g>
							<g>
								<path style="fill:#FDAD91;" d="M181.56,209.09c-0.58,0.84-0.91,0.63-1.28,1.58s-0.81,3.03-0.23,3.86
									c0.37,0.54,0.95,0.88,1.52,1.18c2,1.06,4.13,1.85,6.32,2.36c0.37,0.09,0.76,0.17,1.13,0.06c0.37-0.11,0.7-0.45,0.68-0.85
									c-0.03-0.45-0.46-0.74-0.85-0.94c-1.02-0.55-2.05-1.1-2.79-1.78c3.86,0.71,7.73,1.43,11.59,2.14c0.48,0.09,1,0.18,1.45-0.02
									c0.45-0.2,0.79-0.79,0.75-1.52c0.5,0.25,1.42-0.89,1.48-1.31c0.22-1.5-2.29-2.31-4.32-3.02
									C191.41,208.89,183.66,206.06,181.56,209.09z"/>
								<g>
									<path style="fill:#FDAD91;" d="M186.99,208.63c-2.09,0.93-3.73,1.56-6.2,1.66c-6.3-18.31-11.51-35.16-15.97-48.27
										c-0.15-0.42-0.28-0.85-0.43-1.26c-0.01-0.04-0.03-0.08-0.04-0.12c-0.41-1.2-0.86-2.46-1.3-3.75
										c-1.54-4.58-2.9-9.57-1.74-13.79c0.58-2.12,2.18-4.03,4.28-4.66c4.74-1.4,8.14,6.48,9.45,11.88c0,0,0.36,1.43,0.95,3.9
										c0.39,1.62,0.88,3.67,1.43,6.04c0.14,0.59,0.28,1.2,0.43,1.84C180.85,175.01,185.37,195.57,186.99,208.63z"/>
									<path style="fill:#F08275;" d="M177.85,162.12c-4.19,0.74-8.67,0.71-13.03-0.09c-0.15-0.42-0.28-0.85-0.43-1.26
										c-0.01-0.04-0.03-0.08-0.04-0.12c-0.41-1.2-0.86-2.46-1.3-3.75c4.15-1.52,8.53-2.42,12.94-2.66
										c0.39,1.62,0.88,3.67,1.43,6.04C177.56,160.87,177.7,161.48,177.85,162.12z"/>
								</g>
							</g>
							<path style="fill:#5DB0B0;" d="M178.57,160.05c-4.3,0.73-14.9,1.32-14.91,1.29c-1.88-5.46-3.85-12.81-2.35-18.22
								c0.58-2.12,2.18-4.03,4.28-4.66c4.74-1.4,8.83,6.02,10.14,11.42L178.57,160.05z"/>
						</g>
					</g>
					<g>
						<polygon style="fill:#4D0746;" points="51.9,176.52 51.92,179.88 133.23,180.14 133.23,176.52 132.64,161.85 						"/>
						<polygon style="fill:#FAA540;" points="51.92,176.52 78.22,161.44 132.69,161.44 133.23,176.52 						"/>
					</g>
					<g>
						<path style="fill:#4D0746;" d="M55.74,216.25v-37.36h3.86v37.36c0,0.67-0.55,1.22-1.22,1.22h-1.42
							C56.29,217.47,55.74,216.93,55.74,216.25z"/>
						<path style="fill:#4D0746;" d="M127.78,216.25v-37.36h3.86v37.36c0,0.67-0.55,1.22-1.22,1.22H129
							C128.32,217.47,127.78,216.93,127.78,216.25z"/>
					</g>
					<g>
						<g>
							<g>
								<path style="fill:#28598A;" d="M91.89,174.44l0.21,0.9c0.07,0.3,0.34,0.52,0.65,0.51l33.99-0.07c0.46,0,0.84-0.37,0.86-0.83
									l0.5-12.37L91.89,174.44z"/>
								<path style="fill:#C1DEE6;" d="M92.08,174.49v-12.16h35.65c0.23,0,0.41,0.19,0.4,0.42l-0.57,10.89
									c-0.02,0.47-0.42,0.85-0.89,0.85H92.08z"/>
							</g>
							<g>
								<polygon style="fill:#E1F3F5;" points="120.7,165.5 126.87,165.71 126.53,170.73 119.82,170.49 								"/>
								<g>
									<polygon style="fill:#28598A;" points="106.29,163.06 120.22,163.2 118.04,172.66 98.42,172.62 									"/>
									<g>
										<path style="fill:none;stroke:#C1DEE6;stroke-width:0.5;stroke-miterlimit:10;" d="M108.11,162.58l-8.04,10.54
											L108.11,162.58z"/>
										<path style="fill:none;stroke:#C1DEE6;stroke-width:0.5;stroke-miterlimit:10;" d="M109.96,162.9l-7.18,10.23
											L109.96,162.9z"/>
										<path style="fill:none;stroke:#C1DEE6;stroke-width:0.5;stroke-miterlimit:10;" d="M120.27,163.91l-14.98-0.05
											L120.27,163.91z"/>
										<path style="fill:none;stroke:#C1DEE6;stroke-width:0.5;stroke-miterlimit:10;" d="M120.14,165.28l-17.41-0.05
											L120.14,165.28z"/>
										<path style="fill:none;stroke:#C1DEE6;stroke-width:0.5;stroke-miterlimit:10;" d="M116.98,166.89l-15.72-0.05
											L116.98,166.89z"/>
										<path style="fill:none;stroke:#C1DEE6;stroke-width:0.5;stroke-miterlimit:10;" d="M116.17,169l-16.15-0.05L116.17,169z"
											/>
										<path style="fill:none;stroke:#C1DEE6;stroke-width:0.5;stroke-miterlimit:10;" d="M119,170.75l-20.58-0.05L119,170.75z"
											/>
										<path style="fill:none;stroke:#C1DEE6;stroke-width:0.5;stroke-miterlimit:10;" d="M112.26,162.9l-6.72,10.43
											L112.26,162.9z"/>
										<path style="fill:none;stroke:#C1DEE6;stroke-width:0.5;stroke-miterlimit:10;" d="M114.14,162.9l-6.03,10.43
											L114.14,162.9z"/>
										<path style="fill:none;stroke:#C1DEE6;stroke-width:0.5;stroke-miterlimit:10;" d="M116.21,162.9l-5.43,10.89
											L116.21,162.9z"/>
										<path style="fill:none;stroke:#C1DEE6;stroke-width:0.5;stroke-miterlimit:10;" d="M118.5,162.9l-3.97,11.12L118.5,162.9z
											"/>
									</g>
								</g>
							</g>
						</g>
						<g>
							<path style="fill:#28598A;" d="M78.89,145.44l-2.05-1.23l-1.17,0.91c-0.33,0.26-0.43,0.72-0.23,1.09l15.36,28.43
								c0.14,0.26,0.45,0.38,0.73,0.29l1.4-0.45l-3.49-23.08L78.89,145.44z"/>
							<path style="fill:#5F9CBA;" d="M92.53,174.28l-15.91-29.21c-0.21-0.38,0.02-0.86,0.45-0.94l14.73-2.78
								c0.46-0.09,0.93,0.13,1.17,0.53l11.02,20.37l-10.82,12.09C92.99,174.56,92.66,174.52,92.53,174.28z"/>
							<polygon style="fill:#C1DEE6;" points="78.21,145.18 91.85,142.53 102.47,162 93.28,172.09 							"/>
						</g>
					</g>
				</g>
			</g>
			<g>
				<g>
					<rect x="45.25" y="63.24" style="fill:#FAC98F;" width="83.22" height="62.46"/>
				</g>
				<g>
					<g>
						<defs>
							<rect id="SVGID_1_" x="45.25" y="63.24" width="83.22" height="62.46"/>
						</defs>
						<clipPath id="SVGID_00000016773010739408047840000004235550418100886963_">
							<use xlink:href="#SVGID_1_"  style="overflow:visible;"/>
						</clipPath>
						<g style="clip-path:url(#SVGID_00000016773010739408047840000004235550418100886963_);">
							<g>
								<path style="fill:#95405D;" d="M96.07,105.46c-0.53,2.84-1.24,5.72-3.34,7.46c-2.32,1.93-5.78,1.9-8.56,0.71
									c-2.77-1.17-5-3.31-7.18-5.4c1.63-1.35,2.03-3.71,1.84-5.79c-0.05-0.48-0.11-0.95-0.2-1.43c-0.11-0.7-0.27-1.42-0.38-2.12
									c-0.15-0.88-0.27-1.76-0.25-2.64c1.2-0.02,2.36-0.04,3.46-0.05c3.02-0.03,5.71-0.04,8.4-0.04c0.32,1.14,0.43,2.62,0.67,4.05
									c0.25,1.44,0.66,2.91,1.61,4.01c0.06,0.08,0.13,0.15,0.2,0.22C93.33,105.41,94.8,105.95,96.07,105.46z"/>
								<path style="fill:#7D3455;" d="M92.36,104.44c-4.78,0.85-9.92-0.42-13.73-3.43c-0.11-0.7-0.27-1.42-0.38-2.12
									c0.76-1.19,1.9-2.08,3.22-2.7c3.02-0.03,5.71-0.04,8.4-0.04c0.32,1.14,0.43,2.62,0.67,4.05c0.25,1.44,0.66,2.91,1.61,4.01
									C92.22,104.3,92.29,104.37,92.36,104.44z"/>
							</g>
							<g>
								<path style="fill:#E8E0DA;" d="M97.51,111.1c1.33-0.91,0.96-3.35,2.43-4.03c0.52-0.24,1.12-0.16,1.68-0.03
									c4.01,0.93,7.01,4.37,8.75,8.1c1.74,3.73,2.49,7.83,3.73,11.76c1.24,3.92,3.12,7.86,6.46,10.27
									c-5.05,1.35-9.89,3.48-14.29,6.28C104.56,131.91,100.41,120.91,97.51,111.1z"/>
								<path style="fill:#FBF6F1;" d="M113.65,138.12c-0.23,0.03-0.48,0.05-0.71,0.08c-11.67,1.3-23.49,2.54-35.27,1.3
									c-4.5-0.48-9-1.32-13.48-2.65c-1.39-8.82-2.78-17.67-2.84-26.59c-0.02-3.29,0.44-7.13,3.26-8.82
									c1.49-0.89,3.36-0.95,5.04-0.54c2.87,0.69,6.04,2.08,8.94,3.81c2.42,2.56,7.12,8.99,11.28,9.26
									c3.02,0.2,3.98-5.34,3.86-8.97c3.85,0.87,8.46,1.38,11.11,4.3c1.77,1.96,2.64,4.54,3.28,7.11
									c1.73,6.99,1.94,14.52,5.12,20.94c0.1,0.22,0.22,0.45,0.35,0.66C113.6,138.03,113.63,138.08,113.65,138.12z"/>
								<path style="fill:#E8E0DA;" d="M115.79,137.27c-0.74,0.26-1.47,0.5-2.21,0.72c-0.21,0.08-0.44,0.15-0.65,0.21
									c-11.67,1.3-23.49,2.54-35.27,1.3c-0.56-9.97-2-19.9-4.34-29.66c2.25,4.87,3.62,10.14,4.07,15.36
									c1.43-3.46,2.32-7.15,2.61-10.88c0.43,4.61-0.13,9.33-1.46,13.79c1.44,2.48,4.27,3.77,6.96,4.73
									c8.8,3.14,18.21,4.55,27.73,4.48C114.09,137.32,114.93,137.3,115.79,137.27z"/>
							</g>
							<g>
								<path style="fill:#7D3455;" d="M94.32,88.75c0.89-0.69,1.8-1.4,2.87-1.73c1.07-0.33,2.36-0.21,3.15,0.59
									c0.79,0.8,0.89,2.13,0.4,3.14c-0.49,1.01-1.48,1.72-2.54,2.1c-1.06,0.37-2.21,0.44-3.33,0.45"/>
								<path style="fill:#95405D;" d="M71.34,88.37c-0.91-8.83,4.04-16.83,11.05-17.55s12.76,5.86,13.67,14.69
									c0.91,8.83-0.31,16.63-7.32,17.35C81.73,103.58,72.25,97.2,71.34,88.37z"/>
								<g>
									<ellipse style="fill:#1A202B;" cx="83.24" cy="89.73" rx="0.77" ry="1.02"/>
									<ellipse style="fill:#1A202B;" cx="92.36" cy="89.09" rx="0.77" ry="1.02"/>
									<path style="fill:none;stroke:#0C1B3C;stroke-linecap:round;stroke-miterlimit:10;" d="M80.06,85.8
										c1.03-1.15,2.71-1.67,4.21-1.3"/>
									<path style="fill:none;stroke:#0C1B3C;stroke-linecap:round;stroke-miterlimit:10;" d="M90.5,83.82
										c1.22-0.82,2.92-0.85,4.16-0.06"/>
									<path style="fill:none;stroke:#4A1934;stroke-linecap:round;stroke-miterlimit:10;" d="M89.5,88.84
										c0.42,1.54,0.56,3.15,0.41,4.74"/>
									<path style="fill:#4A1934;" d="M90.35,95.67c-2.22,0.23-4.48,0.04-6.51-0.39c-0.51,1.29-0.12,2.88,0.92,3.79
										c1.04,0.91,2.68,1.06,3.88,0.37C89.84,98.75,90.53,97.25,90.35,95.67z"/>
								</g>
								<g>
									<path style="fill:#5D7191;" d="M78.84,78.47c-1.66,4.47-2.26,11.16-2.69,11.38c-1.54,0.76-2.7,2.25-3.09,4.27
										c-1.94-4.21-2.82-8.9-2.47-13.39C73.98,79.9,78.84,78.47,78.84,78.47z"/>
									<g>
										<path style="fill:#0C1B3C;" d="M97.14,76.14c-0.06,0.7-0.35,1.38-0.79,1.91c-0.38,0.48-0.88,0.85-1.44,1.03
											c-8.33,0.17-16.39,1.27-24.22,3.38c-1.58,0.43-2.29-0.46-2.61-1.24c-0.32-0.79-0.35-1.68-0.2-2.52
											c0.13-0.82,0.43-1.62,0.98-2.21c0.55-0.57,1.39-0.87,2.11-0.61c-1.21-1.69-1.05-4.13,0.27-5.5
											c1.31-1.36,3.57-1.45,4.97-0.19c0.09-1,0.46-1.93,1-2.67c0.72-0.98,1.76-1.65,2.89-1.77c1.97-0.21,3.98,1.29,4.5,3.35
											c0.01-1.27,0.97-2.19,2.01-2.42c1.05-0.23,2.14,0.11,3.08,0.64c0.97,0.55,1.86,1.33,2.35,2.38
											c0.49,1.05,0.49,2.41-0.18,3.33c1.07-0.74,2.51-0.88,3.61-0.25C96.57,73.42,97.25,74.8,97.14,76.14z"/>
										<path style="fill:#1B3359;" d="M97.14,76.14c-0.06,0.7-0.35,1.38-0.79,1.91c0.11-1.34-0.41-2.72-1.45-3.56
											c-1.48-1.21-3.84-1.17-5.28,0.08c0.36-1.05,0.75-1.68,0.95-2.39c0.21-0.69,0.22-1.48-0.12-2.12
											c-0.33-0.59-0.93-1-1.58-1.18c-0.96-0.28-2.03-0.08-2.85,0.5c-0.81,0.57-1.33,1.54-1.38,2.53
											c-0.77-1.4-1.41-2.54-2.34-3.41c-0.92-0.87-2.15-1.46-3.43-1.43c-0.58,0.01-1.16,0.17-1.66,0.45
											c0.72-0.98,1.76-1.65,2.89-1.77c1.97-0.21,3.98,1.29,4.5,3.35c0.01-1.27,0.97-2.19,2.01-2.42
											c1.05-0.23,2.14,0.11,3.08,0.64c0.97,0.55,1.86,1.33,2.35,2.38c0.49,1.05,0.49,2.41-0.18,3.33
											c1.07-0.74,2.51-0.88,3.61-0.25C96.57,73.42,97.25,74.8,97.14,76.14z"/>
									</g>
								</g>
								<path style="fill:#95405D;" d="M77,90.56c-1.15-0.87-2.55-1.47-3.99-1.47c-1.44,0-2.92,0.63-3.74,1.81s-0.87,2.91,0.05,4.03
									c0.88,1.07,2.44,1.39,3.81,1.15c1.37-0.24,2.6-0.96,3.81-1.66"/>
							</g>
						</g>
					</g>
				</g>
			</g>
		</g>
	</g>
	<g>
		<g>
			<path style="fill:#F3E8E2;" d="M310.92,41.12c-16.49,9.75-29.45,24.87-38.16,41.93c-8.71,17.06-13.29,36.01-15.15,55.07
				c-2.03,20.8-0.41,43.24,11.93,60.1c9.59,13.12,24.56,21.28,39.81,26.91c35.62,13.14,75.51,14.4,111.89,3.53
				c15.18-4.53,30.23-11.47,40.57-23.47c8.73-10.12,13.54-23.54,13.24-36.9c-0.3-13.36-5.72-26.55-14.9-36.27
				c-10.87-11.51-26.11-17.73-38.83-27.16c-12.26-9.09-22.03-21.05-32.22-32.41C378.91,61.1,367.88,50,354.13,43.38
				S322.7,34.16,310.92,41.12z"/>
			<g>
				<ellipse style="fill:#CCCFD4;" cx="291.77" cy="173.58" rx="25.68" ry="4.71"/>
				<g>
					<g>
						<path style="fill:#FAA540;" d="M312.38,145.65v14.14c0,3.93-1.4,7.52-3.76,10.3v0.01c-2.93,3.5-7.34,5.71-12.26,5.71h-9.66
							c-8.85,0-16.02-7.17-16.02-16.02v-14.14H312.38z"/>
						<ellipse style="fill:#FFCB7A;" cx="291.53" cy="145.64" rx="20.85" ry="3.3"/>
						<ellipse style="fill:#4D0746;" cx="291.53" cy="145.46" rx="18.85" ry="2.64"/>
						<path style="fill:#4D0746;" d="M270.68,151.8c5.76,1.42,24.81,5.3,41.71-0.67v5.21c-5.05,1.66-20.11,5.43-41.71,0.33"/>
					</g>
					<g>
						<g>
							<defs>
								<path id="SVGID_00000100369979642802350400000016851390145126747308_" d="M272.63,142.6c0-1.21-17.22-12.89-16.31-28.49
									c1.17-20.06,16.63-43.2,57.37-47c6.54-0.61,15.52,26.22,12.49,49.42c-1.95,14.95-14.56,24.99-14.56,26.07
									c0,2.76-8.73,5-19.49,5S272.63,145.36,272.63,142.6z"/>
							</defs>
							<clipPath id="SVGID_00000149364395330256290130000007100545870158696343_">
								<use xlink:href="#SVGID_00000100369979642802350400000016851390145126747308_"  style="overflow:visible;"/>
							</clipPath>
							<g style="clip-path:url(#SVGID_00000149364395330256290130000007100545870158696343_);">
								<g>
									<g>
										<path style="fill:#2D6A7A;" d="M321.88,100.43c-2.8,2.2-5.41,5.1-7.77,8.62c-7.81,11.53-12.88,29.34-13.12,47.76
											c-5.41-0.57-11.19-1.02-16.98-1.45c-1.23-17.11-4.06-33.91-8.49-49.01v-0.02c-1.96-6.67-4.22-13.01-6.79-18.94
											c5.73,1.59,10.89,6.41,14.95,13.22c0,0,0.01,0,0.01,0.02c4.57,7.66,7.75,17.88,8.77,28.98
											c1.35-11.06,5.7-20.35,11.23-25.65c0.74-0.71,1.5-1.36,2.28-1.91C310.99,98.39,316.67,97.77,321.88,100.43z"/>
										<path style="fill:#3E828C;" d="M318.26,101.48c-4.08-0.95-8.25-0.73-12.29,0.59c5.02-3.68,10.7-4.3,15.91-1.64
											c-2.8,2.2-5.41,5.1-7.77,8.62C315.31,106.21,316.71,103.68,318.26,101.48z"/>
										<path style="fill:#3E828C;" d="M273.26,91.97c1.01,4.64,1.77,9.46,2.26,14.37c-1.96-6.67-4.22-13.01-6.79-18.94
											c5.73,1.59,10.89,6.41,14.95,13.22C280.35,96.89,276.81,93.95,273.26,91.97z"/>
									</g>
									<g>
										<path style="fill:none;stroke:#254970;stroke-width:0.5;stroke-linecap:round;stroke-miterlimit:10;" d="M315.92,102.01
											c-5.76,2.85-11.08,8.67-15.17,16.61c-4.1,7.94-6.97,17.99-8.2,28.68"/>
										<path style="fill:none;stroke:#254970;stroke-width:0.5;stroke-linecap:round;stroke-miterlimit:10;" d="M274.23,93.78
											c6.85,13.94,12.05,30.59,15.16,48.46"/>
									</g>
								</g>
								<g>
									<g>
										<path style="fill:#3B8A94;" d="M324.68,120.42c-2.4,1-4.7,2.59-6.87,4.68h-0.01c-8.13,7.82-14.28,22.67-15.76,39.33
											c-3.79-0.52-7.46-0.87-11.05-1.25c-0.21-0.02-0.42-0.04-0.62-0.07c-0.9-0.09-1.79-0.18-2.68-0.27
											c-2.05-0.23-4.08-0.48-6.11-0.77c-2.37-13.62-6.85-25.43-12.63-34.43c0-0.02,0-0.02-0.01-0.02
											c-3.28-5.14-7-9.35-10.98-12.44c5.99-1.8,12.26,0.18,17.68,5.18c3.62,3.32,6.85,8,9.39,13.76
											c-0.29-4.68-0.16-9.39,0.35-13.97c1.06-9.96,3.8-19.4,7.52-26.97c5.44-11.08,12.79-18.54,20.43-23.63
											c-2.15,5.12-4.09,10.55-5.8,16.19c-4.34,14.19-7.23,29.82-8.48,45.9c0.96-1.73,2-3.28,3.08-4.68h0.01
											C308.72,118.43,317.22,116.08,324.68,120.42z"/>
										<g>
											<path style="fill:none;stroke:#254970;stroke-width:0.5;stroke-linecap:round;stroke-miterlimit:10;" d="M303.54,84.74
												c-4.95,11.66-8.03,25.68-9.95,40.02c-1.92,14.34-2.73,29.09-3.54,43.78"/>
											<path style="fill:none;stroke:#254970;stroke-width:0.5;stroke-linecap:round;stroke-miterlimit:10;" d="M314.46,122.14
												c-11.18,10.01-20.34,27.37-25.41,48.16"/>
											<path style="fill:none;stroke:#254970;stroke-width:0.5;stroke-linecap:round;stroke-miterlimit:10;" d="M268.92,120.02
												c9.78,9.55,17.06,27.29,19.35,47.14"/>
										</g>
									</g>
									<path style="fill:#4AA5A8;" d="M307.52,85.74c0.58-3.27,1.16-6.57,1.72-9.89c-10.58,8.67-19.23,24.86-23.86,44.3
										c1.06-9.96,3.8-19.4,7.52-26.97c5.44-11.08,12.79-18.54,20.43-23.63C311.16,74.67,309.22,80.1,307.52,85.74z"/>
									<path style="fill:#4AA5A8;" d="M317.81,125.09c0.79-1.64,1.57-3.25,2.33-4.8c-6.13,0.68-12.21,2.94-18.01,6.67
										c6.59-8.53,15.09-10.89,22.55-6.55C322.28,121.41,319.98,123,317.81,125.09z"/>
									<path style="fill:#4AA5A8;" d="M268.93,127.63c-3.28-5.14-7-9.35-10.98-12.44c5.99-1.8,12.26,0.18,17.68,5.18
										c-3.88-2.37-8.04-3.11-12.06-2C265.67,120.77,267.5,123.95,268.93,127.63z"/>
								</g>
							</g>
						</g>
					</g>
				</g>
			</g>
			<g>
				<g>
					<defs>
						<path id="SVGID_00000182488922253062359280000017104783693921818278_" d="M310.92,41.12c-16.49,9.75-29.45,24.87-38.16,41.93
							c-8.71,17.06-13.29,36.01-15.15,55.07c-2.03,20.8-0.41,43.24,11.93,60.1c9.59,13.12,24.56,21.28,39.81,26.91
							c35.62,13.14,75.51,14.4,111.89,3.53c15.18-4.53,30.23-11.47,40.57-23.47c8.73-10.12,13.54-23.54,13.24-36.9
							c-0.3-13.36-5.72-26.55-14.9-36.27c-10.87-11.51-26.11-17.73-38.83-27.16c-12.26-9.09-22.03-21.05-32.22-32.41
							C378.91,61.1,367.88,50,354.13,43.38S322.7,34.16,310.92,41.12z"/>
					</defs>
					<clipPath id="SVGID_00000132805793308362698600000012484585940066359224_">
						<use xlink:href="#SVGID_00000182488922253062359280000017104783693921818278_"  style="overflow:visible;"/>
					</clipPath>
					<g style="clip-path:url(#SVGID_00000132805793308362698600000012484585940066359224_);">
						<g>
							<g>
								<polygon style="fill:#FAC98F;" points="326.29,171.56 326.29,21.19 440.34,21.19 440.34,179.53 								"/>
								<polygon style="fill:#FFFAF0;" points="436.33,174.39 400.97,172.1 358.9,169.37 346.76,168.58 330.53,167.53 330.53,21.19 
									436.1,21.19 436.11,27.98 436.22,99.34 436.24,111.56 436.24,111.57 436.28,143.74 								"/>
								<g>
									<polygon style="fill:#F5EADA;" points="411.22,21.19 330.53,84.41 330.53,21.19 									"/>
									<polygon style="fill:#F5EADA;" points="330.53,111.57 436.11,27.98 436.1,21.19 431.38,21.19 330.53,99.77 									"/>
									<polygon style="fill:#F5EADA;" points="436.24,111.56 436.24,111.57 358.9,169.37 346.76,168.58 436.22,99.34 									"/>
									<polygon style="fill:#F5EADA;" points="436.33,174.39 400.97,172.1 436.28,143.74 									"/>
								</g>
							</g>
							<g>
								<rect x="380.96" y="18.27" style="fill:#FAC98F;" width="4.71" height="153.63"/>
								
									<rect x="381.323" y="76.791" transform="matrix(0.0349 -0.9994 0.9994 0.0349 237.7401 510.9907)" style="fill:#FAC98F;" width="4.24" height="111.221"/>
								
									<rect x="381.179" y="10.388" transform="matrix(0.0175 -0.9998 0.9998 0.0175 310.6055 448.0801)" style="fill:#FAC98F;" width="4.24" height="111.215"/>
							</g>
						</g>
						<g>
							<g>
								<path style="fill:#BA2F4A;" d="M350.53,18.37c-0.4,25.95-0.83,52.2-7.38,77.3c-2,7.66-4.3,15.63-8.45,22.04
									c-2.42,3.74-5.49,6.96-9.49,9.26c0,0-3.84,0.34-5.24,0.2c0.31-35.51-0.64-65.08-3.84-104.89c9.18-2.11,21-3.98,29.67-3.99
									C347.41,18.28,348.98,18.31,350.53,18.37z"/>
								<path style="fill:#A12343;" d="M321.81,132.63c0.27-18.89,0.53-37.77,0.8-56.66c0.01-1.06,0.1-2.27,0.95-2.9
									c0.97-0.73,2.46-0.22,3.18,0.75s0.88,2.24,1,3.44C329.6,96.14,327.48,115.39,321.81,132.63z"/>
								<path style="fill:#A12343;" d="M320.65,132.88c6-12.43,8.78-26.18,10.14-39.91c1.36-13.73,1.36-27.55,2.09-41.33
									c0.07-1.4,0.17-2.86,0.9-4.06c0.72-1.2,2.28-2.02,3.56-1.45c1.14,0.51,1.62,1.84,1.91,3.06c1.2,5.04,1.1,10.29,0.87,15.46
									c-0.52,12.11-1.65,24.24-4.49,36.02S328.21,123.9,320.65,132.88z"/>
								<path style="fill:#E66065;" d="M350.53,18.37c-0.4,25.95-0.83,52.2-7.38,77.3c-2,7.66-4.3,15.63-8.45,22.04
									c10.94-31.78,14.78-66,11.1-99.43C347.41,18.28,348.98,18.31,350.53,18.37z"/>
							</g>
							<g>
								<path style="fill:#BA2F4A;" d="M334.03,160.53c-1.26-0.83-2.74-0.86-4.11-0.5c-1.64,0.42-3.13,1.4-3.97,2.24
									c-1.52,1.52-6.32,1.41-8.78-0.51c-1.3-1.02-3.55-1.03-5.05,0.33c2.34-9.47,5.3-20.14,7.99-31.03
									c1.8-0.08,3.95,0.34,5.95,0.37c0.15,0.51,0.3,1.03,0.44,1.56C328.89,141.37,331.71,152.53,334.03,160.53z"/>
								<g>
									<path style="fill:#A12343;" d="M322.48,130.4c-0.04,6.35-1.04,12.69-2.97,18.73c-0.22,0.68-0.45,1.38-0.41,2.1
										s0.43,1.46,1.11,1.7c0.75,0.27,1.61-0.19,2.05-0.86c0.44-0.67,0.57-1.49,0.66-2.28
										C323.72,143.34,323.62,136.82,322.48,130.4z"/>
									<path style="fill:#A12343;" d="M323.65,130.5c0.74,7.82,1.49,15.64,2.23,23.47c0.11,1.14,0.6,2.63,1.74,2.54
										c1.15-0.09,1.4-1.65,1.31-2.8C328.3,145.82,327.03,137.98,323.65,130.5z"/>
								</g>
								<path style="fill:#E66065;" d="M334.03,160.53c-1.26-0.83-2.74-0.86-4.11-0.5c1.29-6.62-1.64-17.62-3.42-27.04
									C328.89,141.37,331.71,152.53,334.03,160.53z"/>
							</g>
							<path style="fill:#422447;" d="M319.98,126.11c2.36,0.41,4.81,0.26,7.18-0.44c0.27,2.24-0.07,4.55-0.98,6.6
								c-2.07,0.62-4.29,0.75-6.39,0.48C319.16,130.56,319.3,128.16,319.98,126.11z"/>
						</g>
					</g>
				</g>
			</g>
		</g>
		<g>
			<g>
				<path style="fill:#CCCFD4;" d="M244.21,201.35c0.25-7.2,47.39-7.17,103.7-5.18s97.63,8.97,97.38,16.17s-49.57,10.71-106.18,6.07
					C282.95,213.81,243.95,208.54,244.21,201.35z"/>
				<g>
					<g>
						<g>
							<g>
								<path style="fill:#F18576;" d="M274.65,200.51c-11.08-3.32-12.81-3.55-24.63,0.01c-0.7,0.21-2.1,0.74-2.79,0.5
									c-1.76-0.59-1.66-3.9-0.44-5.16c2.05-2.12,6.85-3.49,7.65-4.56c1.61-2.15,2.99-5.55,4.64-7.18
									c1.36-1.34,4.62-0.93,4.47,4.69c3.9,0.34,6.16,0.12,9.85,0.78C273.77,192.91,273.81,196.17,274.65,200.51z"/>
								<path style="fill:#9C2245;" d="M325.95,181.35c-14.59,2.94-35.97,4.64-50.86,3.68c-2.21,1.56-3.85,4.24-4.45,7.23
									c-0.6,3-0.15,6.28,1.2,9.27c14.98,2.19,30.16,2.51,45.2,0.95C318.15,196.06,325.79,189,325.95,181.35z"/>
								<path style="fill:#FCCCCC;" d="M272.6,201.64c-0.82-0.53-1.22-1.67-1.44-2.76c-0.53-2.61-0.36-5.41,0.47-7.9
									c0.83-2.49,2.32-4.65,4.26-6.08c-1.65-0.28-3.31-0.56-4.98-0.78c-2.52,1.34-4.51,4.04-5.32,7.21s-0.42,6.75,1.02,9.54
									C268.65,201.38,270.73,201.63,272.6,201.64z"/>
							</g>
							<g>
								<g>
									<path style="fill:#FDAD91;" d="M309.09,162.52c-0.86,0.72-1.3,1.11-2.6,1.84c-0.6,1.18-1.12,2.23-1.6,3.23
										c-0.02,0.03-0.03,0.05-0.03,0.08c-0.08,0.15-0.14,0.29-0.21,0.43c-0.97,1.99-1.82,3.82-2.93,6.07
										c-3.33,0-6.86-0.07-10.38-0.13c1.39-2.83,3.23-5.65,5.04-8.39c0.07-0.11,0.15-0.22,0.22-0.32c0.06-0.1,0.13-0.2,0.19-0.29
										c0.76-1.17,1.52-2.33,2.22-3.47c-3.35-4.31-7.39-7.04-7.89-7.6c-0.36-0.39-1.05-0.4-1.44-1.78
										c-0.29-0.97,1.01-4.92,1.68-5.68c0.76-0.88,3.71,0.6,5.92,1.9c3.85,2.28,7.41,5.96,8.56,6.51
										c1.04,0.51,2.86,1.25,4.62,2.68C311.76,158.67,311.25,160.71,309.09,162.52z"/>
									<path style="fill:#F18576;" d="M304.85,167.67c-0.08,0.15-0.14,0.29-0.21,0.43c-0.97,1.99-1.82,3.82-2.93,6.07
										c-3.33,0-6.86-0.07-10.38-0.13c1.39-2.83,3.23-5.65,5.04-8.39c0.07-0.11,0.15-0.22,0.22-0.32
										C299.46,165.57,302.28,166.37,304.85,167.67z"/>
								</g>
								<g>
									<path style="fill:#BA2F4A;" d="M337.34,207.66c-8.51,0-17.05-0.18-25.53-0.82c-8.69-0.63-17.33-1.73-25.85-3.55
										c-1.9-0.41-3.97-0.95-5.08-2.55c-1.21-1.73-0.88-4.06-0.42-6.11c2.06-9.06,5.96-17.7,11.38-25.24
										c4.19-0.56,9.51-0.06,13.83,0.81c-1.96,4.8-3.8,8.63-5.63,14.89c9.83,1.1,19.4-2.85,29.06-4.33
										c2.82-0.44,5.65-0.66,8.48-0.49C337.77,189.2,337.67,198.13,337.34,207.66z"/>
									<path style="fill:#9C2245;" d="M337.34,207.66c-8.51,0-17.05-0.18-25.53-0.82c3.48-0.85,6.79-2.65,8.68-5.66
										c1.83-2.91,2.08-6.5,2.86-9.85c0.75-3.24,2.07-6.4,4.2-8.97c0.48-0.57,0.99-1.11,1.54-1.6c2.82-0.44,5.65-0.66,8.48-0.49
										C337.77,189.2,337.67,198.13,337.34,207.66z"/>
									<path style="fill:#FCCCCC;" d="M288.9,173.26c4.89,0.06,10.24,0.31,15.02,1.2c1.14-2.31,1.78-3.58,2.11-6.03
										c-4.78-1.32-8.64-1.27-13.59-1.51C290.91,168.85,289.14,171.14,288.9,173.26z"/>
								</g>
							</g>
						</g>
						<g>
							<g>
								<path style="fill:#2B618A;" d="M398.77,208.1c-13.98,5.5-19.6,1.03-21.39-1.7c-0.07-0.1-0.14-0.22-0.2-0.32
									c-3.6-5.62-5.94-13.5-5.09-20.06c0.79-6.14,1.46-10.35,6.06-15.38c0.4-0.44,0.82-0.89,1.29-1.34
									c5.54,8.16,5.58,23.22,6.71,25.56c0.62,1.25,9.49,1.17,12.68,3.34C401.44,199.96,402.1,206.8,398.77,208.1z"/>
								<path style="fill:#1A4B78;" d="M381.51,206.5c-1.44-0.14-2.89-0.28-4.33-0.42c-3.6-5.62-5.94-13.5-5.09-20.06
									c0.79-6.14,1.46-10.35,6.06-15.38c0.92,5.63,0.69,11.44-0.7,16.97c-0.87,3.48-2.19,7.02-1.56,10.54
									C376.5,201.52,378.85,204.34,381.51,206.5z"/>
							</g>
							<g>
								<path style="fill:#448AAB;" d="M396.99,208.65c-1.13-2.18-1.39-4.8-0.72-7.16c0.24-0.86,0.89-2.43,1.7-2.81
									c0.72-0.33,4.34,1.58,5.05,1.93c0.92,0.46-0.88,7.9-1.53,8.11C400.59,209.01,398.46,208.95,396.99,208.65z"/>
								<path style="fill:#F18576;" d="M411.67,202.57c-2.84-0.53-5.68-1.06-8.52-1.59c-0.34-0.06-0.71-0.13-1.03,0.01
									c-0.42,0.18-0.62,0.65-0.76,1.09c-0.6,1.86-0.3,5.79-0.3,5.79s4.66,0.54,6.98,0.81c0.5,0.06,1.04,0.11,1.48-0.12
									c0.45-0.23,0.71-0.71,0.93-1.16C411.26,205.78,411.88,204.07,411.67,202.57z"/>
							</g>
						</g>
						<g>
							<path style="fill:#448AAB;" d="M336.38,179.68c-1.33-1.26-3.58-1.05-5.07,0.02c-1.49,1.07-2.35,2.79-3.04,4.49
								c-1.59,3.93-2.49,8.18-2.29,12.41c0.2,4.24,1.61,9.05,2.97,11.06c0.78,1.15,6.98,1.67,8.74,1.14
								C333.65,199.95,332.97,189.61,336.38,179.68z"/>
							<g>
								<path style="fill:#326E94;" d="M378.71,176.93c-0.41,3.23-1.14,6.43-2.19,9.53c-1.13,3.33-2.6,6.55-4.41,9.57
									c-5.43,8.11-14.77,13.48-24.49,14.02c-3.36,0.3-6.58,0.36-9.67-0.42c-3.09-0.79-6.06-2.55-7.61-5.33
									c-0.48-0.86-0.84-1.93-1.11-3.09c-0.57-2.45-0.71-5.27-0.54-7.33c0.36-4.06,1.15-9,3.52-12.32
									c4.51-6.35,9.78-1.05,11.07-1.8c3.28-1.91,13.62-12.69,22.58-15.47c4.08-1.27,8.22,0.12,10.71,2.64
									C379.06,169.45,379.15,173.43,378.71,176.93z"/>
								<path style="fill:#2B618A;" d="M376.51,186.46c-1.13,3.33-2.6,6.55-4.41,9.57c-5.43,8.11-14.77,13.48-24.49,14.02
									c-3.36,0.3-6.58,0.36-9.67-0.42c-3.09-0.79-6.06-2.55-7.61-5.33c-0.48-0.86-0.84-1.93-1.11-3.09
									c1.29,1.68,3.14,2.97,5.13,3.75c2.74,1.08,5.74,1.28,8.68,1.16c0.01,0,0.01,0,0.02,0c1.62-0.06,3.01-1.17,3.49-2.71
									c0.23-0.74,0.38-1.52,0.46-2.29c0.18-1.79,0.05-3.59,0.05-5.39c0.01-5.5,1.28-11,3.7-15.93c0.4,9.5,1.44,17.18,3.14,24.38
									c3.41-1.08,6.67-2.6,9.67-4.53C368.82,196.31,373.27,191.75,376.51,186.46z"/>
							</g>
							<g>
								<path style="fill:#448AAB;" d="M362.84,165.97c-0.7,4.8,0.64,9.87,3.61,13.7c0.84,1.09,1.93,2.14,3.29,2.3
									c1.5,0.18,2.91-0.75,4-1.8c2.67-2.56,4.41-6.07,4.83-9.74C373.74,168,368.47,166.47,362.84,165.97z"/>
								<path style="fill:#F18576;" d="M377.38,171.43c-0.41,1.48-1.17,3.11-2.11,4.54c-0.95,1.48-2.09,2.75-3.18,3.4
									c-1.66,1-3.18,0.98-4.4-0.56c-2.13-2.71-3.41-6.25-3.57-9.86c-0.03-0.64-0.03-1.29,0.01-1.93
									C368.24,168.88,373.22,170.46,377.38,171.43z"/>
								<path style="fill:#C75554;" d="M377.38,171.43c-0.41,1.48-1.17,3.11-2.11,4.54c-4.46-0.69-8.63-3.29-11.15-7.02
									c-0.03-0.64-0.03-1.29,0.01-1.93C368.24,168.88,373.22,170.46,377.38,171.43z"/>
							</g>
						</g>
						<g>
							<path style="fill:#F18576;" d="M381.9,157.16c0.49-1.12,1.3-2.14,2.4-2.68c1.1-0.54,2.5-0.54,3.49,0.17
								c1.11,0.79,1.53,2.34,1.18,3.65s-1.38,2.38-2.59,3c-1.21,0.62-2.59,0.84-3.95,0.93c-0.02,0-0.04,0-0.05,0"/>
							<g>
								<path style="fill:#FDAD91;" d="M358.35,160.66c-2.17-8.71,2.09-17.28,9.53-19.13s15.77,1.19,16.75,14.99
									c0.69,9.77-3.25,16.37-8.44,17.43C368.8,175.46,360.53,169.38,358.35,160.66z"/>
								<path style="fill:#F18576;" d="M360.71,159.27c2.26-2.21,3.84-5.09,4.47-8.11c1.49,1.02,3.21,1.71,4.99,2
									c0.73,0.12,1.48,0.18,2.19,0.02c0.71-0.16,1.41-0.56,1.79-1.19c0.39-0.63,0.41-1.49-0.33-2.19
									c2.58,0.55,5.15,1.11,8.02,1.65c1.05,0.51,1.93,1.37,2.45,2.41c0.17-2.02,0.25-4.33-1.18-5.78
									c-0.69-0.7-1.63-1.08-2.55-1.43c-4.47-1.69-9.27-3.04-13.98-2.26c-2.35,0.39-4.74,1.43-6.01,3.44
									c-0.91,1.44-1.14,3.21-1.14,4.91C359.45,154.45,359.66,156.15,360.71,159.27z"/>
							</g>
							<g>
								<path style="fill:none;stroke:#AD4044;stroke-linecap:round;stroke-miterlimit:10;" d="M377.95,162.55
									c0.41,1.33,0.53,2.1,0.35,3.48"/>
								<path style="fill:#AD4044;" d="M377.79,167.99c-2.1-0.12-4.18-0.56-6.12-1.31c-0.66,1.03-0.55,2.42,0.26,3.35
									c0.81,0.93,2.27,1.34,3.51,0.99C376.68,170.67,377.63,169.57,377.79,167.99z"/>
								<ellipse style="fill:#3C4659;" cx="371.13" cy="163.17" rx="0.55" ry="0.93"/>
								<ellipse style="fill:#3C4659;" cx="381.35" cy="161.31" rx="0.55" ry="0.93"/>
								<path style="fill:none;stroke:#0C1A3B;stroke-linecap:round;stroke-miterlimit:10;" d="M371.68,156.74
									c-1.85-0.44-3.92,0.32-5.05,1.85"/>
								<path style="fill:none;stroke:#0C1A3B;stroke-linecap:round;stroke-miterlimit:10;" d="M379.06,155.75
									c1.35-0.87,3.25-0.79,4.52,0.2"/>
							</g>
							<g>
								<path style="fill:#0C1A3B;" d="M392.6,143.87c-0.16,1.21-1.26,2.06-2.32,2.64c-0.01,0-0.01,0.01-0.02,0.01
									c-1.41,0.77-2.95,1.34-4.64,1.61c-0.03,2.51-0.42,5.22-1.01,7.65c-0.51-1.63-1.18-3.95-2.08-5.31
									c-3.12-0.55-7.48-1.25-10.49-2.37c0.3,0.54,0.61,1.08,0.71,1.67c0.1,0.58-0.02,1.25-0.46,1.66
									c-0.59,0.54-1.51,0.44-2.29,0.28c-2.08-0.44-4.09-1.19-5.97-2.21c-1.01,5.65-2.02,8.37-4.84,14.62
									c-3.56-5.52-4.51-12.66-2.32-19.43c1.19-3.1,3.01-5.95,5.31-8.35c1.62-1.71,3.48-3.19,5.51-4.39
									c1.42-0.84,3.36-1.49,4.61-0.42c1.16,1,0.95,2.83,0.75,4.74c3.17-1.86,6.63-3.4,10.3-3.54c1.02-0.03,2.14,0.07,2.91,0.75
									c1.06,0.93,1.08,2.64,0.42,3.89s-1.82,2.13-2.81,2.89c2.37-0.32,4.95-0.6,7,0.63C391.91,141.52,392.76,142.66,392.6,143.87z
									"/>
								<path style="fill:#23426E;" d="M392.6,143.87c-0.16,1.21-1.26,2.06-2.32,2.64c0.17-0.23,0.33-0.47,0.47-0.73
									c0.46-0.88,0.55-2.03-0.02-2.84c-0.49-0.7-1.34-1.03-2.17-1.25c-2.58-0.7-5.33-0.74-7.93-0.1c1.66-1.45,3.02-2.68,4.12-4.12
									c0.38-0.5,0.75-1.11,0.62-1.73c-0.12-0.59-0.67-1.01-1.26-1.14c-0.58-0.14-1.19-0.05-1.78,0.05c-3.84,0.69-7.57,2-11,3.88
									c0.28-1.29,0.61-2.24,0.58-3.22c-0.03-0.97-0.52-2-1.41-2.38c-0.91-0.39-1.94-0.04-2.85,0.35
									c-1.93,0.82-3.77,1.85-5.49,3.07c1.62-1.71,3.48-3.19,5.51-4.39c1.42-0.84,3.36-1.49,4.61-0.42c1.16,1,0.95,2.83,0.75,4.74
									c3.17-1.86,6.63-3.4,10.3-3.54c1.02-0.03,2.14,0.07,2.91,0.75c1.06,0.93,1.08,2.64,0.42,3.89
									c-0.66,1.25-1.82,2.13-2.81,2.89c2.37-0.32,4.95-0.6,7,0.63C391.91,141.52,392.76,142.66,392.6,143.87z"/>
							</g>
							<path style="fill:#FDAD91;" d="M361.91,160.55c-1.17-0.65-4.38-1.21-5.72-1.22c-1.33-0.01-2.75,0.68-3.24,1.93
								c-0.47,1.2,0.06,2.65,1.05,3.48s2.35,1.11,3.64,1.04c1.29-0.07,2.54-0.47,3.87-0.73"/>
						</g>
					</g>
					<g>
						<g>
							<g>
								<path style="fill:#1F3A59;" d="M369.61,213.25v2.12c0,0.25,0.19,0.46,0.45,0.48l34.42,2.54c0.58,0.04,1.16,0,1.73-0.11
									l32.44-6.35c0.6-0.12,1.07-0.57,1.21-1.17l0.56-2.4L369.61,213.25z"/>
								<polygon style="fill:#E1F4F7;" points="405.58,215.56 369.61,213.26 418.41,205.47 432.04,208.52 								"/>
							</g>
							<g>
								<polygon style="fill:#0C1A3B;" points="413.08,207.93 388.91,212.51 408.78,213.81 								"/>
								<g>
									
										<line style="fill:none;stroke:#E1F4F7;stroke-width:0.5;stroke-miterlimit:10;" x1="391.96" y1="213.02" x2="409.69" y2="209.53"/>
									
										<line style="fill:none;stroke:#E1F4F7;stroke-width:0.5;stroke-miterlimit:10;" x1="389.33" y1="211.56" x2="407.35" y2="212.95"/>
									
										<line style="fill:none;stroke:#E1F4F7;stroke-width:0.5;stroke-miterlimit:10;" x1="400.68" y1="211.32" x2="418.7" y2="212.71"/>
									
										<line style="fill:none;stroke:#E1F4F7;stroke-width:0.5;stroke-miterlimit:10;" x1="400.68" y1="210.08" x2="423.03" y2="211.97"/>
									
										<line style="fill:none;stroke:#E1F4F7;stroke-width:0.5;stroke-miterlimit:10;" x1="394.22" y1="213.76" x2="411.96" y2="210.27"/>
									
										<line style="fill:none;stroke:#E1F4F7;stroke-width:0.5;stroke-miterlimit:10;" x1="398.34" y1="214" x2="416.08" y2="210.51"/>
								</g>
							</g>
						</g>
						<g>
							<path style="fill:#1F3A59;" d="M407.09,216.34l-1.89-0.44c-0.42-0.1-0.68-0.53-0.56-0.94l9.37-34.47
								c0.17-0.61,0.72-1.04,1.35-1.05l31.79-0.59c0.31-0.01,0.62,0.06,0.9,0.21l1.49,0.76L407.09,216.34z"/>
							<path style="fill:#0C1A3B;" d="M417.64,180.57l31.4-0.9c0.57-0.02,1,0.52,0.85,1.08l-7.25,27.4
								c-0.26,0.97-1.05,1.71-2.03,1.89l-33.38,6.3c-0.38,0.07-0.71-0.28-0.61-0.66l8.94-33.45
								C415.8,181.27,416.65,180.6,417.64,180.57z"/>
							<path style="fill:#1F3A59;" d="M429.404,193.588c2.743-0.266,5.098,0.873,5.26,2.544c0.162,1.671-1.93,3.242-4.673,3.508
								c-2.743,0.266-5.098-0.873-5.26-2.544C424.569,195.425,426.661,193.854,429.404,193.588z"/>
						</g>
					</g>
					<g>
						<g>
							<path style="fill:#448AAB;" d="M358.82,214.57c-2.67-0.09-5.39-0.69-6.96-2.85c-1.58-2.16-2.16-4.88-2.58-7.52
								c-0.81-5.03-1.17-10.14-1.09-15.24c0.07-4.33,0.5-8.79,2.56-12.6s7.32-7.06,10.9-3.19c3.65,3.95,3.06,18.02,2.77,26.33
								c1.54,0.66,3.27,0.7,4.95,0.7s3.4-0.02,4.98,0.54c1.58,0.56,2.8,1.85,3,3.59c0.32,2.9-0.96,6.66-3.15,8.59
								C372.11,214.74,364.53,214.77,358.82,214.57z"/>
							<g>
								<path style="fill:#326E94;" d="M364.3,199.39c-2.36,0.96-4.31,2.9-5.27,5.26c0.19-1.34,0.83-2.61,1.79-3.56
									C361.78,200.14,363.07,199.51,364.3,199.39z"/>
								<path style="fill:#326E94;" d="M356.89,202.98c1.52-2.41,4.46-3.84,7.29-3.56C364.19,199.43,360.35,200.07,356.89,202.98z"
									/>
							</g>
						</g>
						<g>
							<g>
								<path style="fill:#FDAD91;" d="M385.51,210.26c-0.4-1.6-0.85-4.52-0.55-6.39c-3.39-0.41-6.78-0.83-10.04-1.19
									c-1.62,0.91-2.72,2.66-2.83,4.5c-0.11,1.84,0.77,3.7,2.34,4.74C378.84,211.54,381.29,211.46,385.51,210.26z"/>
								<path style="fill:#FDAD91;" d="M383.52,204.38c2.37-1.79,3.51-2.93,5.43-4.17c1.92-1.23,4.33-2.12,6.41-1.2
									c0.91,0.4,1.72,1.06,2.33,1.86c1.6,2.11,2.11,2.96,2.98,5.32c0.22,0.59,0.36,1.39-0.14,1.76c-0.31,0.23-0.76,0.18-1.09-0.03
									c-0.33-0.21-0.56-0.54-0.79-0.87c-0.89-1.29-0.92-1.49-1.62-2.7c0.55,1.67,0.79,3.45,0.7,5.21
									c-0.03,0.5-0.09,1.02-0.37,1.42c-0.29,0.4-0.86,0.62-1.33,0.44c-0.15,0.4-0.52,0.7-0.93,0.77
									c-0.41,0.06-0.85-0.12-1.23-0.51c-0.2,0.28-0.41,0.56-0.71,0.73c-0.3,0.17-0.7,0.17-0.93-0.08
									c-0.3-0.33-0.24-0.82-0.51-1.73c-0.19-0.64-0.49-1.03-1.03-1.66c-1.64,1.64-3.94,2.34-5.72,1.27
									C384.29,207.99,384.01,206.44,383.52,204.38z"/>
							</g>
							<path style="fill:#65B2C9;" d="M377.9,202.9c0.09,0.02-1.68,1.57-1.55,4.36c0.11,2.31,0.97,3.51,2.34,4.66
								c-1.91,0.64-3.75,0.64-5.39,0.7c-0.73,0.03-2.74-1.6-2.74-5.32c0-3.69,1.77-5.59,2.69-5.54
								C374.49,201.82,375.17,202.23,377.9,202.9z"/>
						</g>
					</g>
				</g>
			</g>
			<g>
				<rect x="399.22" y="98.9" style="fill:#5297C4;" width="70.75" height="59.5"/>
				<g>
					<g>
						<defs>
							<rect id="SVGID_00000114752029174646508360000010489766355007394963_" x="399.22" y="98.9" width="70.75" height="59.5"/>
						</defs>
						<clipPath id="SVGID_00000132066475923308863880000015395548581512292246_">
							<use xlink:href="#SVGID_00000114752029174646508360000010489766355007394963_"  style="overflow:visible;"/>
						</clipPath>
						<g style="clip-path:url(#SVGID_00000132066475923308863880000015395548581512292246_);">
							<g>
								<path style="fill:#F18576;" d="M450.97,137.48c-1.61,2.07-4.91,5.37-7.36,6.31c-2.45,0.94-5.33,0.95-7.61-0.35
									c-1.59-0.91-3.06-3.36-3.63-5.63c-0.25-0.98-0.34-1.93-0.2-2.71c0.28,0.02,0.54,0.04,0.8,0.04c0.3,0.01,0.58,0.01,0.85-0.01
									c0.85-0.03,1.55-0.16,1.99-0.38c0.2-0.1,0.34-0.22,0.41-0.35c0.57-1.03,1.24-3.95,1.27-5.72c2.92-0.94,5.57-1.53,8.22-2.11
									c-0.3,1.93-0.52,3.85-0.6,5.39c-0.07,1.21-0.05,2.19,0.08,2.77c0.22,0.95,1.49,1.33,3.24,1.88
									C449.2,136.85,450.06,137.12,450.97,137.48z"/>
							</g>
							<g>
								<g>
									<path style="fill:#0C1A3B;" d="M427.93,121.65c0.17,1.62-0.24,3.24-0.68,4.81s-0.93,3.16-0.91,4.79s0.62,3.35,1.95,4.29
										c0.13,0.1,0.29,0.19,0.45,0.19c0.44,0,0.62-0.55,0.73-0.97c0.43-1.64,1.72-3.03,3.34-3.57c1.11-0.37,2.54-0.51,3-1.59
										c0.29-0.68,0.04-1.46-0.22-2.15c-0.57-1.56-1.15-3.14-2.13-4.49C432.48,121.62,431.04,120.52,427.93,121.65z"/>
									<path style="fill:#F18576;" d="M431.2,120.6c-0.82-0.64-1.66-1.29-2.65-1.59c-0.99-0.3-2.18-0.2-2.91,0.54
										c-0.73,0.74-0.82,1.96-0.37,2.89c0.45,0.93,1.36,1.58,2.34,1.93c0.98,0.34,2.04,0.41,3.07,0.41"/>
									<g>
										<path style="fill:#FDAD91;" d="M451.83,119.98c0.84-8.11-3.73-15.46-10.2-16.12c-6.47-0.66-11.78,5.38-12.61,13.49
											c-0.84,8.11,2.38,15.38,8.69,15.02C444.2,132.01,450.99,128.1,451.83,119.98z"/>
										<path style="fill:#F18576;" d="M447.31,128.73c0.94-1.84,0.65-4.1-0.19-5.98c-0.85-1.88-2.19-3.49-3.41-5.16
											c-1.22-1.66-2.37-3.47-2.62-5.45c-3.01,1.9-6.63,2.85-10.17,2.67c-1.28,1.57-2.13,3.48-2.43,5.48
											c-0.4-2.45-0.76-5.13,0.51-7.26c1.13-1.89,3.29-2.89,5.29-3.83c1.56-0.74,3.11-1.52,4.77-2c1.66-0.48,3.46-0.65,5.11-0.15
											c2.12,0.64,3.78,2.31,5.06,4.12c1.53,2.17,2.67,4.67,2.89,7.31c0.22,2.64-0.54,5.42-2.38,7.34"/>
									</g>
									<g>
										<ellipse style="fill:#1A202B;" cx="440.85" cy="121.23" rx="0.71" ry="0.94"/>
										<ellipse style="fill:#1A202B;" cx="432.44" cy="120.64" rx="0.71" ry="0.94"/>
										<path style="fill:none;stroke:#0C1B3C;stroke-linecap:round;stroke-miterlimit:10;" d="M443.98,118.34
											c-0.95-1.06-2.5-1.54-3.88-1.19"/>
										<path style="fill:none;stroke:#0C1B3C;stroke-linecap:round;stroke-miterlimit:10;" d="M434.36,117.04
											c-1.12-0.75-2.69-0.78-3.84-0.06"/>
										<path style="fill:none;stroke:#C2383A;stroke-width:0.5;stroke-linecap:round;stroke-miterlimit:10;" d="M434.93,121.81
											c-0.39,1.41-0.35,2.43-0.23,2.96"/>
										<path style="fill:#C2383A;" d="M435.16,126.36c1.67-0.1,3.33-0.5,4.78-1.05c0.53,0.85,0.42,2.03-0.25,2.8
											c-0.67,0.77-1.86,1.07-2.83,0.72C435.88,128.48,435.2,127.51,435.16,126.36z"/>
									</g>
									<g>
										<path style="fill:#0C1A3B;" d="M442.04,105.54c0.19,3.86,1.19,7.66,2.88,11.02c0.8,1.58,2.99,6.52,1.73,12.15
											c-0.83,3.71-2.07,6.06-2.96,7.06c-1.13,1.28,1.8,2.11,6.8-2.87c2.33-2.32,5.17-2.12,5.7-3.92c1.35-4.54-2.22-7-2.22-13.01
											c0-6.12-0.44-11.18-4.23-12.62C447.45,102.48,443.83,103.18,442.04,105.54z"/>
										<g>
											<path style="fill:#0C1A3B;" d="M445.56,107.51c-3.96,3.61-9.74,6.47-15.26,6.32c-1.35,3.55-1.53,5.35-1.53,7.72
												c-1.16-1.3-2.2-2.76-2.81-4.28c-0.06-0.17-0.13-0.34-0.19-0.51c-0.51-1.42-0.79-3.08-0.57-4.53
												c0.24-1.67,1.2-4.22,2.33-5.47c3.35-3.72,7.56-5.24,12.57-4.97c0.78,0.05,1.85,0.28,2.83,0.66
												c0.84,0.31,1.62,0.72,2.11,1.17C446.12,104.59,446.51,106.41,445.56,107.51z"/>
											<path style="fill:#23426E;" d="M442.93,102.44c-4.71,0.01-9.41,1.68-12.74,4.97c-2.5,2.47-4.08,5.87-4.42,9.34
												c-0.51-1.42-0.79-3.08-0.57-4.53c0.24-1.67,1.2-4.22,2.33-5.47c3.35-3.72,7.56-5.24,12.57-4.97
												C440.88,101.82,441.95,102.06,442.93,102.44z"/>
										</g>
									</g>
								</g>
								<g>
									<path style="fill:#ED8424;" d="M403.68,148.89c2.08-1.16,4.28-2.09,6.56-2.77c1.13-0.34,2.21-0.52,3.43-0.18
										c-1.27,2.1-3.3,3.53-5.7,4C406.46,150.22,404.74,150.05,403.68,148.89z"/>
									<g>
										<path style="fill:#FDAD91;" d="M418.42,136.29c-1.96,2.29-3.92,4.58-5.86,6.81c-0.09,1.06-0.18,2.11-0.27,3.17
											c-0.11,1.18-0.21,2.37-0.31,3.55c-2.03,1.12-4.6,1.54-7.18,1.52c0.38-1.32,0.89-2.76,1.27-4.2
											c0.29-1.1,0.5-2.21,0.52-3.28c-1.18-1.18-2.23-4.43-2.47-6.83c-1.03-1.95-1.83-4.08-2.28-6.29
											c-0.05-0.27-0.08-0.62,0.15-0.75c0.21-0.13,0.46,0.04,0.65,0.22c1.47,1.39,2.63,3.16,3.36,5.13
											c-0.51-2.25-1.01-4.43-1.37-6.62c-0.04-0.24-0.07-0.49-0.03-0.72c0.04-0.24,0.19-0.47,0.4-0.53
											c0.41-0.13,0.73,0.37,0.91,0.79c0.84,1.95,1.68,3.9,2.51,5.85c-0.25-2.35-0.55-4.67-0.85-6.98c-0.04-0.3-0.07-0.61,0-0.89
											c0.07-0.29,0.28-0.56,0.55-0.6c0.43-0.05,0.72,0.46,0.89,0.89c0.92,2.27,1.75,4.59,2.48,6.95c0.39-2.63,0.54-4,0.99-6.6
											c0.07-0.42,0.15-0.86,0.41-1.18c0.25-0.32,0.74-0.47,1.04-0.2c0.27,0.24,0.27,0.68,0.26,1.06
											c-0.15,3.9-0.09,6.55-0.24,10.45c1.11-0.78,2.22-1.57,3.43-2.14c0.25-0.12,0.52-0.23,0.79-0.23
											c0.28,0,0.57,0.15,0.68,0.42C419.02,135.49,418.71,135.95,418.42,136.29z"/>
										<path style="fill:#F18576;" d="M412.29,146.27c-0.11,1.18-0.21,2.37-0.31,3.55c-2.03,1.12-4.6,1.54-7.18,1.52
											c0.38-1.32,0.89-2.76,1.27-4.2c0.54,0.17,1.14,0.23,1.7,0.21C409.33,147.32,410.89,146.94,412.29,146.27z"/>
									</g>
									<path style="fill:#FEAC40;" d="M413.77,160.37c-0.77-4.8-0.94-9.69-0.1-14.44c-3.77,2-6.09,3.41-10.03,3
										c-1.18,4.56-1.79,9.26-1.84,13.97L413.77,160.37z"/>
								</g>
								<g>
									<path style="fill:#FEAC40;" d="M463.37,159.54l-51.43,1.96c2.44-3.57,3.66-7.8,5.15-11.85c1.5-4.06,3.43-8.16,6.82-10.83
										c2.34-1.85,5.17-2.86,8.06-3.63c0.65-0.18,1.3-0.34,1.95-0.5c-0.17,2.77,0.9,5.29,2.75,7.03c0.57,0.54,1.25,1.02,2.02,1.14
										c0.89,0.14,1.77-0.19,2.58-0.57c2.9-1.36,5.5-3.35,7.4-5.94c0.61,0.14,1.21,0.31,1.81,0.51c1.65,0.53,3.29,1.26,5.04,2.24
										C460.88,144.38,463.81,152.03,463.37,159.54z"/>
									<path style="fill:#ED8424;" d="M451.91,161.02c-0.73-6.59-0.47-13.29,0.97-19.84c-2.56,4.85-3.68,10.44-3.19,15.9
										c-2.37-2.15-4.15-4.95-5.1-8.01c-0.33,2.24,0.61,4.47,1.68,6.46C447.34,157.52,448.58,159.52,451.91,161.02z"/>
									<path style="fill:#ED8424;" d="M423.97,162c-0.9-6.98-0.69-14.1,0.62-21.02c-2.02,5.19-2.86,10.84-2.58,16.3
										c-1.43-1.59-2.54-3.45-3.27-5.46c0.8,2.26,1.6,4.82,0.53,6.97c-0.88,1.78-2.8,2.76-4.59,3.62
										C417.45,163.17,420.37,163.39,423.97,162z"/>
									<path style="fill:#FFD991;" d="M450.48,136.86c-2.02,2.59-4.57,4.79-7.44,6.4c-1.11,0.62-2.83,0.92-4.11,0.87
										c-1.55-0.06-2.95-1.01-4.01-2.14c-1.72-1.84-2.75-4.29-2.95-6.8c0.65-0.18,1.3-0.34,1.95-0.5
										c-0.17,2.77,0.9,5.29,2.75,7.03c0.57,0.54,1.25,1.02,2.02,1.14c0.89,0.14,1.77-0.19,2.58-0.57c2.9-1.36,5.5-3.35,7.4-5.94
										C449.28,136.49,449.88,136.66,450.48,136.86z"/>
								</g>
							</g>
						</g>
					</g>
				</g>
			</g>
		</g>
	</g>
	<g>
		<path style="fill:#F3E8E2;" d="M66.24,331.86c-9.39,21.29-12.51,45.08-5.02,66.95s24.22,41.15,46.13,53.14
			c26.83,14.69,59.34,18.1,90.67,21.16c62.46,6.1,127.53,11.95,186.57-7.13c25.98-8.4,50.94-22.33,64.74-43.61
			c13.81-21.28,13.67-50.8-5.52-68.48c-18.05-16.63-46.58-18.98-70.57-27.91c-34.37-12.8-59.67-39.44-91.76-56.28
			c-36-18.89-80.5-24.56-121.03-15.42C119.92,263.42,82.48,295.04,66.24,331.86z"/>
		<g>
			<g>
				<defs>
					<path id="SVGID_00000093144382004533082230000002563311194485469081_" d="M66.24,332.053c-9.39,21.29-12.51,45.08-5.02,66.95
						c7.49,21.87,24.22,41.15,46.13,53.14c26.83,14.69,59.34,18.1,90.67,21.16c62.46,6.1,127.53,11.95,186.57-7.13
						c25.98-8.4,50.94-22.33,64.74-43.61c13.81-21.28,19.78-75.222,0.59-92.902c-18.05-16.63-52.69,5.442-76.68-3.488
						c-34.37-12.8-59.67-39.44-91.76-56.28c-36-18.89-80.5-24.56-121.03-15.42S82.48,295.233,66.24,332.053z"/>
				</defs>
				<clipPath id="SVGID_00000166635041940054800680000003932104289430148755_">
					<use xlink:href="#SVGID_00000093144382004533082230000002563311194485469081_"  style="overflow:visible;"/>
				</clipPath>
				<g style="clip-path:url(#SVGID_00000166635041940054800680000003932104289430148755_);">
					<g>
						<g>
							<g>
								<polygon style="fill:#F79234;" points="406.7,447.363 405.53,459.203 404.83,466.153 403.15,483.093 350.13,483.323 
									347.97,465.813 347.13,458.993 345.7,447.363 								"/>
								<path style="fill:#FEAC40;" d="M405.53,459.203l-0.7,6.94c-19.5,4.68-36.5,3.85-56.86-0.34l-0.84-6.82
									C366.37,462.963,384.03,463.273,405.53,459.203z"/>
							</g>
							<ellipse style="fill:#FEAC40;" cx="376.2" cy="447.353" rx="30.5" ry="5.04"/>
							<ellipse style="fill:#4F0946;" cx="376.2" cy="447.353" rx="26.14" ry="3.66"/>
						</g>
						<g>
							<g>
								<defs>
									<path id="SVGID_00000156554999806862378050000010457798388290463158_" d="M350.06,447.493c0-1.23-61.23-34.33-32.68-88.54
										c11.74-22.29,46.15-45.94,51.83-46.13c53.94-1.76,100.83,10.06,96.49,42.37c-3.55,26.39,8.09,56.52-8.61,74.38
										c-5.57,5.95-54.73,17.65-54.73,17.92c0,2.02-11.7,3.66-26.14,3.66C361.76,451.153,350.06,449.513,350.06,447.493z"/>
								</defs>
								<clipPath id="SVGID_00000060025563880038310220000008329400028757884575_">
									<use xlink:href="#SVGID_00000156554999806862378050000010457798388290463158_"  style="overflow:visible;"/>
								</clipPath>
								<g style="clip-path:url(#SVGID_00000060025563880038310220000008329400028757884575_);">
									<g>
										<g>
											<path style="fill:#2D6A7A;" d="M446.59,420.723c-10.81,3.32-21.16,8.1-30.73,14.13c0,0-0.01-0.01-0.01,0
												c-7.21,4.55-13.98,9.81-20.15,15.69c-4.16,3.97-8.3,8.37-13.79,10.04c-7.7,2.34-15.88-1.27-23.78-6.74
												c3.6-30.27-7.37-61.95-28.92-83.51c18.71,11.23,32.85,29.85,38.64,50.89c1.96-18.32,2.4-36.8,1.33-55.19
												c-0.77-13.48-2.36-26.9-4.76-40.19c8.64,15.68,14.16,33.05,16.35,50.83c1.54,12.53,1.42,25.27-0.44,37.76
												c3.14-16.56,10.06-32.03,19.77-45.34c0.01-0.01,0.02-0.03,0.03-0.04c11.82-16.21,27.79-29.22,46.12-37.11
												c-18.24,14.2-31.9,33.68-41.65,54.64c-1.56,3.35-3.02,6.76-4.41,10.18c0,0.01,0,0.01-0.01,0.02
												c-7.26,17.98-12.29,36.88-17.22,55.85c6.59-9.92,15.79-17.97,26.32-23.52c0.01,0,0.01-0.01,0.02-0.01
												C420.72,423.083,433.7,420.013,446.59,420.723z"/>
											<g>
												<path style="fill:#408A94;" d="M380.77,376.673c-2.38-10.22-5.97-20.16-10.67-29.53c-0.63,6.45-0.81,12.69-0.92,18.89
													c-0.77-13.48-2.36-26.9-4.76-40.19C373.06,341.523,378.58,358.893,380.77,376.673z"/>
												<path style="fill:#408A94;" d="M446.25,331.943c-18.24,14.2-31.9,33.68-41.65,54.64c-1.56,3.35-3.02,6.76-4.41,10.18
													c3.88-18.83,13.2-36.53,26.65-50.28c-10.23,6.21-19.19,13.83-26.71,22.57C411.95,352.843,427.92,339.833,446.25,331.943
													z"/>
												<path style="fill:#408A94;" d="M415.86,434.853c4.06-3.76,8.62-6.97,13.53-9.5c-6.83,0.28-13.62,1.55-20.09,3.75
													c11.42-6.02,24.4-9.09,37.29-8.38C435.78,424.043,425.43,428.823,415.86,434.853z"/>
											</g>
										</g>
										<g>
											<path style="fill:none;stroke:#265469;stroke-linecap:round;stroke-miterlimit:10;" d="M416.4,355.723
												c-21.81,27.96-35.41,62.24-38.72,97.55"/>
											<path style="fill:none;stroke:#265469;stroke-linecap:round;stroke-miterlimit:10;" d="M372.17,353.053
												c4.77,33.42,6.44,67.27,4.98,101"/>
											<path style="fill:none;stroke:#265469;stroke-linecap:round;stroke-miterlimit:10;" d="M427.3,425.653
												c-18.35,7.62-35.36,18.46-50.01,31.89"/>
											<path style="fill:none;stroke:#265469;stroke-linecap:round;stroke-miterlimit:10;" d="M345.28,385.763
												c13.19,21.19,22.09,45.03,26.02,69.68"/>
										</g>
									</g>
									<g>
										<g>
											<path style="fill:#3B8A94;" d="M445.09,396.073c-12.98,5.87-24.86,14.06-34.92,24.07
												c-12.41,12.32-22.04,27.4-27.54,44.28c-8.1,0.55-16.3-0.26-26.36-4.48c0.49-20.8-13.48-41.16-33.07-48.19
												c16.4-2.07,35.57,14.41,42.19,30.7c0.75-17.1-1.16-35.61-5.89-52.78c-3.03-11.04-7.23-21.52-12.63-30.72
												c15.85,13.55,26.41,32.96,29.8,53.97v0.01c1.25,7.77,1.52,15.75,0.72,23.74c6.3-9.28,14.35-17.33,23.66-23.79
												C413.77,404.023,428.86,398.133,445.09,396.073z"/>
											<path style="fill:#51B0B0;" d="M358.06,375.153c1.01,4.63,1.53,9.56,1.44,14.52c-3.03-11.04-7.23-21.52-12.63-30.72
												c15.85,13.55,26.41,32.96,29.8,53.97C371.89,399.693,365.65,387.003,358.06,375.153z"/>
											<path style="fill:#51B0B0;" d="M424.84,404.733c-8.34,1.72-16.33,4.46-23.79,8.15c12.72-8.86,27.81-14.75,44.04-16.81
												c-12.98,5.87-24.86,14.06-34.92,24.07C413.71,413.913,418.78,408.563,424.84,404.733z"/>
										</g>
										<g>
											<path style="fill:none;stroke:#2D6A7A;stroke-linecap:round;stroke-miterlimit:10;" d="M414.24,410.053
												c-18.8,13.44-33.92,31.96-43.35,53.06"/>
											<path style="fill:none;stroke:#2D6A7A;stroke-linecap:round;stroke-miterlimit:10;" d="M363.69,390.013
												c9.3,26.06,10.02,50.85,7.69,72.47"/>
											<path style="fill:none;stroke:#2D6A7A;stroke-linecap:round;stroke-miterlimit:10;" d="M341.94,419.243
												c15.74,15.74,22.88,28.87,26.23,43.08"/>
										</g>
									</g>
								</g>
							</g>
						</g>
					</g>
					<g>
						<rect x="80.25" y="236.193" style="fill:#BA2F4A;" width="101" height="203.13"/>
						<g>
							<rect x="84.25" y="240.083" style="fill:#FFF2EB;" width="93" height="195.35"/>
							<g>
								<polygon style="fill:#FFFFFF;" points="145.41,240.083 84.25,289.883 84.25,274.853 130.46,240.083 								"/>
								<polygon style="fill:#FFFFFF;" points="167.42,240.083 84.25,305.703 84.25,301.283 162.94,240.083 								"/>
								<polygon style="fill:#FFFFFF;" points="177.25,298.993 177.25,305.213 84.25,372.803 84.25,365.633 								"/>
								<polygon style="fill:#FFFFFF;" points="177.25,385.973 177.25,435.433 108.25,435.433 								"/>
								<polygon style="fill:#FFFFFF;" points="177.25,373.933 177.25,377.933 97.83,435.433 91.5,435.433 								"/>
							</g>
						</g>
						<g>
							<rect x="129" y="238.503" style="fill:#BA2F4A;" width="3.5" height="198.5"/>
							<rect x="80.254" y="291.004" style="fill:#BA2F4A;" width="99" height="3.5"/>
							<rect x="80.253" y="387.983" style="fill:#BA2F4A;" width="99" height="3.5"/>
						</g>
					</g>
					<g>
						<g>
							<g>
								<g>
									<rect x="189.17" y="456.433" style="fill:#192C52;" width="16.39" height="61.82"/>
									<path style="fill:#0C1A3B;" d="M205.56,456.433v26.43c-0.46-0.03-0.92-0.09-1.38-0.15c-5.3-0.72-10.42-2.55-15.01-5.29
										v-20.99H205.56z"/>
								</g>
								<g>
									<polygon style="fill:#1F3A59;" points="149.79,383.283 147.09,385.023 159.67,455.293 194.87,472.733 256.32,468.093 
										256.32,463.993 207.34,437.743 									"/>
									<polygon style="fill:#CCCFD4;" points="162.9,453.193 195.4,468.093 256.32,463.823 214.68,435.863 210.67,381.223 
										149.79,383.213 									"/>
								</g>
							</g>
							<g>
								<path style="fill:#0C1B3C;" d="M173.33,330.303c1.08,8.64-0.65,17.62-4.88,25.24c-1.44,2.59-2.81,5.32-2.61,8.27
									c0.47,6.73,2.59,6.94,3.62,10.15c1.16,3.64-4.78,11.32-3.4,14.88c1.22,3.15,10.05-0.64,13.36,0.03
									c5.36,1.1,10.92,1.24,16.33,0.41c5.19-0.79,10.46-2.6,14.11-6.38s5.24-9.87,2.69-14.46c-1.31-2.35-3.57-4.18-4.39-6.74
									c-0.93-2.92,0.22-6.02,0.87-9.01c0.96-4.38,0.83-8.99-0.37-13.31c-0.58-2.11-1.52-4.28-3.36-5.48
									c-1.26-0.82-2.79-1.09-4.27-1.32C192.1,331.153,183.12,330.073,173.33,330.303z"/>
								<g>
									<path style="fill:#FDAD91;" d="M258.58,379.693c-8.77,12.9-18.48,25.16-29.01,36.67c-1.03,1.12-2.22,2.3-3.73,2.42
										c-1.43,0.1-2.73-0.82-3.85-1.72c-2.67-2.18-5.16-4.6-7.41-7.22c-3.12-3.62-5.79-7.6-7.95-11.87
										c4.56-3.88,9.13-7.76,13.18-10.17c1.63,3.23,3.25,6.46,4.86,9.69c0.45,0.89,0.9,1.8,1.35,2.69
										c8.32-9.73,16.63-19.46,25.35-28.87C253.35,373.993,255.52,376.513,258.58,379.693z"/>
									<path style="fill:#F18576;" d="M224.68,397.503c-3.08,4.33-6.47,8.46-10.1,12.35c-3.12-3.62-5.79-7.6-7.95-11.87
										c4.56-3.88,9.13-7.76,13.18-10.17C221.45,391.043,223.06,394.263,224.68,397.503z"/>
									<path style="fill:#F79234;" d="M203.81,376.353c0.73-1.88,1.46-3.76,2.18-5.64c0.31-0.79-0.97-0.7-0.2-1.03
										c1.24-0.53,2.48-0.39,2.92-0.2c7.21,3.12,12.28,17.28,15.84,24.93c-4.86,4.63-11.14,7.97-17.24,10.77
										C206.29,397.303,199.65,387.083,203.81,376.353z"/>
								</g>
								<g>
									<path style="fill:#FDAD91;" d="M201.85,368.233c-1.25,1.68-1.08,4.9-2.09,6.77c-1.89,3.5-4.83,8.93-6.92,9.23
										c-3.19,0.46-7.99-8.05-10.12-10.47c-2.14-2.41-3.28-6.04-4.52-9.02c1.84-1.78,4.08-4.77,4.52-7.23
										c0.03-0.1,0.04-0.21,0.06-0.31c0.36-2.24,0.26-4.52,0.09-6.79c-0.02-0.32-0.05-0.64-0.07-0.96
										c0.29,0.05,0.56,0.1,0.84,0.15c4.37,0.82,7.91,2.04,11.46,3.27c0.05,2.97-0.03,6.06,0.88,8.95
										c0.17,0.54,0.38,1.08,0.63,1.59C197.68,365.653,199.48,367.573,201.85,368.233z"/>
									<path style="fill:#F18576;" d="M196.6,363.423c-5.12-0.18-10.19-2.33-13.88-5.9c0.03-0.1,0.04-0.21,0.06-0.31
										c0.36-2.24,0.26-4.52,0.09-6.79c0.25-0.3,0.5-0.56,0.77-0.81c4.37,0.82,7.91,2.04,11.46,3.27
										c0.05,2.97-0.03,6.06,0.88,8.95C196.14,362.373,196.35,362.903,196.6,363.423z"/>
								</g>
								<g>
									<path style="fill:#F18576;" d="M207.324,342.424c2.781-0.279,5.199,1.125,5.401,3.136c0.202,2.011-1.888,3.868-4.669,4.148
										c-2.781,0.279-5.199-1.124-5.401-3.136C202.453,344.561,204.544,342.704,207.324,342.424z"/>
									<g>
										<g>
											<path style="fill:#FDAD91;" d="M175.64,339.903c0-11.03,7.18-19.97,16.03-19.97c8.85,0,16.03,8.94,16.03,19.97
												s-6.25,20.07-14.06,19.68C184.79,359.153,175.64,350.933,175.64,339.903z"/>
											<path style="fill:#F18576;" d="M207.31,339.643c0.2-1.48-1.14-2.78-2.58-3.21c-1.43-0.43-2.97-0.26-4.46-0.37
												c-1.49-0.12-3.11-0.66-3.82-1.98c-0.48-0.9-0.44-1.97-0.65-2.96c-0.6-2.79-3.52-4.87-6.36-4.52
												c-0.47,2.84-1.81,5.53-3.8,7.62c0.1-1.92-0.27-3.82-0.42-5.74c-0.15-1.92-0.06-3.93,0.86-5.61
												c0.83-1.51,2.28-2.62,3.89-3.22s3.37-0.72,5.08-0.56c2.63,0.26,5.31,1.29,6.91,3.39c2.06,2.72,1.92,6.64,3.99,9.35
												c0.53,0.69,1.18,1.28,1.63,2.03c0.45,0.74,0.65,1.73,0.2,2.47"/>
										</g>
										<g>
											<ellipse style="fill:#0C1B3C;" cx="189.25" cy="343.183" rx="1.12" ry="1.41"/>
											<ellipse style="fill:#0C1B3C;" cx="202.19" cy="343.183" rx="1.12" ry="1.41"/>
											<path style="fill:none;stroke:#0C1B3C;stroke-linecap:round;stroke-miterlimit:10;" d="M200.68,337.423
												c0.72-0.36,1.58-0.47,2.37-0.29c0.79,0.18,1.51,0.64,2.01,1.28"/>
											<path style="fill:none;stroke:#0C1B3C;stroke-linecap:round;stroke-miterlimit:10;" d="M185.75,338.723
												c0.54-0.85,1.39-1.5,2.36-1.79c0.97-0.28,2.04-0.2,2.95,0.23"/>
											<path style="fill:none;stroke:#4A1934;stroke-linecap:round;stroke-miterlimit:10;" d="M198.21,343.133
												c0.1,1.76-0.04,3.54-0.42,5.26"/>
											<path style="fill:#4A1934;" d="M198.01,350.313c-2.11-0.02-4.75-0.47-6.43-1.33c-0.28,0.9-0.45,1.85-0.33,2.78
												c0.12,0.93,0.56,1.85,1.32,2.4c1.07,0.77,2.64,0.66,3.67-0.15C197.29,353.193,197.76,352.113,198.01,350.313z"/>
										</g>
									</g>
									<g>
										<path style="fill:#0C1B3C;" d="M177.01,344.123c3.82-1.77,7.05-4.78,9.1-8.47c2.04-3.68,2.89-8.02,2.37-11.89
											c-2.04-1.28-4.16-2.52-6.52-3.04c-2.35-0.52-5.01-0.19-6.83,1.39c-1.75,1.52-2.45,3.91-2.82,6.2
											c-0.9,5.52-0.39,11.16,0.51,16.92C174.2,344.823,175.69,344.733,177.01,344.123z"/>
										<g>
											<path style="fill:#0C1B3C;" d="M210.15,338.313c-0.61,1.26-1.43,2.61-2.45,4.07c-2.13-1.57-0.46-3.45-1.74-5.28
												c-1.73-2.45-6.4-0.98-7.95-3.54c-1-1.65,0.08-3.78-0.11-5.7c-0.18-1.92-1.73-3.55-3.57-4.12s-3.89-0.18-5.56,0.79
												c-1.68,0.96-2.99,2.44-3.94,4.09c-2.27-1.53-4.31-3.42-6.61-5.66c0.63-3.33,2.8-6.23,5.67-8.06
												c1.25-0.79,2.64-1.39,4.08-1.73c4.74-1.12,11.88-0.49,15.66,2.59c3.77,3.08,3.22,7.13,5.76,11.29
												C211.87,331.113,212.07,334.343,210.15,338.313z"/>
											<path style="fill:#264266;" d="M210.15,338.313c0.31-3.54-0.83-7.24-3.26-9.85c-1.25-1.35-2.86-2.51-3.42-4.26
												c-0.31-0.97-0.26-2.02-0.44-3.04c-0.48-2.73-2.68-4.95-5.23-6.06c-2.54-1.11-5.41-1.27-8.19-1.14
												c-1.91,0.09-3.89,0.35-5.73,0.94c1.25-0.79,2.64-1.39,4.08-1.73c4.74-1.12,11.88-0.49,15.66,2.59
												c3.77,3.08,3.22,7.13,5.76,11.29C211.87,331.113,212.07,334.343,210.15,338.313z"/>
										</g>
									</g>
									<path style="fill:#FDAD91;" d="M170.675,345.331c0.403-1.981,2.95-3.134,5.688-2.577s4.631,2.615,4.228,4.596
										c-0.403,1.981-2.95,3.134-5.688,2.577C172.165,349.37,170.272,347.312,170.675,345.331z"/>
								</g>
								<g>
									<path style="fill:#325A84;" d="M204.53,426.813c13.65,4.23,27.31,8.45,40.96,12.68c3.31,1.02,6.8,2.17,9.03,4.8
										c2.99,3.54,2.85,8.67,2.49,13.28c-1.56,20.15-4.11,40.22-7.64,60.12c-3.85,0.19-7.71,0.37-11.56,0.56
										c-5.05-12.08-6.2-25.39-10.04-37.91c-3.84-12.52-11.51-25.12-23.99-29.24c-2.56-0.84-5.55-1.52-6.86-3.88
										C194.22,442.333,201.67,436.643,204.53,426.813z"/>
									<path style="fill:#346E93;" d="M206.76,409.873c-10.62-0.98-21.24-1.96-31.86-2.95c-3.25,8.63-6.3,16.56-6.84,24.88
										c-0.54,8.32,1.81,17.25,8.07,22.77c5.05,4.45,11.95,6.14,18.63,6.91c6.69,0.76,13.5,0.76,20.44,2.37
										c5.75,17.38,11.49,34.76,19.21,52.69c4.45-1.07,9-1.72,13.01-2.11c-3.05-17.75-6.09-35.51-9.14-53.26
										c-0.57-3.3-1.18-6.71-3.04-9.49c-5.43-8.07-17.93-6.83-25.76-12.59C212.65,430.123,212,419.863,206.76,409.873z"/>
								</g>
								<g>
									<path style="fill:#FEAC40;" d="M211.45,421.603c0.17,2.3,0.42,4.81,0.34,7.32c-12.94,2.67-26.41,2.78-39.4,0.32
										c-1.43-0.27-2.99-0.66-3.82-1.86c-0.85-1.24-0.62-2.9-0.34-4.39c1.01-5.55,2.02-11.1,3.04-16.66
										c-2.36-8.79-4.13-17.17-5.91-25.53c0-0.01,0-0.01,0-0.03c-0.62-2.99-1.24-6.27,0.15-8.99c1.31-2.57,4.1-4.02,6.81-5.03
										c2.71-0.99,3.34-1.12,6.38-2.66c2.94,6.25,11.93,17.32,16.15,16.53c4.74-0.89,4.61-9.81,5.12-13.54
										c4.94,0.75,10.61,2,12.84,6.47c1.01,2,1.1,4.3,1.13,6.55c0.22,12.07-0.61,24.17-2.48,36.1
										C211.22,417.773,211.3,419.623,211.45,421.603z"/>
									<path style="fill:#F79234;" d="M211.79,428.933c-12.94,2.67-26.41,2.78-39.4,0.32c-1.43-0.27-2.99-0.66-3.82-1.86
										c-0.85-1.24-0.62-2.9-0.34-4.39c1.01-5.55,2.02-11.1,3.04-16.66c-2.36-8.79-4.13-17.17-5.91-25.53
										c0.24-0.38,0.51-0.76,0.76-1.15l10.47-5.92c3.41,6.13,2.44,13.63,1.83,20.62c-0.61,6.98-0.45,14.85,4.44,19.88
										c3.64,3.72,9.05,4.98,14.16,5.99c4.71,0.93,9.68,1.78,14.42,1.39C211.62,423.913,211.87,426.423,211.79,428.933z"/>
								</g>
								<g>
									<g>
										<path style="fill:#FDAD91;" d="M174.99,388.843c-0.06,0.25-0.14,0.51-0.2,0.76c-1.41,5.31-2.79,11.08-4.39,16.05
											c-2.39,7.4-5.31,13-9.7,12.65c-9.08-0.73-14.62-25.65-17.22-40.88c2.45-1.73,3.01-2.75,6.89-4.01
											c4.69,12.8,6.16,16.94,9.3,23.35c0.19-0.73,0.33-1.35,0.43-1.91c0-0.01,0-0.01,0-0.01c0.75-3.97-0.19-4.75,1.08-11.66
											c1.78,0.55,3.54,1.16,5.3,1.83C169.3,386.093,172.11,387.353,174.99,388.843z"/>
										<path style="fill:#F18576;" d="M174.79,389.603c-1.41,5.31-2.79,11.08-4.39,16.05c-4.14-2.83-7.68-6.53-10.3-10.8
											c0-0.01,0-0.01,0-0.01c0.75-3.97-0.19-4.75,1.08-11.66c1.78,0.55,3.54,1.16,5.3,1.83c2.6,1.44,5.21,2.88,7.81,4.32
											C174.44,389.413,174.62,389.513,174.79,389.603z"/>
										<path style="fill:#FDAD91;" d="M150.14,376.993c2.16-4.18,4.31-8.36,6.47-12.53c0.4-0.77,0.74-1.85,0.05-2.38
											c-0.35-0.28-0.87-0.26-1.28-0.08c-0.41,0.18-0.74,0.51-1.05,0.83c-1.46,1.5-2.81,3.1-4,5.18
											c0.12-3.68,0.07-7.36-0.14-11.04c-0.06-1.05-0.16-2.16-0.77-3.01c-0.28-0.39-0.76-0.73-1.22-0.59
											c-0.56,0.18-0.69,0.91-0.71,1.5c-0.09,2.58-0.11,5.17,0.03,8.07c-0.94-2.87-1.88-5.74-2.82-8.61
											c-0.15-0.46-0.31-0.93-0.64-1.28s-0.88-0.54-1.3-0.32c-0.38,0.2-0.54,0.66-0.6,1.08c-0.13,0.91,0.07,1.84,0.26,2.74
											c0.5,2.32,1,4.64,1.31,6.6c-1.01-2.14-2.07-4.25-3.19-6.34c-0.17-0.33-0.36-0.66-0.66-0.88c-0.3-0.22-0.75-0.28-1.03-0.04
											c-0.37,0.31-0.26,0.89-0.12,1.35c0.83,2.78,1.66,5.56,2.59,8.28c-1.03-1.86-2.06-3.71-3.08-5.57
											c-0.35-0.64-1-1.38-1.66-1.07c-0.62,0.3-0.52,1.2-0.32,1.86c1.19,3.85,2.38,7.7,3.57,11.55c0.85,2.76,1.84,5.7,4.17,7.4"
											/>
									</g>
									<path style="fill:#FEAC40;" d="M175.23,368.533c0.19-0.91-0.73-1.76-1.66-1.85c-0.93-0.1-1.95,0.26-2.79,0.67
										c-3.36,1.65-4.99,2.8-6.62,6.05c-2.22,4.43-4.29,11.62-6.02,18.22c4.95,4.88,9.2,7.88,16.06,10.69
										c1.76-5.31,2.57-8.1,3.45-13.62C178.54,383.173,178.51,377.413,175.23,368.533z"/>
								</g>
							</g>
						</g>
						<g>
							<g>
								<g>
									<rect x="378.12" y="435.553" style="fill:#4F0946;" width="5.09" height="78.81"/>
									<rect x="331.76" y="415.813" style="fill:#4F0946;" width="5.09" height="97.82"/>
								</g>
								<g>
									<rect x="182.44" y="435.553" style="fill:#4F0946;" width="5.09" height="78.81"/>
									<rect x="128.79" y="415.813" style="fill:#4F0946;" width="5.09" height="78.81"/>
								</g>
								<g>
									<polygon style="fill:#4F0946;" points="122.01,415.833 122,421.563 175.31,441.993 393.94,441.053 394.08,436.183 
																			"/>
									<polygon style="fill:#FAC98F;" points="175.12,436.183 122.01,415.813 340.97,415.813 394.08,436.183 									"/>
								</g>
							</g>
							<g>
								<g>
									<g>
										<polygon style="fill:#0C1A3B;" points="351.34,412.123 354.94,331.043 242.2,331.043 238.6,412.123 										"/>
										<polygon style="fill:#1F3A59;" points="242.46,412.123 246.07,331.043 242.2,331.043 238.6,412.123 										"/>
									</g>
									<g>
										<g>
											<g>
												<path style="fill:#1C3557;" d="M339.2,428.173l-0.01-1.36h-1.28c-4.06-2.32-17.39-5.03-33.23-5.03
													c-15.82,0-29.14,2.71-33.21,5.02h-1.29l0.03,1.21c-0.01,0.04-0.03,0.09-0.03,0.13c0,2.44,15.45,2.47,34.5,2.47
													c18.99,0,34.39-0.03,34.5-2.44H339.2z"/>
											</g>
											<path style="fill:#0C1A3B;" d="M270.18,426.783c0-2.44,15.45-6.37,34.5-6.37c19.05,0,34.5,3.93,34.5,6.37
												c0,2.44-15.45,2.47-34.5,2.47C285.63,429.253,270.18,429.223,270.18,426.783z"/>
										</g>
										<g>
											<polygon style="fill:#1F3A59;" points="311.12,426.203 311.12,379.473 288.91,379.473 288.91,423.873 295.32,426.203 
																							"/>
											<polygon style="fill:#192C52;" points="317.29,426.203 313.33,379.473 291.12,379.473 295.08,426.203 											"/>
										</g>
									</g>
								</g>
								<g>
									<polygon style="fill:#0C1A3B;" points="195,414.863 195,416.793 218.9,422.013 286.57,421.163 286.57,419.543 
										235.81,417.023 									"/>
									<polyline style="fill:#1F3A59;" points="195,414.863 263.05,415.043 286.57,419.523 219.06,420.083 									"/>
								</g>
								<g>
									<path style="fill:#C3E3E8;" d="M169.4,428.393l-3.5-19.01h18.58l-3.1,19.01C179.07,429.783,172.12,429.593,169.4,428.393z"
										/>
									<g>
										<ellipse style="fill:#E1F3F5;" cx="175.19" cy="409.383" rx="9.29" ry="1.87"/>
										<ellipse style="fill:#95B7BF;" cx="175.19" cy="409.383" rx="8.29" ry="1.34"/>
										<path style="fill:#C3E3E8;" d="M168.68,412.823c-1.35-0.91-2.78-1.78-4.38-2.1c-1.6-0.32-3.42,0.03-4.5,1.25
											c-0.78,0.88-1.09,2.11-1.06,3.3c0.07,2.71,1.78,5.17,3.94,6.79c2.17,1.62,4.77,2.54,7.35,3.38
											c0.38-0.67,0.52-1.48,0.45-2.34c-1.54-0.46-3.08-0.92-4.52-1.63c-1.43-0.71-2.77-1.7-3.66-3.03
											c-0.38-0.56-0.67-1.19-0.73-1.86c-0.06-0.67,0.15-1.39,0.65-1.83c0.5-0.45,1.21-0.57,1.88-0.58
											C165.69,414.173,169.43,416.023,168.68,412.823z"/>
									</g>
								</g>
							</g>
						</g>
					</g>
				</g>
			</g>
			<g>
				<rect x="306.434" y="261.228" style="fill:#5297C4;" width="99.09" height="60.097"/>
				<g>
					<g>
						<path style="fill:#95405D;" d="M376.989,321.344H331.14c0,0,0.055-5.704,6-8.201c3.745-1.572,7.286-1.831,9.643-2.413
							c1.396-0.351,2.376-0.823,2.737-1.747c0.102-0.25,0.185-0.536,0.268-0.851c0.749-2.903,0.749-8.09,0.749-8.09l11.169-2.182
							c0,0-0.546,3.088-0.536,6.324c0.009,2.607,0.37,5.316,1.683,6.564c0.139,0.129,0.277,0.25,0.444,0.37
							C366.533,313.541,374.336,313.92,376.989,321.344z"/>
						<path style="fill:#7D3455;" d="M361.706,297.86c0,0-0.546,3.088-0.536,6.324c-3.227,2.496-7.295,3.92-11.381,3.948
							c0.749-2.903,0.749-8.09,0.749-8.09L361.706,297.86z"/>
						<path style="fill:#FFFFFF;" d="M376.989,321.344H331.14c0,0,0.055-5.704,6-8.201c3.745-1.572,7.286-1.831,9.643-2.413
							c-0.166,4.382,3.208,9.717,5.307,7.729c1.914-1.803,8.173-5.566,11.206-7.341C366.533,313.541,374.336,313.92,376.989,321.344
							z"/>
					</g>
					<g>
						<path style="fill:#7D3455;" d="M349.442,295.254c-0.48,1.598-3.066,2.233-5.776,1.418c-2.709-0.815-4.516-2.77-4.036-4.368
							c0.48-1.598,3.066-2.233,5.776-1.418C348.115,291.7,349.922,293.656,349.442,295.254z"/>
						<path style="fill:#95405D;" d="M367.876,291.22c-0.684,8.48-9.643,14.309-16.596,13.004c-5.432-1.019-8.32-6.579-7.73-15.066
							c0.762-10.968,5.745-14.891,12.797-14.322C363.398,275.404,368.56,282.74,367.876,291.22z"/>
						<path style="fill:#0A1433;" d="M362.622,277.335c-1.041-0.823-1.855-1.93-2.329-3.169c-0.324-0.846-0.49-1.788-0.246-2.66
							c0.243-0.873,0.966-1.649,1.865-1.758c1-0.121,1.902,0.556,2.682,1.194c-0.658-1.763-0.347-3.854,0.796-5.348
							c0.747-0.977,2.004-1.726,3.183-1.377c1.134,0.335,1.762,1.513,2.268,2.582c0.718-1.17,1.737-2.219,3.04-2.649
							c1.304-0.429,2.91-0.102,3.712,1.013c0.556,0.773,0.658,1.791,0.552,2.738c-0.149,1.336-0.681,2.627-1.517,3.68
							c1.351-0.899,3.22-0.996,4.613-0.164s2.199,2.585,1.839,4.167c-0.36,1.583-1.909,2.834-3.531,2.771
							c1.464,0.245,2.847,1.167,3.451,2.523c0.604,1.356,0.297,3.12-0.859,4.051c-1.028,0.828-2.455,0.895-3.775,0.924
							c1.315,1.003,1.464,3.202,0.295,4.373c-1.168,1.17-3.368,1.026-4.373-0.288c0.523,1.05,0.04,2.416-0.908,3.107
							c-0.948,0.691-2.233,0.785-3.37,0.495c-1.137-0.29-2.153-0.923-3.116-1.594"/>
						<g>
							<path style="fill:#0C1B3C;" d="M368.914,295.778c-1.144,0.215-2.399,0.723-3.353,1.378c0.251-2.499-1.505-4.68-2.611-6.933
								c-1.081-2.179-1.626-4.628-1.497-7.057c-5.387-1.421-11.015-1.897-16.552-1.39c0.087-0.441,0.211-0.863,0.362-1.275
								c1.11-3.037,3.724-5.354,6.785-6.556c3.286-1.297,7.732-0.866,10.978,0.361c0.43,0.161,0.831,0.34,1.213,0.555
								c2.813,1.482,4.518,4.124,5.302,7.274C370.653,286.636,370.517,291.432,368.914,295.778z"/>
							<path style="fill:#152F4F;" d="M364.239,274.861c-0.009-0.009-0.027-0.01-0.037-0.01c-6.731-1.305-13.978,0.964-18.939,5.651
								c1.11-3.037,3.724-5.354,6.785-6.556c3.286-1.297,7.732-0.866,10.978,0.361C363.455,274.467,363.857,274.645,364.239,274.861
								z"/>
						</g>
						<path style="fill:#95405D;" d="M372.859,294.436c0.392,1.622-1.52,3.475-4.27,4.14c-2.75,0.665-5.297-0.111-5.689-1.733
							c-0.392-1.622,1.52-3.475,4.27-4.14C369.921,292.039,372.467,292.815,372.859,294.436z"/>
						<g>
							<path style="fill:#0C1B3C;" d="M347.406,291.898c-0.047,0.546-0.411,0.961-0.814,0.926c-0.403-0.034-0.691-0.505-0.645-1.051
								c0.047-0.546,0.411-0.961,0.814-0.927C347.164,290.882,347.453,291.352,347.406,291.898z"/>
							<path style="fill:#0C1B3C;" d="M356.366,292.766c-0.047,0.546-0.411,0.961-0.814,0.926c-0.403-0.034-0.691-0.505-0.645-1.051
								c0.047-0.546,0.411-0.961,0.814-0.927C356.124,291.749,356.412,292.22,356.366,292.766z"/>
							<path style="fill:none;stroke:#5B1F32;stroke-linecap:round;stroke-miterlimit:10;" d="M349.232,291.866
								c-0.166,1.262-0.158,2.547,0.024,3.807"/>
							<path style="fill:none;stroke:#0C1B3C;stroke-linecap:round;stroke-linejoin:round;stroke-miterlimit:10;" d="
								M358.19,289.198c-1.216-1.219-3.14-1.175-4.433-0.518"/>
							<path style="fill:none;stroke:#0C1B3C;stroke-linecap:round;stroke-linejoin:round;stroke-miterlimit:10;" d="
								M348.589,288.038c-1.291-0.968-2.99-0.562-4.023,0.326"/>
							<path style="fill:#5B1F32;" d="M350.535,297.85c1.654-0.006,3.318-0.504,4.991-1.503c0,0,0.678,3.543-1.185,4.175
								C351.964,301.329,350.535,297.85,350.535,297.85z"/>
						</g>
					</g>
				</g>
			</g>
			<g>
				<rect x="192.008" y="248.154" style="fill:#D8B4FC;" width="102" height="61"/>
				<g>
					<path style="fill:#0C1B3C;" d="M232.735,266.437l-4.775-1.057c0,0,0.546,19.633-3.078,25.22
						c-3.624,5.588-4.833,13.29-2.265,15.404c2.567,2.114,35.785,0.906,38.431-2.114c2.646-3.02,3.403-6.121,1.514-11.971
						c-1.889-5.85-2.054-20.498-2.273-23.594C260.07,265.229,232.735,266.437,232.735,266.437z"/>
					<g>
						<path style="fill:#FFE2CF;" d="M256.191,294.279c0,0-6.08,8.356-11.052,8.811c-4.96,0.455-14.133-7.796-14.133-7.796
							s4.54-2.252,5.462-4.061c0.373-0.723,0.443-2.474,0.397-4.341c-0.058-2.824-0.397-5.87-0.397-5.87l11.238,1.855
							c0,0,0.338,7.364,1.657,9.021c0.035,0.07,0.093,0.117,0.14,0.163C250.939,293.345,256.191,294.279,256.191,294.279z"/>
						<path style="fill:#EDB9AB;" d="M249.364,291.898c-4.703,0.315-9.92-3.069-12.499-5.007c-0.058-2.824-0.397-5.87-0.397-5.87
							l11.238,1.855C247.706,282.877,248.045,290.241,249.364,291.898z"/>
					</g>
					<g>
						<path style="fill:#EDB9AB;" d="M265.146,274.557c0.374,1.733-1.497,3.608-4.179,4.187c-2.682,0.58-5.161-0.355-5.535-2.088
							c-0.374-1.733,1.496-3.608,4.179-4.187C262.294,271.889,264.772,272.824,265.146,274.557z"/>
						<g>
							<path style="fill:#FFE2CF;" d="M260.716,269.71c0,9.479-4.74,19.378-13.289,19.378c-8.55,0-17.672-9.899-17.672-19.378
								c0-9.479,6.931-17.164,15.481-17.164S260.716,260.231,260.716,269.71z"/>
							<path style="fill:#EDB9AB;" d="M235.865,274.224c0,0,10.031-7.246,13.286-14.993c0,0,8.89,8.291,10.697,12.214
								c0,0-1.45-16.448-11.991-16.372C237.315,255.149,233.576,269.493,235.865,274.224z"/>
						</g>
						<g>
							<path style="fill:#0C1B3C;" d="M261.034,268.324v0.012c-0.058,2.031-0.327,3.898-0.595,5.333
								c-1.646-8.928-11.997-16.572-11.997-16.572c-6.185,12.966-15.346,20.633-15.346,20.633c-1.575-2.136-2.509-0.689-3.338-2.684
								c-3.874-9.324-1.354-18.276,6.302-21.928c2.673-1.272,5.975-1.902,9.861-1.669
								C259.026,252.231,261.255,261.311,261.034,268.324z"/>
							<path style="fill:#173A4C;" d="M261.034,268.324c-1.19-3.699-3.594-9.126-7.971-12.23
								c-5.158-3.665-13.047-3.396-17.004-2.976c2.673-1.272,5.975-1.902,9.861-1.669
								C259.026,252.231,261.255,261.311,261.034,268.324z"/>
						</g>
						<path style="fill:#FFE2CF;" d="M236.61,278.236c-0.436,1.718-2.946,2.564-5.606,1.889c-2.66-0.675-4.463-2.616-4.026-4.334
							c0.436-1.719,2.946-2.564,5.606-1.889S237.046,276.518,236.61,278.236z"/>
						<g>
							<g>
								<ellipse style="fill:#0C1B3C;" cx="255.862" cy="274.224" rx="0.741" ry="0.968"/>
								<path style="fill:#0C1B3C;" d="M246.451,275.606c0,0.535-0.332,0.968-0.741,0.968c-0.409,0-0.741-0.434-0.741-0.968
									c0-0.535,0.332-0.968,0.741-0.968C246.119,274.638,246.451,275.071,246.451,275.606z"/>
								<path style="fill:none;stroke:#0C1B3C;stroke-linecap:round;stroke-linejoin:round;stroke-miterlimit:10;" d="
									M254.94,270.795c0.853-0.305,1.805-0.324,2.671-0.055"/>
								<path style="fill:none;stroke:#0C1B3C;stroke-linecap:round;stroke-linejoin:round;stroke-miterlimit:10;" d="
									M242.637,272.17c0.692-0.585,1.601-0.908,2.507-0.891"/>
							</g>
							<g>
								<path style="fill:none;stroke:#BA5861;stroke-linecap:round;stroke-linejoin:round;stroke-miterlimit:10;" d="
									M251.93,276.982c0.272,0.945,0.287,1.962,0.042,2.914"/>
								<path style="fill:#BA5861;" d="M251.536,281.874l-6.371-0.852c0,0-0.997,3.935,1.511,4.44
									C250.604,286.253,251.536,281.874,251.536,281.874z"/>
							</g>
							<g>
								<path style="fill:none;stroke:#BA2F4A;stroke-miterlimit:10;" d="M249.612,274.711c0,2.821-2.287,5.108-5.108,5.108
									c-2.821,0-5.108-2.287-5.108-5.108c0-2.821,2.287-5.108,5.108-5.108C247.326,269.603,249.612,271.89,249.612,274.711z"/>
								<ellipse style="fill:none;stroke:#BA2F4A;stroke-miterlimit:10;" cx="256.972" cy="273.433" rx="4.813" ry="5.108"/>
								<path style="fill:none;stroke:#BA2F4A;stroke-miterlimit:10;" d="M252.61,271.278c0,0-2.012-1.166-3.851,0.606"/>
							</g>
						</g>
					</g>
					<path style="fill:#4D0746;" d="M234.065,293.498c0,0,8.251,9.467,11.17,8.995c2.919-0.472,7.753-5.701,7.589-8.995
						c0,0,12.019,1.772,14.426,5.096c2.407,3.325,4.704,10.56,4.704,10.56h-56.161c0,0,0.344-4.401,3.101-7.828
						C221.651,297.899,234.065,293.498,234.065,293.498z"/>
				</g>
			</g>
		</g>
	</g>
</g>
</svg>
