<?xml version="1.0" encoding="utf-8"?>
<!-- Generator: Adobe Illustrator 27.5.0, SVG Export Plug-In . SVG Version: 6.00 Build 0)  -->
<svg version="1.1" xmlns="http://www.w3.org/2000/svg" xmlns:xlink="http://www.w3.org/1999/xlink" x="0px" y="0px"
	 viewBox="0 0 500 500" style="enable-background:new 0 0 500 500;" xml:space="preserve">
<g id="Floor">
	<ellipse id="Floor_4_" style="fill:#F0F0F0;" cx="249.81" cy="335.279" rx="239.442" ry="138.242"/>
</g>
<g id="Shadows_1_">
	<path id="Shadow_14_" style="fill:#E0E0E0;" d="M53.958,368.645c-1.096,0-2.035-0.376-2.511-1.004
		c-0.217-0.285-0.824-0.583-1.664-0.583c-0.092,0-0.185,0.004-0.278,0.012l-1.291,0.106c-0.125,0.011-0.249,0.016-0.37,0.016
		c-1.068,0-2.027-0.378-2.502-0.984c-0.28-0.358-0.379-0.78-0.277-1.191c0.014-0.058,0.018-0.14-0.077-0.263
		c-0.215-0.274-0.823-0.569-1.65-0.569c-0.093,0-0.186,0.004-0.281,0.012c-0.127,0.011-0.251,0.016-0.374,0.016
		c-1.067,0-2.025-0.378-2.501-0.984c-0.279-0.357-0.378-0.78-0.276-1.19c0.014-0.058,0.018-0.141-0.077-0.263
		c-0.215-0.273-0.822-0.568-1.648-0.568c-0.093,0-0.187,0.004-0.284,0.012c-0.125,0.011-0.249,0.016-0.371,0.016
		c-1.068,0-2.028-0.378-2.503-0.985c-0.28-0.357-0.379-0.779-0.277-1.19c0.014-0.058,0.018-0.141-0.077-0.262
		c-0.215-0.274-0.822-0.569-1.648-0.569c-0.093,0-0.188,0.004-0.284,0.012c-0.126,0.011-0.25,0.016-0.373,0.016
		c-1.067,0-2.026-0.378-2.502-0.984c-0.279-0.357-0.378-0.78-0.276-1.19c0.014-0.058,0.018-0.141-0.078-0.264
		c-0.215-0.274-0.822-0.569-1.649-0.569c-0.093,0-0.186,0.004-0.282,0.012c-0.126,0.011-0.251,0.016-0.372,0.016
		c-1.068,0-2.026-0.377-2.501-0.984c-0.281-0.357-0.379-0.779-0.277-1.19l0.183-0.745c0.055-0.225-0.292-0.572-0.949-0.738
		c-1.384-0.349-1.829-1.164-1.79-1.812c0.055-0.895,0.945-1.582,2.268-1.748l0.541-0.068c0.667-0.085,1.077-0.338,1.237-0.546
		c0.096-0.125,0.086-0.205,0.081-0.233l-0.133-1.012c-0.052-0.4,0.075-0.787,0.367-1.122c0.491-0.56,1.427-0.908,2.442-0.908
		l0.201,0.004l1.233,0.052c0.798,0,1.393-0.272,1.629-0.541c0.124-0.141,0.111-0.234,0.107-0.265l-0.083-0.625
		c-0.052-0.4,0.075-0.788,0.368-1.123c0.491-0.56,1.426-0.908,2.441-0.908l0.201,0.004l1.235,0.052c0.797,0,1.392-0.271,1.627-0.539
		c0.124-0.142,0.111-0.235,0.107-0.266l-0.083-0.625c-0.052-0.4,0.075-0.787,0.367-1.121c0.492-0.561,1.427-0.909,2.442-0.909
		l0.201,0.004l1.233,0.052c0.798,0,1.393-0.272,1.629-0.54c0.124-0.142,0.111-0.235,0.107-0.266l-0.083-0.624
		c-0.052-0.4,0.075-0.788,0.368-1.122c0.491-0.561,1.427-0.909,2.442-0.909l0.201,0.004l1.234,0.052c0.798,0,1.392-0.271,1.627-0.54
		c0.124-0.141,0.111-0.234,0.107-0.265l-0.081-0.626c-0.053-0.398,0.074-0.785,0.366-1.12c0.491-0.561,1.427-0.909,2.443-0.909
		l0.201,0.004l1.906,0.08c0.901,0,1.592-0.357,1.717-0.687l0.12-0.312c0.385-1.023,1.72-1.387,2.745-1.387
		c1.095,0,2.034,0.375,2.512,1.002c0.216,0.287,0.824,0.584,1.665,0.584c0.092,0,0.184-0.003,0.276-0.011l1.291-0.106
		c0.126-0.011,0.251-0.016,0.372-0.016c1.067,0,2.025,0.377,2.5,0.984c0.281,0.357,0.379,0.779,0.277,1.19
		c-0.014,0.058-0.018,0.141,0.077,0.263c0.215,0.273,0.822,0.568,1.649,0.568c0.093,0,0.187-0.004,0.284-0.012
		c0.125-0.011,0.249-0.016,0.37-0.016c1.068,0,2.027,0.378,2.502,0.985c0.281,0.357,0.379,0.779,0.277,1.19
		c-0.014,0.058-0.018,0.14,0.077,0.262c0.215,0.274,0.823,0.569,1.651,0.569c0.093,0,0.186-0.004,0.282-0.012
		c0.126-0.011,0.25-0.016,0.373-0.016c1.067,0,2.025,0.378,2.501,0.984c0.279,0.357,0.378,0.78,0.276,1.19
		c-0.014,0.058-0.018,0.141,0.078,0.263c0.215,0.274,0.822,0.569,1.649,0.569c0.093,0,0.186-0.004,0.282-0.012
		c0.127-0.011,0.252-0.016,0.374-0.016c1.067,0,2.025,0.377,2.5,0.984c0.28,0.357,0.379,0.779,0.277,1.19
		c-0.014,0.058-0.018,0.141,0.077,0.262c0.215,0.274,0.822,0.569,1.648,0.569c0.093,0,0.188-0.004,0.284-0.012
		c0.125-0.011,0.249-0.016,0.37-0.016c1.069,0,2.028,0.378,2.504,0.985c0.279,0.357,0.378,0.779,0.276,1.188l-0.183,0.746
		c-0.055,0.225,0.292,0.572,0.949,0.738c1.384,0.348,1.829,1.163,1.79,1.811c-0.055,0.896-0.945,1.583-2.268,1.75l-0.54,0.068
		c-0.667,0.084-1.076,0.337-1.238,0.545c-0.096,0.125-0.086,0.206-0.082,0.234l0.133,1.011c0.052,0.4-0.075,0.789-0.368,1.123
		c-0.491,0.56-1.426,0.908-2.44,0.908l-0.201-0.004l-1.235-0.052c-0.797,0-1.391,0.271-1.627,0.54
		c-0.124,0.141-0.111,0.234-0.107,0.265l0.083,0.626c0.052,0.4-0.075,0.787-0.367,1.122c-0.491,0.56-1.427,0.908-2.442,0.908
		l-0.201-0.004l-1.233-0.052c-0.798,0-1.393,0.272-1.629,0.54c-0.124,0.142-0.111,0.235-0.107,0.266l0.083,0.625
		c0.052,0.4-0.075,0.788-0.368,1.123c-0.491,0.56-1.427,0.908-2.441,0.908l-0.201-0.004l-1.235-0.052
		c-0.797,0-1.392,0.271-1.627,0.539c-0.124,0.142-0.111,0.235-0.107,0.266l0.082,0.625c0.052,0.4-0.075,0.787-0.367,1.121
		c-0.492,0.561-1.427,0.909-2.442,0.909l-0.201-0.004l-1.233-0.052c-0.798,0-1.393,0.272-1.629,0.54
		c-0.124,0.142-0.111,0.235-0.107,0.266l0.083,0.624c0.052,0.4-0.075,0.788-0.368,1.123c-0.491,0.56-1.427,0.908-2.441,0.908
		l-0.201-0.004l-1.903-0.082c-0.903,0-1.596,0.357-1.721,0.687l-0.118,0.311C56.318,368.281,54.984,368.644,53.958,368.645z"/>
	<path id="Shadow_10_" style="fill:#E0E0E0;" d="M93.78,392.558c-1.096,0-2.035-0.376-2.513-1.003
		c-0.216-0.286-0.823-0.584-1.663-0.584c-0.092,0-0.185,0.004-0.278,0.012l-1.291,0.106c-0.125,0.011-0.249,0.016-0.37,0.016
		c-1.068,0-2.027-0.378-2.503-0.985c-0.28-0.357-0.378-0.779-0.276-1.189c0.014-0.058,0.018-0.141-0.078-0.264
		c-0.215-0.274-0.822-0.569-1.649-0.569c-0.093,0-0.186,0.004-0.282,0.012c-0.127,0.011-0.252,0.016-0.374,0.016
		c-1.067,0-2.025-0.377-2.5-0.984c-0.281-0.357-0.379-0.779-0.277-1.19c0.014-0.058,0.018-0.141-0.077-0.264
		c-0.215-0.273-0.822-0.568-1.648-0.568c-0.093,0-0.187,0.004-0.284,0.012c-0.127,0.011-0.25,0.016-0.371,0.016
		c-1.068,0-2.027-0.378-2.503-0.985c-0.279-0.357-0.378-0.779-0.276-1.189c0.014-0.058,0.018-0.141-0.078-0.263
		c-0.215-0.274-0.822-0.569-1.649-0.569c-0.093,0-0.186,0.004-0.282,0.012c-0.127,0.01-0.252,0.016-0.374,0.016
		c-1.067,0-2.025-0.377-2.5-0.984c-0.281-0.357-0.379-0.779-0.277-1.19c0.014-0.058,0.018-0.141-0.077-0.264
		c-0.215-0.273-0.822-0.568-1.648-0.568c-0.093,0-0.187,0.004-0.284,0.012c-0.125,0.011-0.249,0.016-0.37,0.016
		c-1.069,0-2.028-0.378-2.504-0.985c-0.279-0.357-0.378-0.779-0.276-1.189l0.183-0.746c0.055-0.225-0.292-0.572-0.949-0.738
		c-1.384-0.349-1.829-1.164-1.79-1.812c0.055-0.895,0.945-1.582,2.268-1.748l0.54-0.068c0.667-0.084,1.076-0.336,1.238-0.545
		c0.096-0.125,0.086-0.206,0.081-0.234l-0.133-1.011c-0.052-0.4,0.075-0.788,0.368-1.123c0.491-0.56,1.426-0.908,2.441-0.908
		l0.201,0.004l1.235,0.052c0.797,0,1.391-0.271,1.626-0.54c0.125-0.141,0.112-0.235,0.108-0.266l-0.083-0.624
		c-0.052-0.4,0.075-0.787,0.367-1.122c0.491-0.56,1.427-0.908,2.442-0.908l0.201,0.004l1.235,0.051c0.797,0,1.392-0.271,1.627-0.539
		c0.124-0.142,0.111-0.235,0.107-0.266l-0.083-0.624c-0.052-0.4,0.075-0.789,0.368-1.123c0.491-0.56,1.427-0.908,2.441-0.908
		l0.201,0.004l1.235,0.052c0.797,0,1.392-0.271,1.627-0.539c0.124-0.142,0.111-0.235,0.107-0.266l-0.083-0.626
		c-0.052-0.4,0.075-0.787,0.367-1.121c0.492-0.561,1.427-0.909,2.442-0.909l0.201,0.004l1.235,0.051
		c0.797,0,1.392-0.271,1.627-0.539c0.124-0.142,0.111-0.235,0.107-0.266l-0.083-0.625c-0.052-0.4,0.075-0.788,0.368-1.122
		c0.491-0.561,1.427-0.909,2.442-0.909l0.201,0.004l1.902,0.082c0.903,0,1.596-0.357,1.721-0.687l0.119-0.313
		c0.386-1.022,1.721-1.386,2.745-1.386c1.096,0,2.035,0.376,2.512,1.003c0.216,0.286,0.823,0.584,1.663,0.584
		c0.092,0,0.185-0.004,0.278-0.012l1.291-0.106c0.125-0.011,0.249-0.016,0.37-0.016c1.068,0,2.027,0.378,2.503,0.985
		c0.279,0.357,0.378,0.779,0.276,1.189c-0.014,0.058-0.018,0.141,0.078,0.264c0.215,0.274,0.822,0.569,1.65,0.569
		c0.093,0,0.186-0.004,0.282-0.012c0.126-0.011,0.251-0.016,0.372-0.016c1.067,0,2.025,0.377,2.5,0.984
		c0.28,0.357,0.379,0.779,0.277,1.19c-0.014,0.058-0.018,0.141,0.077,0.264c0.215,0.273,0.822,0.568,1.648,0.568
		c0.093,0,0.187-0.004,0.284-0.012c0.125-0.011,0.249-0.016,0.37-0.016c1.068,0,2.028,0.378,2.503,0.985
		c0.281,0.357,0.379,0.779,0.277,1.19c-0.014,0.058-0.018,0.14,0.077,0.263c0.215,0.274,0.824,0.569,1.65,0.569
		c0.093,0,0.186-0.004,0.282-0.012c0.126-0.011,0.251-0.016,0.372-0.016c1.068,0,2.026,0.377,2.501,0.984
		c0.281,0.357,0.379,0.779,0.277,1.19c-0.014,0.058-0.018,0.141,0.077,0.264c0.215,0.273,0.822,0.568,1.648,0.568
		c0.093,0,0.187-0.004,0.284-0.012c0.125-0.011,0.249-0.016,0.37-0.016c1.068,0,2.028,0.378,2.503,0.985
		c0.28,0.357,0.379,0.779,0.277,1.19l-0.183,0.745c-0.055,0.225,0.292,0.572,0.949,0.738c1.384,0.349,1.829,1.164,1.79,1.812
		c-0.055,0.895-0.945,1.582-2.268,1.748l-0.54,0.068c-0.667,0.084-1.076,0.336-1.237,0.545c-0.097,0.125-0.087,0.207-0.082,0.235
		l0.133,1.011c0.052,0.4-0.075,0.787-0.367,1.122c-0.491,0.56-1.427,0.908-2.442,0.908l-0.201-0.004l-1.235-0.052
		c-0.797,0-1.391,0.271-1.626,0.539c-0.125,0.142-0.112,0.236-0.108,0.267l0.083,0.624c0.052,0.4-0.075,0.787-0.367,1.122
		c-0.492,0.56-1.429,0.909-2.444,0.909l-0.198-0.004l-1.236-0.052c-0.797,0-1.392,0.271-1.627,0.539
		c-0.124,0.142-0.111,0.235-0.107,0.266l0.082,0.625c0.052,0.4-0.075,0.787-0.367,1.121c-0.492,0.561-1.427,0.909-2.442,0.909
		l-0.201-0.004l-1.235-0.052c-0.797,0-1.391,0.271-1.626,0.539c-0.125,0.142-0.112,0.236-0.108,0.267l0.083,0.625
		c0.052,0.4-0.075,0.787-0.368,1.122c-0.491,0.561-1.427,0.909-2.441,0.909l-0.201-0.004l-1.235-0.052
		c-0.797,0-1.392,0.271-1.627,0.539c-0.124,0.142-0.111,0.235-0.107,0.266l0.083,0.626c0.052,0.4-0.075,0.787-0.367,1.121
		c-0.492,0.561-1.428,0.909-2.443,0.909l-0.201-0.004l-1.902-0.082c-0.903,0-1.596,0.357-1.721,0.687l-0.118,0.313
		C96.139,392.194,94.805,392.558,93.78,392.558z"/>
	<ellipse id="Shadow_36_" style="fill:#E0E0E0;" cx="396.589" cy="288.486" rx="48.443" ry="27.968"/>
	<polygon id="Shadow_34_" style="fill:#E0E0E0;" points="139.228,356.498 94.545,330.7 265.151,232.201 309.833,257.999 	"/>
	<polygon id="Shadow_33_" style="fill:#E0E0E0;" points="94.456,330.752 49.773,304.954 220.379,206.455 265.061,232.253 	"/>
	<path id="Shadow_6_" style="fill:#E0E0E0;" d="M247.434,462.756l-112.999-65.24c-2.909-1.68-2.909-4.403,0-6.082l167.351-96.62
		c2.909-1.68,7.626-1.68,10.535,0l113,65.239c2.909,1.68,2.909,4.403,0,6.082l-167.352,96.621
		C255.059,464.435,250.343,464.435,247.434,462.756z"/>
</g>
<g id="Plants">
	<g id="Plants_3_">
		<g id="XMLID_1404_">
			<g id="XMLID_1411_">
				<path id="XMLID_1412_" style="fill:#27DEBF;" d="M420.779,259.285c0,0-1.456-12.048,2.214-22.54
					c3.67-10.492,10.337-18.082,17.677-20.452c7.34-2.371,15.02,3.075,8.139,9.705c-6.88,6.63-19.955,14.836-22.295,34.071
					L420.779,259.285z"/>
			</g>
			<g id="XMLID_1409_" style="opacity:0.15;">
				<path id="XMLID_1410_" d="M420.779,259.285c0,0-1.456-12.048,2.214-22.54c3.67-10.492,10.337-18.082,17.677-20.452
					c7.34-2.371,15.02,3.075,8.139,9.705c-6.88,6.63-19.955,14.836-22.295,34.071L420.779,259.285z"/>
			</g>
			<g id="XMLID_1407_">
				<path id="XMLID_1408_" style="fill:#FFFFFF;" d="M422.248,255.717c-0.028,0.001-0.056,0.001-0.085-0.004
					c-0.225-0.034-0.378-0.244-0.344-0.468c3.27-21.321,16.369-33.014,22.839-36.218c0.202-0.102,0.449-0.017,0.55,0.186
					c0.1,0.204,0.018,0.45-0.186,0.55c-6.337,3.138-19.172,14.62-22.392,35.606C422.602,255.565,422.438,255.707,422.248,255.717z"
					/>
			</g>
		</g>
		<g id="XMLID_1350_">
			<g id="XMLID_1387_">
				<g id="XMLID_1402_">
					<path id="XMLID_1403_" style="fill:#27DEBF;" d="M458.337,243.309c-0.28,1.595-1.662,2.734-2.976,3.686
						c-1.307,0.944-2.739,1.976-3.19,3.531c-0.906,3.14,2.663,6.349,1.623,9.446c-0.437,1.298-1.621,2.22-2.872,2.781
						c-1.037,0.474-2.144,0.748-3.224,1.116c-0.533,0.121-1.068,0.213-1.598,0.268c-1.568,0.157-3.227,0.495-4.42,1.614
						c-1.876,1.769-1.86,4.69-2.656,7.143c-0.955,2.938-3.349,5.302-6.2,6.438c-2.393,0.943-6.238,1.311-7.15,0.376
						c-0.693-0.711,0.132-3.579-0.077-4.55c-0.536-2.489-0.835-5.029-0.894-7.574c-0.029-1.24-0.051-2.249-0.36-3.454
						c-0.324-1.261-0.639-2.525-0.945-3.791c-0.331-1.37-0.919-2.364-0.77-3.864c0.142-1.43,0.688-2.81,1.244-4.123
						c0.552-1.304,1.116-2.603,1.691-3.897c0.679-1.526,1.383-3.062,2.416-4.374c1.793-2.278,4.563-3.76,7.453-3.987
						c2.395-0.188,4.967,0.545,7.311-0.155c2.28-0.68,4.385-1.859,6.78-2.282c2.505-0.442,5.277-0.023,7.207,1.741
						C457.818,240.391,458.59,241.862,458.337,243.309z"/>
				</g>
			</g>
			<g id="XMLID_1356_">
				<path id="XMLID_1358_" style="fill:#FFFFFF;" d="M426.181,273.07c-0.01,0.001-0.02,0.001-0.03,0
					c-0.201-0.003-0.362-0.169-0.358-0.371c0.378-22.922,22.252-31.667,27.646-32.604c0.196-0.032,0.386,0.098,0.422,0.297
					c0.035,0.198-0.098,0.387-0.297,0.422c-5.276,0.916-26.673,9.471-27.043,31.898C426.519,272.904,426.369,273.058,426.181,273.07
					z"/>
			</g>
			<g id="XMLID_1352_">
				<path id="XMLID_1354_" style="fill:#FFFFFF;" d="M448.634,255.913c-0.072,0.005-0.146-0.012-0.212-0.052
					c-0.071-0.043-7.265-4.3-16.494-0.504c-0.187,0.074-0.4-0.012-0.476-0.199c-0.077-0.186,0.013-0.399,0.198-0.476
					c9.586-3.94,17.076,0.511,17.15,0.556c0.172,0.105,0.226,0.329,0.122,0.501C448.858,255.843,448.749,255.905,448.634,255.913z"
					/>
			</g>
		</g>
	</g>
	<g id="Plants_14_">
		<g id="XMLID_374_">
			<g id="XMLID_510_">
				<path id="XMLID_512_" style="fill:#37474F;" d="M89.979,285.972c0.098-8.185-5.618-25.209-13.984-35.939
					c-8.365-10.73-21.626-18.661-31.151-15.53c-8.871,2.916-8.053,14.518,2.573,22.327c10.627,7.809,26.623,17.651,31.177,30.984
					l9.695,16.409L89.979,285.972z"/>
			</g>
			<g id="XMLID_430_">
				<path id="XMLID_480_" style="fill:#FFFFFF;" d="M90.449,297.179c-0.261-0.024-0.484-0.219-0.533-0.488
					c-5.145-28.006-27.474-50.987-40.942-56.168c-0.308-0.119-0.462-0.465-0.343-0.773c0.117-0.307,0.457-0.468,0.773-0.344
					c13.724,5.278,36.466,28.638,41.689,57.068c0.06,0.324-0.155,0.636-0.479,0.695C90.557,297.182,90.502,297.184,90.449,297.179z"
					/>
			</g>
		</g>
		<g id="XMLID_259_">
			<g id="XMLID_367_">
				<path id="XMLID_368_" style="fill:#455A64;" d="M86.067,315.013c-1.26-4.616-6.788-12.276-15.802-18.657
					c-9.972-7.059-22.658-10.402-25.526-15.837c-3.446-6.529,2.096-12.592,12.409-11.188c10.313,1.405,28.303,15.715,30.951,36.967
					L86.067,315.013z"/>
			</g>
			<g id="XMLID_260_">
				<path id="XMLID_320_" style="fill:#FFFFFF;" d="M88.123,310.209c-0.227-0.021-0.431-0.171-0.51-0.401
					c-8.281-24.039-26.442-32.659-34.887-33.859c-0.327-0.046-0.554-0.349-0.508-0.676c0.046-0.328,0.336-0.556,0.676-0.508
					c9.339,1.327,27.398,10.118,35.85,34.654c0.107,0.312-0.059,0.653-0.371,0.76C88.29,310.208,88.205,310.217,88.123,310.209z"/>
			</g>
		</g>
	</g>
</g>
<g id="Envelopes">
	<g id="Open_Envelope_2_">
		<g id="XMLID_1137_">
			<path id="XMLID_1159_" style="fill:#27DEBF;" d="M84.801,190.954l165.601-95.61l6.627,3.826c1.713,0.989,3.115,3.417,3.115,5.396
				v122.161c0,1.978-1.402,4.406-3.115,5.396L97.658,324.135c-1.713,0.989-4.517,0.989-6.23,0l-3.511-2.027
				c-1.713-0.989-3.115-3.417-3.115-5.396L84.801,190.954z"/>
			<path id="XMLID_1157_" style="opacity:0.3;" d="M84.801,190.954l165.601-95.61l6.627,3.826c1.713,0.989,3.115,3.417,3.115,5.396
				v122.161c0,1.978-1.402,4.406-3.115,5.396L97.658,324.135c-1.713,0.989-4.517,0.989-6.23,0l-3.511-2.027
				c-1.713-0.989-3.115-3.417-3.115-5.396L84.801,190.954z"/>
			<path id="XMLID_1156_" style="fill:#27DEBF;" d="M249.488,84.605l0.677-0.368l-2.573-1.495v0.002
				c-0.221-0.129-0.449-0.24-0.683-0.326l-72.881-27.006c-1.929-0.715-4.435,0.082-5.597,1.779L86.905,176.249
				c-1.162,1.697-2.104,4.74-2.104,6.797c0,3.402,0,7.907,0,7.907l2.527,1.468l163.074-97.076v-7.908
				C250.402,86.474,250.051,85.475,249.488,84.605z"/>
			<path id="XMLID_1155_" style="opacity:0.05;" d="M171.807,57.768c-0.323,0.248-0.608,0.559-0.844,0.894L89.429,177.715
				c-0.596,0.882-1.142,2.123-1.515,3.402l-2.533-1.465c0.186-0.621,0.41-1.229,0.658-1.8c0.012-0.025,0.012-0.037,0.025-0.05
				c0.112-0.248,0.224-0.484,0.348-0.72c0.025-0.037,0.037-0.075,0.062-0.112c0.137-0.261,0.286-0.509,0.435-0.72L168.43,57.196
				c0.124-0.186,0.261-0.335,0.41-0.497c0.137-0.137,0.286-0.273,0.435-0.397L171.807,57.768z"/>
			<path id="XMLID_1154_" style="opacity:0.35;fill:#FFFFFF;" d="M250.137,84.225c-0.223-0.136-0.459-0.248-0.695-0.335
				l-72.892-27.016c-1.54-0.571-3.451-0.174-4.743,0.894l-2.533-1.465c1.304-1.055,3.203-1.465,4.755-0.894l72.88,27.004
				c0.236,0.087,0.459,0.199,0.683,0.335L250.137,84.225z"/>
			<g id="XMLID_1141_">
				<path id="XMLID_1151_" style="fill:#27DEBF;" d="M86.47,176.965c0.14-0.258,0.286-0.499,0.435-0.717
					C86.756,176.467,86.61,176.708,86.47,176.965z"/>
				<path id="XMLID_1150_" style="fill:#27DEBF;" d="M168.841,56.699c0.137-0.14,0.283-0.272,0.437-0.397
					C169.124,56.428,168.976,56.556,168.841,56.699z"/>
				<path id="XMLID_1149_" style="fill:#27DEBF;" d="M85.378,179.655c0.187-0.624,0.412-1.237,0.662-1.806
					C85.788,178.418,85.564,179.03,85.378,179.655z"/>
				<path id="XMLID_1148_" style="fill:#27DEBF;" d="M86.061,177.797c0.111-0.25,0.229-0.485,0.35-0.713
					C86.29,177.312,86.173,177.548,86.061,177.797z"/>
				<path id="XMLID_1147_" style="opacity:0.2;" d="M86.04,177.848c0.007-0.017,0.014-0.035,0.021-0.051
					C86.054,177.814,86.047,177.832,86.04,177.848z"/>
				<polygon id="XMLID_1145_" style="opacity:0.2;" points="85.377,179.655 85.377,179.655 85.378,179.655 				"/>
				<polygon id="XMLID_1144_" style="opacity:0.2;" points="169.278,56.303 169.278,56.303 169.278,56.303 				"/>
				<path id="XMLID_1143_" style="opacity:0.2;" d="M86.411,177.084c0.02-0.038,0.039-0.081,0.059-0.119
					C86.449,177.003,86.431,177.046,86.411,177.084z"/>
				<path id="XMLID_1142_" style="opacity:0.2;" d="M168.431,57.19c0.12-0.176,0.263-0.335,0.41-0.491
					C168.691,56.852,168.552,57.014,168.431,57.19z"/>
			</g>
			<path id="XMLID_1139_" style="fill:#27DEBF;" d="M170.958,58.658L89.432,177.716c-1.162,1.697-2.104,4.74-2.104,6.797
				c0,3.402,0,7.907,0,7.907l165.603-95.616l-0.002-7.9c0-2.057-1.564-4.304-3.493-5.019l-72.881-27.006
				C174.626,56.164,172.12,56.961,170.958,58.658z"/>
			<path id="XMLID_713_" style="opacity:0.15;" d="M170.958,58.658L89.432,177.716c-1.162,1.697-2.104,4.74-2.104,6.797
				c0,3.402,0,7.907,0,7.907l165.603-95.616l-0.002-7.9c0-2.057-1.564-4.304-3.493-5.019l-72.881-27.006
				C174.626,56.164,172.12,56.961,170.958,58.658z"/>
			<path id="XMLID_1138_" style="opacity:0.1;" d="M252.929,88.904c0-0.945-0.341-1.925-0.885-2.783L87.914,181.117
				c0,0-0.009,0.014-0.016,0.026c-0.352,1.179-0.571,2.387-0.571,3.371c0,3.402,0,7.907,0,7.907l165.603-95.616L252.929,88.904z"/>
		</g>
		<g>
			<path style="fill:#F0F0F0;" d="M245.856,55.346c0-0.851-0.297-1.451-0.777-1.734c-0.487-0.288-4.568-2.637-5.055-2.918
				c-0.486-0.28-1.158-0.24-1.9,0.189l-135.832,78.42c-1.485,0.857-2.688,2.942-2.688,4.656l0.001,162.673
				c0,0.857,0.3,1.459,0.786,1.74c0.487,0.281,4.558,2.631,5.045,2.912c0.486,0.281,1.158,0.24,1.901-0.188l135.832-78.42
				c1.485-0.857,2.688-2.942,2.688-4.656L245.856,55.346z"/>
			<path style="fill:#FAFAFA;" d="M107.336,301.094l135.833-78.42c1.485-0.857,2.688-2.942,2.688-4.656l-0.001-162.673
				c0-1.714-1.203-2.409-2.688-1.552l-135.832,78.42c-1.485,0.857-2.688,2.942-2.688,4.656l0.001,162.673
				C104.648,301.257,105.852,301.952,107.336,301.094z"/>
			<path style="fill:#E0E0E0;" d="M104.643,299.541c0,0.757,0.236,1.316,0.633,1.639c-0.906-0.509-4.432-2.558-4.879-2.806
				c-0.497-0.286-0.795-0.882-0.795-1.738V133.954c0-0.857,0.298-1.8,0.795-2.645l5.041,2.905c-0.497,0.844-0.795,1.8-0.795,2.657
				V299.541z"/>
			<g>
				<path style="fill:#E0E0E0;" d="M230.488,78.666L206.355,92.6c-1.196,0.69-2.165,2.3-2.164,3.595c0,1.295,0.97,1.786,2.166,1.095
					l24.132-13.934c1.196-0.69,2.165-2.3,2.165-3.595C232.653,78.466,231.684,77.976,230.488,78.666z"/>
				<path style="fill:#E0E0E0;" d="M121.081,151.213l44.415-25.642c1.196-0.69,2.165-0.2,2.165,1.095
					c0,1.295-0.969,2.905-2.165,3.595l-44.414,25.642c-1.196,0.69-2.165,0.2-2.166-1.095
					C118.916,153.513,119.885,151.903,121.081,151.213z"/>
				<path style="fill:#E0E0E0;" d="M121.082,165.285l109.407-63.166c1.196-0.69,2.165-0.2,2.165,1.095
					c0,1.295-0.97,2.905-2.165,3.595l-109.408,63.166c-1.196,0.69-2.165,0.2-2.165-1.095
					C118.916,167.585,119.886,165.975,121.082,165.285z"/>
				<path style="fill:#E0E0E0;" d="M121.082,174.666l109.407-63.166c1.196-0.69,2.165-0.2,2.165,1.095
					c0,1.295-0.97,2.905-2.165,3.595l-109.408,63.166c-1.196,0.69-2.165,0.2-2.165-1.095
					C118.916,176.966,119.886,175.356,121.082,174.666z"/>
				<path style="fill:#E0E0E0;" d="M121.082,184.047l109.407-63.166c1.196-0.69,2.165-0.2,2.165,1.095
					c0,1.295-0.97,2.905-2.165,3.595l-109.408,63.166c-1.196,0.69-2.165,0.2-2.165-1.095
					C118.916,186.347,119.886,184.737,121.082,184.047z"/>
				<path style="fill:#E0E0E0;" d="M121.082,199.463l109.407-63.166c1.196-0.69,2.165-0.2,2.165,1.095
					c0,1.295-0.97,2.905-2.165,3.595l-109.408,63.166c-1.196,0.69-2.165,0.2-2.165-1.095
					C118.916,201.763,119.886,200.153,121.082,199.463z"/>
				<path style="fill:#E0E0E0;" d="M121.082,208.844l109.407-63.166c1.196-0.69,2.165-0.2,2.165,1.095
					c0,1.295-0.97,2.905-2.165,3.595l-109.408,63.166c-1.196,0.69-2.165,0.2-2.165-1.095
					C118.916,211.144,119.886,209.535,121.082,208.844z"/>
				<path style="fill:#E0E0E0;" d="M121.082,218.225l109.407-63.166c1.196-0.69,2.165-0.2,2.165,1.095
					c0,1.295-0.97,2.905-2.165,3.595l-109.408,63.166c-1.196,0.69-2.165,0.2-2.165-1.095
					C118.916,220.525,119.886,218.915,121.082,218.225z"/>
			</g>
		</g>
		<g id="XMLID_690_">
			<path id="XMLID_1130_" style="fill:#27DEBF;" d="M255.942,228.354c-0.049,0.087-0.099,0.161-0.173,0.248L186.76,206.72
				c-5.419-2.407-11.765-0.447-14.913,4.591l-73.774,109.65l-2.728,1.576l-0.025,0.012c-0.827,0.459-1.568,0.521-2.111,0.236
				l75.873-113.025c3.148-5.037,9.506-6.998,14.925-4.603L255.942,228.354z"/>
			<path id="XMLID_1123_" style="opacity:0.4;fill:#FFFFFF;" d="M165.053,222.074l0.174-0.149l-67.156,99.041l-2.732,1.577
				l-0.025,0.013c-0.819,0.459-1.564,0.509-2.111,0.236l69.192-102.306L165.053,222.074z"/>
			<path id="XMLID_1122_" style="opacity:0.4;fill:#FFFFFF;" d="M255.947,228.358c-0.05,0.087-0.099,0.161-0.174,0.248
				l-69.018-21.89c-5.413-2.409-11.758-0.447-14.911,4.594l-2.731-1.589c3.154-5.016,9.486-6.953,14.899-4.569L255.947,228.358z"/>
			<path id="XMLID_1120_" style="fill:#27DEBF;" d="M260.086,103.785h-0.012c-0.149-0.894-0.621-1.142-1.229-0.72
				c-0.236,0.161-0.509,0.435-0.795,0.819l-0.348,0.484l-68.1,103.532l-10.168,14.166c-1.142,1.614-3.65,2.545-5.599,2.098
				l-8.778-2.086L98.05,197.411c-0.484-0.112-0.944-0.124-1.366-0.05c-0.174,0.037-0.348,0.087-0.509,0.161l2.526-1.46
				l64.242,23.544l8.458,3.019c1.937,0.459,4.445-0.472,5.6-2.098l10.168-14.154l68.435-104.016c0.224-0.31,0.497-0.534,0.77-0.708
				l-5.922-3.414l2.483-1.428l4.097,2.359C258.522,100.036,259.776,101.985,260.086,103.785z"/>
			<path id="XMLID_1102_" style="opacity:0.4;fill:#FFFFFF;" d="M189.598,207.895l-10.168,14.166
				c-1.142,1.614-3.65,2.545-5.599,2.098l-8.778-2.086l0.174-0.149l0.422-0.67l5.748,1.366c1.937,0.459,4.445-0.472,5.599-2.098
				l10.069-14.005L189.598,207.895z"/>
			<path id="XMLID_930_" style="opacity:0.05;" d="M257.027,99.161l-4.097-2.359l-2.483,1.428l5.922,3.414
				c0.005,0.004,0.01,0.007,0.014,0.011l-0.01-0.006c-0.298,0.188-0.56,0.417-0.77,0.708l-68.439,104.011l-0.099,0.137v0.012
				l2.533,1.378l68.1-103.532l0.348-0.484c0.286-0.385,0.559-0.658,0.795-0.819c0.608-0.422,1.08-0.174,1.229,0.72h0.012
				C259.771,101.979,258.517,100.03,257.027,99.161z"/>
			<path id="XMLID_917_" style="fill:#27DEBF;" d="M99.411,199.393l-14.61-8.439l0.001,125.758c0,1.979,1.402,4.407,3.115,5.396
				l3.511,2.027c1.714,0.989,4.518,0.989,6.231,0l1.753-1.012V199.393z"/>
			<path id="XMLID_719_" style="opacity:0.3;" d="M99.411,199.393l-14.61-8.439l0.001,125.758c0,1.979,1.402,4.407,3.115,5.396
				l3.511,2.027c1.714,0.989,4.518,0.989,6.231,0l1.753-1.012V199.393z"/>
			<path id="XMLID_717_" style="fill:#27DEBF;" d="M260.148,104.567v122.157c0,1.03-0.372,2.16-0.968,3.153
				c-0.497,0.819-1.117,1.552-1.825,2.049l-0.124,0.062c-0.074,0.05-0.124,0.099-0.199,0.136l-159.367,92l-0.025,0.012
				c-0.832,0.472-1.577,0.534-2.123,0.248c-0.484-0.248-0.819-0.757-0.931-1.49c-0.025-0.174-0.037-0.36-0.037-0.559v-122.17
				c0-1.974,1.552-3.216,3.501-2.756l67.007,24.668l8.778,2.086c1.949,0.447,4.457-0.484,5.599-2.098l10.168-14.166l68.1-103.532
				l0.348-0.484C259.205,102.283,260.148,102.581,260.148,104.567z"/>
			<path id="XMLID_699_" style="opacity:0.2;" d="M260.148,104.567v122.157c0,1.03-0.372,2.16-0.968,3.153
				c-0.497,0.819-1.117,1.552-1.825,2.049l-0.124,0.062c-0.074,0.05-0.124,0.099-0.199,0.136l-159.367,92l-0.025,0.012
				c-0.832,0.472-1.577,0.534-2.123,0.248c-0.484-0.248-0.819-0.757-0.931-1.49c-0.025-0.174-0.037-0.36-0.037-0.559v-122.17
				c0-1.974,1.552-3.216,3.501-2.756l63.58,23.406l3.016,1.11l0.411,0.151l8.778,2.086c1.949,0.447,4.457-0.484,5.599-2.098
				l10.168-14.166l68.1-103.532l0.348-0.484C259.205,102.283,260.148,102.581,260.148,104.567z"/>
			<path id="XMLID_709_" style="fill:#27DEBF;" d="M164.646,221.928L95.513,324.38c-0.596-0.31-0.968-1.018-0.968-2.049l0.004-2.03
				l67.996-100.841C162.545,219.449,164.646,221.928,164.646,221.928z"/>
			<path id="XMLID_970_" style="opacity:0.25;" d="M171.847,211.311L95.513,324.38c-0.596-0.31-0.968-1.018-0.968-2.049l0.004-2.03
				l74.533-110.542C169.082,209.748,171.847,211.311,171.847,211.311z"/>
			<path id="XMLID_716_" style="fill:#27DEBF;" d="M257.03,232.126c0.072-0.036,0.132-0.084,0.204-0.132l0.119-0.072
				c0.707-0.492,1.331-1.223,1.822-2.038c0.59-0.979,0.955-2.096,0.967-3.102l-70.536-18.88l47.235,35.878L257.03,232.126z"/>
			<path id="XMLID_714_" style="opacity:0.25;" d="M257.03,232.126c0.072-0.036,0.132-0.084,0.204-0.132l0.119-0.072
				c0.707-0.492,1.331-1.223,1.822-2.038c0.59-0.979,0.955-2.096,0.967-3.102l-70.536-18.88l47.235,35.878L257.03,232.126z"/>
			<path id="XMLID_708_" style="fill:#27DEBF;" d="M259.176,229.884c-0.491,0.815-1.115,1.547-1.822,2.038l-0.119,0.072
				L97.663,324.13l-0.024,0.012c-0.827,0.468-1.571,0.528-2.122,0.24l76.314-113.104c3.163-5.049,9.553-7.01,15.004-4.604
				L259.176,229.884z"/>
			<path id="XMLID_718_" style="opacity:0.15;" d="M259.176,229.884c-0.491,0.815-1.115,1.547-1.822,2.038l-0.119,0.072
				L97.663,324.13l-0.024,0.012c-0.827,0.468-1.571,0.528-2.122,0.24l76.314-113.104c3.163-5.049,9.553-7.01,15.004-4.604
				L259.176,229.884z"/>
			<path id="XMLID_695_" style="opacity:0.15;" d="M85.382,179.652l2.533,1.465c-0.36,1.192-0.583,2.409-0.583,3.402
				c0,3.402,0,7.896,0,7.896l-2.533-1.465c0,0,0-4.507,0-7.909C84.798,182.06,85.022,180.844,85.382,179.652z"/>
			<polygon id="XMLID_693_" style="fill:#27DEBF;" points="98.701,196.063 96.175,197.523 93.618,196.046 87.323,192.42 
				89.769,190.968 			"/>
			<path id="XMLID_692_" style="opacity:0.05;" d="M98.813,196.111l-9.044-5.143l-2.446,1.453l6.295,3.625l2.558,1.477l0.027-0.015
				c0.153-0.067,0.315-0.117,0.478-0.151c0.422-0.075,0.882-0.062,1.366,0.05l5.092,1.878l58.492,21.534l0.915-1.357L98.813,196.111
				z"/>
		</g>
	</g>
	<g id="Back_Envelope">
		<g id="Envelope_3_">
			<g id="Letter_7_">
				<g id="XMLID_656_">
					<g id="XMLID_657_">
						<path id="XMLID_658_" style="fill:#27DEBF;" d="M129.168,216.032c0-2.053,1.441-4.549,3.219-5.576l158.822-91.689
							c1.778-1.027,4.66-1.027,6.438,0l3.629,2.095c1.778,1.026,3.219,3.523,3.219,5.576v126.239c0,2.044-1.449,4.554-3.219,5.576
							l-158.822,91.689c-1.77,1.022-4.668,1.022-6.438,0l-3.628-2.095c-1.771-1.022-3.219-3.531-3.219-5.576L129.168,216.032z"/>
					</g>
				</g>
				<path id="XMLID_536_" style="fill:#27DEBF;" d="M130.09,212.879l9.138,5.27l164.305-94.865
					c-0.579-1.005-1.386-1.888-2.269-2.406l-3.64-2.086c-1.767-1.036-4.66-1.036-6.427,0l-158.822,91.682
					C131.476,210.99,130.669,211.874,130.09,212.879z"/>
				<path id="XMLID_525_" style="opacity:0.35;fill:#FFFFFF;" d="M130.09,212.879l9.138,5.27l164.305-94.865
					c-0.579-1.005-1.386-1.888-2.269-2.406l-3.64-2.086c-1.767-1.036-4.66-1.036-6.427,0l-158.822,91.682
					C131.476,210.99,130.669,211.874,130.09,212.879z"/>
				<path id="XMLID_524_" style="opacity:0.1;" d="M129.146,216.046v126.238c0,2.056,1.447,4.554,3.229,5.574l3.625,2.102
					c0.274,0.152,0.564,0.289,0.883,0.396c0.411,0.137,0.853,0.244,1.325,0.305c0.838,0.107,1.723,0.081,2.545-0.087
					c0.213-0.045,0.431-0.1,0.629-0.161c0.137-0.046,0.271-0.089,0.386-0.135c-0.594,0.213-1.124,0.154-1.551-0.06
					c-0.609-0.32-0.99-1.051-0.99-2.117V221.864c0-1.325,0-3.716,0-3.716l-9.138-5.27
					C129.512,213.884,129.146,215.026,129.146,216.046z"/>
			</g>
		</g>
		<g>
			<path style="fill:#455A64;" d="M156.775,229.106l46.145-26.643c0.717-0.414,1.299-0.078,1.299,0.75l0,0.364
				c0,0.828-0.581,1.836-1.299,2.25l-46.146,26.643c-0.717,0.414-1.299,0.078-1.299-0.75v-0.363
				C155.476,230.528,156.057,229.52,156.775,229.106z"/>
			<path style="fill:#455A64;" d="M156.775,236.805l46.145-26.643c0.717-0.414,1.299-0.078,1.299,0.75l0,0.364
				c0,0.828-0.581,1.836-1.299,2.25l-46.146,26.643c-0.717,0.414-1.299,0.078-1.299-0.75v-0.363
				C155.476,238.227,156.057,237.219,156.775,236.805z"/>
			<path style="fill:#455A64;" d="M156.775,244.504l46.145-26.643c0.717-0.414,1.299-0.078,1.299,0.75l0,0.364
				c0,0.828-0.581,1.836-1.299,2.25l-46.146,26.643c-0.717,0.414-1.299,0.079-1.299-0.75v-0.363
				C155.476,245.926,156.057,244.919,156.775,244.504z"/>
		</g>
		<g>
			<path style="fill:#455A64;" d="M240.599,242.134l46.145-26.643c0.717-0.414,1.299-0.078,1.299,0.75l0,0.364
				c0,0.828-0.581,1.836-1.299,2.25l-46.146,26.643c-0.717,0.414-1.299,0.079-1.299-0.75v-0.363
				C239.3,243.555,239.882,242.548,240.599,242.134z"/>
			<path style="fill:#455A64;" d="M240.599,249.833l46.145-26.643c0.717-0.414,1.299-0.078,1.299,0.75l0,0.364
				c0,0.828-0.581,1.836-1.299,2.25l-46.146,26.643c-0.717,0.414-1.299,0.078-1.299-0.75v-0.363
				C239.3,251.254,239.882,250.247,240.599,249.833z"/>
			<path style="fill:#455A64;" d="M240.599,257.532l46.145-26.643c0.717-0.414,1.299-0.078,1.299,0.75l0,0.364
				c0,0.828-0.581,1.836-1.299,2.25l-46.146,26.643c-0.717,0.414-1.299,0.078-1.299-0.75v-0.363
				C239.3,258.953,239.882,257.946,240.599,257.532z"/>
			<path style="fill:#455A64;" d="M240.599,265.231l46.145-26.643c0.717-0.414,1.299-0.079,1.299,0.75l0,0.364
				c0,0.828-0.581,1.836-1.299,2.25l-46.146,26.643c-0.717,0.414-1.299,0.078-1.299-0.75v-0.363
				C239.3,266.653,239.882,265.645,240.599,265.231z"/>
		</g>
		<g>
			<path style="opacity:0.1;" d="M267.842,164.542l0.365,0.444c0.471,0.572,1.319,0.082,1.789-1.033l0.366-0.866
				c0.47-1.115,1.319-1.605,1.789-1.033l0.366,0.444c0.47,0.572,1.319,0.082,1.789-1.033l0.365-0.866
				c0.47-1.115,1.319-1.605,1.789-1.033l0.366,0.444c0.47,0.572,1.319,0.082,1.789-1.033l0.365-0.866
				c0.471-1.115,1.319-1.605,1.789-1.033l0.366,0.444c0.471,0.572,1.319,0.082,1.789-1.033l0.365-0.866
				c0.471-1.115,1.319-1.605,1.789-1.033l0.592,0.719c0.383,0.466,1.037,0.236,1.532-0.539l0.241-0.377
				c0.962-1.506,2.151-0.692,1.735,1.187l-0.003,0.015c-0.193,0.87-0.033,1.642,0.39,1.887l0.539,0.312
				c0.628,0.364,0.628,1.814,0,2.903v0c-0.628,1.089-0.628,2.539,0,2.903l0,0c0.628,0.364,0.628,1.814,0,2.903l0,0
				c-0.628,1.089-0.628,2.539,0,2.903l0,0c0.628,0.364,0.628,1.814,0,2.903h0c-0.628,1.089-0.628,2.539,0,2.903l0,0
				c0.628,0.364,0.628,1.814,0,2.903l0,0c-0.628,1.089-0.628,2.539,0,2.903l0,0c0.628,0.364,0.628,1.814,0,2.903l-0.539,0.934
				c-0.423,0.734-0.583,1.69-0.39,2.337l0.003,0.011c0.416,1.399-0.774,3.586-1.735,3.19l-0.241-0.099
				c-0.495-0.204-1.148,0.321-1.532,1.229l-0.592,1.403c-0.471,1.115-1.319,1.605-1.789,1.033l-0.365-0.444
				c-0.471-0.572-1.319-0.082-1.789,1.033l-0.366,0.866c-0.47,1.115-1.319,1.605-1.789,1.033l-0.365-0.444
				c-0.47-0.572-1.319-0.082-1.789,1.033l-0.366,0.866c-0.47,1.115-1.319,1.605-1.789,1.033l-0.365-0.444
				c-0.471-0.572-1.319-0.082-1.789,1.033l-0.366,0.866c-0.471,1.115-1.319,1.605-1.789,1.033l-0.366-0.444
				c-0.47-0.572-1.319-0.082-1.789,1.033l-0.365,0.866c-0.47,1.115-1.319,1.605-1.789,1.033l-0.592-0.719
				c-0.383-0.466-1.037-0.236-1.532,0.539l-0.24,0.376c-0.962,1.506-2.151,0.692-1.735-1.187l0.003-0.014
				c0.193-0.87,0.033-1.642-0.39-1.887l-0.539-0.312c-0.628-0.364-0.628-1.814,0-2.903v0c0.628-1.089,0.628-2.539,0-2.903l0,0
				c-0.628-0.364-0.628-1.814,0-2.903v0c0.628-1.089,0.628-2.539,0-2.903h0c-0.628-0.364-0.628-1.814,0-2.903l0,0
				c0.628-1.089,0.628-2.539,0-2.903l0,0c-0.628-0.364-0.628-1.814,0-2.903l0,0c0.628-1.089,0.628-2.539,0-2.903v0
				c-0.628-0.364-0.628-1.814,0-2.903l0.539-0.934c0.423-0.734,0.583-1.689,0.39-2.337l-0.003-0.011
				c-0.416-1.399,0.774-3.586,1.735-3.19l0.241,0.099c0.495,0.203,1.148-0.321,1.532-1.229l0.592-1.403
				C266.523,164.459,267.372,163.969,267.842,164.542z"/>
			<path style="fill:#F0F0F0;" d="M268.986,164.195l0.365,0.444c0.471,0.572,1.319,0.082,1.789-1.033l0.366-0.866
				c0.47-1.115,1.319-1.605,1.789-1.033l0.366,0.444c0.47,0.572,1.319,0.082,1.789-1.033l0.365-0.866
				c0.471-1.115,1.319-1.605,1.789-1.033l0.366,0.444c0.47,0.572,1.319,0.082,1.789-1.033l0.365-0.866
				c0.471-1.115,1.319-1.605,1.789-1.033l0.365,0.444c0.471,0.572,1.319,0.082,1.789-1.033l0.365-0.866
				c0.471-1.115,1.319-1.605,1.789-1.033l0.592,0.719c0.383,0.466,1.037,0.236,1.532-0.539l0.241-0.377
				c0.962-1.506,2.151-0.692,1.735,1.187l-0.003,0.015c-0.193,0.87-0.033,1.642,0.39,1.887l0.539,0.312
				c0.628,0.364,0.628,1.814,0,2.903l0,0c-0.628,1.089-0.628,2.539,0,2.903l0,0c0.628,0.364,0.628,1.814,0,2.903v0
				c-0.628,1.089-0.628,2.539,0,2.903l0,0c0.628,0.364,0.628,1.814,0,2.903l0,0c-0.628,1.089-0.628,2.539,0,2.903h0
				c0.628,0.364,0.628,1.814,0,2.903l0,0c-0.628,1.089-0.628,2.539,0,2.903h0c0.628,0.364,0.628,1.814,0,2.903l-0.539,0.934
				c-0.423,0.734-0.583,1.69-0.39,2.337l0.003,0.011c0.416,1.399-0.774,3.586-1.735,3.19l-0.24-0.099
				c-0.495-0.204-1.148,0.321-1.532,1.229l-0.592,1.403c-0.47,1.115-1.319,1.605-1.789,1.033l-0.365-0.444
				c-0.471-0.572-1.319-0.082-1.789,1.033l-0.365,0.866c-0.471,1.115-1.319,1.605-1.789,1.033l-0.365-0.444
				c-0.471-0.572-1.319-0.082-1.789,1.033l-0.366,0.866c-0.47,1.115-1.319,1.605-1.789,1.033l-0.365-0.444
				c-0.47-0.572-1.319-0.082-1.789,1.033l-0.366,0.866c-0.47,1.115-1.319,1.605-1.789,1.033l-0.366-0.444
				c-0.47-0.572-1.319-0.082-1.789,1.033l-0.365,0.866c-0.47,1.115-1.319,1.605-1.789,1.033l-0.592-0.719
				c-0.383-0.466-1.037-0.236-1.532,0.539l-0.24,0.376c-0.962,1.506-2.151,0.692-1.735-1.187l0.003-0.014
				c0.193-0.87,0.033-1.642-0.39-1.887l-0.539-0.312c-0.628-0.364-0.628-1.814,0-2.903l0,0c0.628-1.089,0.628-2.539,0-2.903l0,0
				c-0.628-0.364-0.628-1.814,0-2.903l0,0c0.628-1.089,0.628-2.539,0-2.903h0c-0.628-0.364-0.628-1.814,0-2.903h0
				c0.628-1.089,0.628-2.539,0-2.903h0c-0.628-0.364-0.628-1.814,0-2.903l0,0c0.628-1.089,0.628-2.539,0-2.903l0,0
				c-0.628-0.364-0.628-1.814,0-2.903l0.539-0.934c0.423-0.734,0.583-1.689,0.39-2.337l-0.003-0.011
				c-0.416-1.399,0.774-3.586,1.735-3.19l0.241,0.099c0.495,0.203,1.148-0.321,1.532-1.229l0.592-1.403
				C267.668,164.113,268.516,163.623,268.986,164.195z"/>
			<path style="fill:#455A64;" d="M267.927,168.058l17.568-10.143c1.674-0.966,3.031-0.183,3.031,1.75v24.832
				c0,1.933-1.357,4.283-3.031,5.25l-17.568,10.143c-1.674,0.966-3.031,0.183-3.031-1.75v-24.833
				C264.896,171.375,266.253,169.025,267.927,168.058z"/>
			<g id="XMLID_1164_">
				<g id="XMLID_1260_">
					<path id="XMLID_1261_" style="fill:#27DEBF;" d="M282.541,179.07c-0.048,0.028-0.096,0.019-0.125-0.032l-1.086-1.931
						l-2.009-7.524c-0.034-0.126-0.005-0.307,0.073-0.451l1.113-2.052v-0.262l-0.455,0.263c-0.082,0.048-0.149-0.017-0.149-0.145
						c0-0.128,0.067-0.27,0.149-0.318l0.517-0.298c0.131-0.076,0.237,0.028,0.237,0.23v0.404c0,0.11-0.032,0.232-0.087,0.334
						l-1.102,2.032l1.988,7.446l1.061,1.873c0.045,0.08,0.026,0.235-0.042,0.345C282.598,179.025,282.569,179.054,282.541,179.07z"
						/>
				</g>
				<g id="XMLID_1254_">
					<path id="XMLID_1257_" style="fill:#F0F0F0;" d="M282.541,184.405c-1.98,1.143-3.591-0.424-3.591-3.493
						c0-3.069,1.611-6.496,3.591-7.64c1.98-1.143,3.591,0.424,3.591,3.493C286.132,179.834,284.521,183.262,282.541,184.405z
						 M282.541,173.89c-1.761,1.016-3.193,4.064-3.193,6.792s1.432,4.122,3.193,3.105c1.76-1.017,3.193-4.064,3.193-6.793
						C285.734,174.266,284.301,172.873,282.541,173.89z"/>
				</g>
				<g id="XMLID_1244_">
					<path id="XMLID_1246_" style="fill:#27DEBF;" d="M286.422,176.752c-0.055,0.032-0.1-0.012-0.1-0.097
						c0-3.232-1.697-4.882-3.782-3.678c-2.085,1.204-3.782,4.813-3.782,8.045c0,0.085-0.044,0.18-0.099,0.212
						c-0.055,0.032-0.1-0.012-0.1-0.097c0-3.402,1.786-7.201,3.981-8.469c2.195-1.267,3.981,0.469,3.981,3.872
						C286.522,176.625,286.477,176.72,286.422,176.752z"/>
					<path id="XMLID_1245_" style="opacity:0.2;" d="M286.422,176.752c-0.055,0.032-0.1-0.012-0.1-0.097
						c0-3.232-1.697-4.882-3.782-3.678c-2.085,1.204-3.782,4.813-3.782,8.045c0,0.085-0.044,0.18-0.099,0.212
						c-0.055,0.032-0.1-0.012-0.1-0.097c0-3.402,1.786-7.201,3.981-8.469c2.195-1.267,3.981,0.469,3.981,3.872
						C286.522,176.625,286.477,176.72,286.422,176.752z"/>
				</g>
				<g id="XMLID_1241_">
					<path id="XMLID_1243_" style="fill:#27DEBF;" d="M274.762,183.484c-0.055,0.032-0.1-0.012-0.1-0.097
						c0-3.232-1.697-4.882-3.782-3.678c-2.085,1.204-3.782,4.813-3.782,8.045c0,0.085-0.045,0.18-0.1,0.212
						c-0.055,0.032-0.1-0.012-0.1-0.097c0-3.402,1.786-7.201,3.981-8.469c2.195-1.267,3.981,0.469,3.981,3.872
						C274.861,183.358,274.817,183.452,274.762,183.484z"/>
					<path id="XMLID_1242_" style="opacity:0.2;" d="M274.762,183.484c-0.055,0.032-0.1-0.012-0.1-0.097
						c0-3.232-1.697-4.882-3.782-3.678c-2.085,1.204-3.782,4.813-3.782,8.045c0,0.085-0.045,0.18-0.1,0.212
						c-0.055,0.032-0.1-0.012-0.1-0.097c0-3.402,1.786-7.201,3.981-8.469c2.195-1.267,3.981,0.469,3.981,3.872
						C274.861,183.358,274.817,183.452,274.762,183.484z"/>
				</g>
				<g id="XMLID_1237_">
					<path id="XMLID_1238_" style="fill:#F0F0F0;" d="M270.88,191.137c-1.98,1.143-3.591-0.424-3.591-3.493
						c0-3.069,1.611-6.496,3.591-7.64c1.98-1.143,3.591,0.424,3.591,3.493C274.471,186.566,272.86,189.994,270.88,191.137z
						 M270.88,180.622c-1.761,1.016-3.193,4.064-3.193,6.792c0,2.729,1.432,4.122,3.193,3.105c1.761-1.017,3.193-4.064,3.193-6.793
						C274.073,180.999,272.641,179.605,270.88,180.622z"/>
				</g>
				<g id="XMLID_1235_">
					<path id="XMLID_1236_" style="fill:#27DEBF;" d="M275.766,184.105c-0.007,0.004-0.015,0.008-0.022,0.01l-4.886,1.697
						c-0.054,0.019-0.1-0.013-0.118-0.082c-0.019-0.069-0.008-0.165,0.029-0.25l3.303-7.623c0.056-0.128,0.15-0.189,0.211-0.14
						c0.061,0.05,0.067,0.193,0.012,0.32l-3.118,7.196l4.532-1.574l4.62-10.662c0.055-0.127,0.15-0.189,0.211-0.14
						c0.061,0.05,0.067,0.193,0.012,0.32l-4.674,10.785C275.848,184.03,275.808,184.081,275.766,184.105z"/>
				</g>
				<g id="XMLID_1233_">
					<path id="XMLID_1234_" style="fill:#27DEBF;" d="M275.766,184.105c-0.061,0.035-0.119,0.01-0.141-0.072l-2.38-8.914
						c-0.028-0.104,0.013-0.26,0.09-0.348c0.077-0.087,0.163-0.075,0.191,0.03l2.38,8.914c0.028,0.104-0.013,0.26-0.09,0.348
						C275.8,184.081,275.783,184.096,275.766,184.105z"/>
				</g>
				<g id="XMLID_1230_">
					<path id="XMLID_1232_" style="fill:#27DEBF;" d="M275.417,182.798c-0.004,0.002-0.008,0.004-0.012,0.006l-4.025,1.823
						c-0.082,0.037-0.143-0.039-0.137-0.17c0.007-0.132,0.085-0.269,0.161-0.305l4.025-1.823c0.082-0.037,0.144,0.039,0.137,0.17
						C275.559,182.624,275.494,182.754,275.417,182.798z"/>
				</g>
				<path id="XMLID_1227_" style="fill:#27DEBF;" d="M273.837,173.814c-0.3,0.093-0.281-0.056-0.829,0.307
					c-0.462,0.305-0.716,0.721-0.742,1.359c-0.006,0.145,0.075,0.214,0.165,0.145c0.154-0.117,0.375-0.269,0.476-0.265
					c0.163,0.008,0.366,0.013,0.546-0.149c0.18-0.162,0.414-0.586,0.74-0.877c0.326-0.291,0.463-0.272,0.751-0.45
					c0.068-0.042,0.131-0.085,0.185-0.124c0.095-0.068,0.159-0.252,0.128-0.373c-0.046-0.175-0.142-0.366-0.344-0.282
					C274.625,173.224,274.173,173.71,273.837,173.814z"/>
				<path id="XMLID_1226_" style="opacity:0.2;" d="M273.837,173.814c-0.3,0.093-0.281-0.056-0.829,0.307
					c-0.462,0.305-0.716,0.721-0.742,1.359c-0.006,0.145,0.075,0.214,0.165,0.145c0.154-0.117,0.375-0.269,0.476-0.265
					c0.163,0.008,0.366,0.013,0.546-0.149c0.18-0.162,0.414-0.586,0.74-0.877c0.326-0.291,0.463-0.272,0.751-0.45
					c0.068-0.042,0.131-0.085,0.185-0.124c0.095-0.068,0.159-0.252,0.128-0.373c-0.046-0.175-0.142-0.366-0.344-0.282
					C274.625,173.224,274.173,173.71,273.837,173.814z"/>
				<g id="XMLID_1224_">
					<path id="XMLID_1225_" style="fill:#27DEBF;" d="M275.214,182.037c-0.06,0.035-0.117,0.011-0.139-0.068
						c-0.03-0.102,0.009-0.258,0.086-0.349c2.538-2.975,4.046-6.651,4.481-10.926c0.013-0.134,0.09-0.263,0.172-0.289
						c0.081-0.026,0.136,0.062,0.122,0.196c-0.454,4.458-2.025,8.29-4.668,11.39C275.25,182.011,275.231,182.027,275.214,182.037z"
						/>
				</g>
				<g id="XMLID_1222_">
					<path id="XMLID_1223_" style="fill:#27DEBF;" d="M278.426,177.966c-0.033,0.019-0.067,0.021-0.094,0.002l-0.426-0.294
						c-0.064-0.044-0.073-0.184-0.021-0.314c0.052-0.129,0.147-0.198,0.21-0.154l0.426,0.294c0.064,0.044,0.073,0.184,0.021,0.314
						C278.512,177.887,278.47,177.941,278.426,177.966z"/>
				</g>
				<g id="XMLID_1204_">
					<path id="XMLID_1205_" style="fill:#F0F0F0;" d="M275.766,185.304c-0.509,0.294-0.923-0.109-0.923-0.897
						c0-0.788,0.414-1.669,0.923-1.963s0.923,0.109,0.923,0.897C276.688,184.13,276.275,185.01,275.766,185.304z M275.766,182.769
						c-0.393,0.227-0.713,0.907-0.713,1.516c0,0.609,0.32,0.92,0.713,0.693c0.393-0.227,0.712-0.907,0.712-1.516
						C276.478,182.853,276.159,182.542,275.766,182.769z"/>
				</g>
				<g id="XMLID_1202_">
					<path id="XMLID_1203_" style="fill:#F0F0F0;" d="M277.378,185.083c-0.023,0.013-0.046,0.015-0.065,0.003l-1.612-1.047
						c-0.046-0.029-0.053-0.128-0.017-0.219c0.036-0.091,0.102-0.141,0.147-0.112l1.612,1.047c0.046,0.03,0.053,0.128,0.017,0.219
						C277.439,185.027,277.409,185.066,277.378,185.083z"/>
				</g>
				<g id="XMLID_1193_">
					<path id="XMLID_1196_" style="fill:#27DEBF;" d="M277.71,184.892l-0.786,0.454c-0.058,0.033-0.105-0.012-0.105-0.102
						s0.047-0.19,0.105-0.223l0.786-0.454c0.058-0.033,0.105,0.012,0.105,0.102C277.815,184.758,277.768,184.858,277.71,184.892z"/>
					<path id="XMLID_1195_" style="opacity:0.2;" d="M277.71,184.892l-0.786,0.454c-0.058,0.033-0.105-0.012-0.105-0.102
						s0.047-0.19,0.105-0.223l0.786-0.454c0.058-0.033,0.105,0.012,0.105,0.102C277.815,184.758,277.768,184.858,277.71,184.892z"/>
				</g>
				<path id="XMLID_1192_" style="fill:#27DEBF;" d="M279.274,167.299c0-0.386,0.174-0.799,0.389-0.924s0.389,0.088,0.389,0.474
					c0,0.386-0.174,0.8-0.389,0.924C279.448,167.897,279.274,167.685,279.274,167.299z"/>
				<path id="XMLID_1191_" style="opacity:0.4;" d="M279.274,167.299c0-0.386,0.174-0.799,0.389-0.924s0.389,0.088,0.389,0.474
					c0,0.386-0.174,0.8-0.389,0.924C279.448,167.897,279.274,167.685,279.274,167.299z"/>
				<path id="XMLID_1185_" style="fill:#27DEBF;" d="M279.659,167.401l-1.302,0.751c-0.165,0.095-0.165-0.554,0-0.649l1.302-0.751
					C279.805,166.668,279.805,167.317,279.659,167.401z"/>
				<path id="XMLID_1171_" style="opacity:0.2;" d="M279.659,167.401l-1.302,0.751c-0.165,0.095-0.165-0.554,0-0.649l1.302-0.751
					C279.805,166.668,279.805,167.317,279.659,167.401z"/>
				<g id="XMLID_1169_">
					<path id="XMLID_1170_" style="fill:#F0F0F0;" d="M282.292,178.982c0-0.212,0.111-0.449,0.248-0.528
						c0.137-0.079,0.248,0.029,0.248,0.242c0,0.213-0.111,0.449-0.248,0.528C282.403,179.303,282.292,179.195,282.292,178.982z"/>
				</g>
				<g id="XMLID_1165_">
					<path id="XMLID_1166_" style="fill:#F0F0F0;" d="M270.632,185.714c0-0.213,0.111-0.449,0.248-0.528
						c0.137-0.079,0.248,0.029,0.248,0.242c0,0.212-0.111,0.449-0.248,0.528C270.743,186.035,270.632,185.927,270.632,185.714z"/>
				</g>
			</g>
		</g>
	</g>
	<g id="Envelope_2_">
		<g id="XMLID_1317_">
			<path id="XMLID_1344_" style="fill:#27DEBF;" d="M418.836,351.75c0-0.061,0-0.109-0.012-0.158c0.012-0.012,0.012-0.024,0-0.049
				c0-0.049-0.012-0.097-0.024-0.146c0-0.061-0.012-0.134-0.049-0.207c-0.024-0.073-0.049-0.158-0.097-0.231
				c-0.146-0.316-0.414-0.608-0.779-0.864c-0.012-0.024-0.024-0.024-0.037-0.036c-0.049-0.024-0.085-0.049-0.122-0.073
				c-0.036-0.024-0.085-0.061-0.134-0.085c-0.012-0.012-0.037-0.024-0.049-0.036l-104.701-60.458
				c-0.073-0.036-0.134-0.073-0.207-0.109c-1.886-1.046-4.002-1.521-6.082-1.435l-0.097,0.012c-1.788,0.085-3.552,0.596-5.146,1.521
				c-0.012,0-0.012,0.012-0.024,0.012l-7.603,4.379l-132.047,76.248l-16.824,9.707c-0.012,0.012-0.036,0.024-0.049,0.036
				c-0.985,0.766-1.508,1.885-1.569,3.029c0,0.012,0,0.036,0,0.036v9.014c0,0.012,0,0.036,0,0.036v0.231
				c0,1.399,0.681,2.773,2.056,3.576c0,0.012,0.012,0.012,0.012,0.012l1.654,0.949l102.621,59.254
				c0.9,0.523,2.092,0.779,3.272,0.754c1.095-0.012,2.178-0.268,3.017-0.742l0.037-0.012l141.194-81.515l20.485-11.824
				c0.073-0.049,0.122-0.085,0.195-0.134l0.122-0.073c0.645-0.45,0.949-1.009,0.985-1.569
				C418.836,360.642,418.799,352.31,418.836,351.75z"/>
			<path id="XMLID_1340_" style="opacity:0.25;" d="M250.786,456.416c0.078,0.022,0.151,0.05,0.231,0.069
				c0.266,0.061,0.539,0.106,0.818,0.137c0.003,0,0.006,0.001,0.008,0.001c0.201,0.022,0.405,0.026,0.609,0.033
				c0.084,0.002,0.167,0.01,0.251,0.01v-9.047c-1.156,0-2.299-0.243-3.175-0.754l-104.272-60.217
				c-1.277-0.725-2.05-1.917-2.071-3.805v9.014c0,0.012,0,0.036,0,0.036v0.231c0,1.399,0.681,2.773,2.056,3.576
				c0,0.012,0.012,0.012,0.012,0.012l1.654,0.949l102.621,59.254c0.222,0.129,0.462,0.241,0.714,0.337
				C250.416,456.318,250.602,456.366,250.786,456.416z"/>
			<path id="XMLID_1339_" style="opacity:0.15;" d="M418.836,360.8c-0.036,0.56-0.341,1.119-0.985,1.569l-0.122,0.073
				c-0.073,0.049-0.122,0.085-0.195,0.134l-20.485,11.824l-141.194,81.515l-0.037,0.012c-0.839,0.474-1.922,0.73-3.017,0.742h-0.097
				v-9.05c1.095-0.012,2.275-0.268,3.114-0.742l0.037-0.012l161.874-93.473l0.122-0.073c0.645-0.45,0.949-1.01,0.985-1.569
				C418.799,352.31,418.836,360.642,418.836,360.8z"/>
			<path id="XMLID_1338_" style="opacity:0.4;" d="M418.836,351.75c-0.036,0.56-0.341,1.119-0.985,1.569l-0.122,0.073
				l-20.692,11.946l-85.517,49.388l-55.665,32.139l-0.037,0.012c-0.839,0.474-1.922,0.73-3.017,0.742
				c-1.18,0.012-2.372-0.231-3.272-0.754l-1.788-1.034l-79.897-46.14l-20.935-12.079l-1.654-0.949c0,0-0.012,0-0.012-0.012
				c-1.423-0.827-2.104-2.275-2.056-3.722v-0.085c0,0,0-0.024,0-0.036c0.061-1.144,0.584-2.263,1.569-3.029
				c0.012-0.012,0.036-0.024,0.049-0.036l16.824-9.707l132.047-76.248l7.603-4.379c0.012,0,0.012-0.012,0.024-0.012
				c1.594-0.924,3.357-1.435,5.146-1.521l0.097-0.012c2.08-0.085,4.197,0.389,6.082,1.435c0.073,0.036,0.134,0.073,0.207,0.109
				l104.701,60.458c0.012,0.012,0.036,0.024,0.049,0.036c0.049,0.024,0.097,0.061,0.134,0.085c0.036,0.024,0.073,0.049,0.122,0.073
				c0.012,0.012,0.024,0.012,0.037,0.036c0.365,0.255,0.633,0.547,0.779,0.864c0.049,0.073,0.073,0.158,0.097,0.231
				c0.036,0.073,0.049,0.146,0.049,0.207c0.024,0.061,0.024,0.109,0.024,0.146c0.012,0.024,0.012,0.036,0,0.049
				C418.836,351.641,418.836,351.689,418.836,351.75z"/>
			<g id="XMLID_1326_">
				<path id="XMLID_1337_" style="fill:#27DEBF;" d="M418.836,351.75c-0.036,0.56-0.341,1.119-0.985,1.569l-0.122,0.073
					l-20.692,11.946l-85.517,49.388l-55.665,32.139l-0.037,0.012c-0.839,0.474-1.922,0.73-3.017,0.742
					c-1.18,0.012-2.372-0.231-3.272-0.754l-1.788-1.034l-79.897-46.14l-20.935-12.079l-1.654-0.949c0,0-0.012,0-0.012-0.012
					c-1.423-0.827-2.104-2.275-2.056-3.722v-0.085c0,0,0-0.024,0-0.036c0.523-0.146,1.168-0.255,1.91-0.329l18.746-1.861
					l97.244-9.683h0.012l15.181-1.521c3.345-0.328,6.338-1.545,6.666-2.701l3.041-10.157v-0.012l18.989-63.584l1.423-4.732
					l0.012-0.061c0.037-0.109,0.073-0.219,0.134-0.304c2.08-0.085,4.197,0.389,6.082,1.435c0.073,0.036,0.134,0.073,0.207,0.109
					l4.55,2.64l100.151,57.818c0.012,0.012,0.036,0.024,0.049,0.036c0.049,0.024,0.097,0.061,0.134,0.085
					c0.036,0.024,0.073,0.049,0.122,0.073c0.012,0.012,0.024,0.012,0.037,0.036c0.365,0.255,0.633,0.547,0.779,0.864
					c0.049,0.073,0.073,0.158,0.097,0.231c0.036,0.073,0.049,0.146,0.049,0.207c0.024,0.061,0.024,0.109,0.024,0.146
					c0.012,0.024,0.012,0.036,0,0.049C418.836,351.641,418.836,351.689,418.836,351.75z"/>
				<path id="XMLID_1336_" style="opacity:0.25;" d="M417.535,353.519c0.078-0.039,0.127-0.081,0.195-0.127l0.118-0.072
					c0.645-0.457,0.952-1.01,0.983-1.568c0.037-0.669-0.388-1.343-1.254-1.857l-118.137,5.747l-0.251,2.383l97.865,7.317
					L417.535,353.519z"/>
				<path id="XMLID_1335_" style="opacity:0.25;" d="M249.524,446.863c0.906,0.523,2.093,0.773,3.28,0.755
					c1.092-0.016,2.171-0.264,3.019-0.743l0.026-0.013l55.667-32.137l-41.867-36.358l-9.95,0.352l-11.957,67.115L249.524,446.863z"
					/>
				<path id="XMLID_1334_" style="fill:#27DEBF;" d="M418.831,351.754c-0.031,0.557-0.338,1.111-0.983,1.568l-0.118,0.072
					l-161.881,93.47l-0.026,0.013c-0.848,0.479-1.927,0.728-3.019,0.743l9.094-84.149c0.377-3.488,8.379-6.354,18.788-6.73
					L418.831,351.754z"/>
			</g>
			<path id="XMLID_1319_" style="opacity:0.25;" d="M306.544,287.862l-0.523,5.024l-6.605,62.988l-0.024,0.182l-0.158,1.545
				l-1.435,13.685c-0.365,3.491-8.369,6.362-18.794,6.739l-9.355,0.341h-0.012l-9.379,0.341l-0.559,0.012l-95.529,3.443
				l-20.984,0.766v-0.085c0,0,0-0.024,0-0.036c0.061-1.144,0.584-2.263,1.569-3.029c0.012-0.012,0.036-0.024,0.049-0.036
				l16.824-9.707l132.071-76.248l7.579-4.379c0.012,0,0.012-0.012,0.024-0.012c1.594-0.924,3.357-1.435,5.146-1.521L306.544,287.862
				z"/>
			<path id="XMLID_1318_" style="fill:#27DEBF;" d="M306.447,287.874l-0.037,0.292l-0.012,0.061l-0.779,4.683l-10.376,63.183
				l-0.024,0.122l-0.17,1.058l-1.91,11.629c-0.535,3.284-7.834,5.997-17.553,6.544l-8.734,0.487h-0.012l-6.326,0.353l-0.389,0.025
				l-96.052,5.365l-20.887,1.168c0,0,0-0.024,0-0.036c0.061-1.144,0.584-2.263,1.569-3.029c0.012-0.012,0.036-0.024,0.049-0.036
				l16.824-9.707l132.071-76.248l7.579-4.379c0.012,0,0.012-0.012,0.024-0.012C302.895,288.47,304.659,287.959,306.447,287.874z"/>
		</g>
		<g>
			<path style="fill:#FAFAFA;" d="M286.905,383.198c-7.655,0-12.092-1.411-14.056-2.253c-3.362-1.439-5.487-3.786-5.83-6.44
				c-0.301-2.323,0.763-4.559,2.993-6.296c2.547-1.983,6.385-3.122,10.528-3.122c0.555,0,1.11,0.022,1.661,0.065
				c-0.065-0.591-0.036-1.186,0.089-1.773c0.467-2.181,2.204-3.985,4.892-5.082c1.798-0.734,3.954-1.122,6.237-1.122
				c4.096,0,8.185,1.229,10.937,3.287c1.803,1.349,7.428,6.484,4.14,15.974l-1.588,4.545l-7.632,1.188
				c-4.424,0.684-8.585,1.03-12.369,1.03C286.906,383.198,286.906,383.198,286.905,383.198z"/>
			<path style="fill:#455A64;" d="M287.938,360.148c-4.03,1.645-4.893,4.893-2.278,7.634c-4.913-1.414-11.036-0.629-14.42,2.006
				c-3.796,2.955-2.723,7.128,2.396,9.319c2.581,1.105,10.215,3.422,25.331,1.084l6.448-1.003l1.19-3.407
				c2.766-7.986-1.49-12.253-3.448-13.717C299.275,359.159,292.461,358.302,287.938,360.148z"/>
		</g>
	</g>
</g>
<g id="Mail_Stamps">
	<g id="Mail_Stamp_1_">
		<path style="fill:#FAFAFA;" d="M28.85,343.53l1.082,0.048c1.394,0.061,2.554-0.609,2.448-1.413l-0.082-0.625
			c-0.106-0.805,1.055-1.475,2.448-1.413l1.083,0.048c1.394,0.061,2.554-0.609,2.448-1.413l-0.082-0.625
			c-0.106-0.805,1.055-1.474,2.448-1.413l1.083,0.048c1.394,0.061,2.554-0.609,2.448-1.413l-0.082-0.625
			c-0.106-0.805,1.055-1.475,2.448-1.413l1.082,0.047c1.394,0.061,2.554-0.609,2.448-1.413l-0.082-0.625
			c-0.106-0.805,1.055-1.475,2.448-1.413l1.753,0.077c1.135,0.05,2.16-0.391,2.402-1.033l0.118-0.312
			c0.471-1.247,3.432-1.417,4.319-0.248l0.007,0.009c0.411,0.542,1.397,0.859,2.411,0.776l1.291-0.106
			c1.504-0.123,2.793,0.621,2.58,1.489v0c-0.214,0.868,1.075,1.613,2.58,1.489l0,0c1.504-0.123,2.793,0.621,2.58,1.489v0
			c-0.214,0.869,1.075,1.613,2.58,1.489h0c1.504-0.123,2.793,0.621,2.58,1.489h0c-0.214,0.869,1.075,1.613,2.58,1.489h0
			c1.504-0.123,2.793,0.621,2.58,1.489v0c-0.214,0.868,1.075,1.613,2.58,1.489l0,0c1.504-0.123,2.793,0.621,2.58,1.489l-0.183,0.745
			c-0.144,0.586,0.405,1.155,1.344,1.392l0.016,0.004c2.025,0.512,1.731,2.222-0.429,2.494l-0.54,0.068
			c-1.112,0.14-1.875,0.732-1.789,1.387l0.133,1.012c0.106,0.805-1.054,1.475-2.448,1.413l-1.082-0.048
			c-1.393-0.061-2.554,0.609-2.448,1.413l0.082,0.625c0.106,0.805-1.055,1.475-2.448,1.413l-1.082-0.048
			c-1.394-0.061-2.554,0.609-2.448,1.413l0.082,0.625c0.106,0.805-1.055,1.475-2.448,1.413l-1.082-0.048
			c-1.394-0.061-2.554,0.609-2.448,1.413l0.082,0.625c0.106,0.805-1.055,1.475-2.448,1.413l-1.082-0.048
			c-1.394-0.061-2.554,0.609-2.448,1.413l0.082,0.625c0.106,0.805-1.055,1.475-2.448,1.413l-1.752-0.077
			c-1.135-0.05-2.16,0.391-2.402,1.033l-0.118,0.312c-0.471,1.247-3.432,1.417-4.319,0.248l-0.007-0.009
			c-0.411-0.542-1.397-0.859-2.411-0.776l-1.291,0.106c-1.504,0.123-2.793-0.621-2.58-1.489l0,0c0.214-0.869-1.075-1.613-2.58-1.489
			h0c-1.504,0.123-2.793-0.621-2.58-1.489l0,0c0.214-0.869-1.075-1.613-2.58-1.489h0c-1.504,0.123-2.793-0.621-2.58-1.489l0,0
			c0.214-0.869-1.075-1.613-2.58-1.489h0c-1.504,0.123-2.793-0.621-2.58-1.489l0,0c0.214-0.868-1.075-1.613-2.58-1.489l0,0
			c-1.504,0.123-2.793-0.621-2.58-1.489l0.183-0.745c0.144-0.585-0.405-1.155-1.344-1.392l-0.016-0.004
			c-2.025-0.512-1.731-2.222,0.43-2.494l0.54-0.068c1.112-0.14,1.875-0.732,1.789-1.387l-0.133-1.012
			C26.296,344.139,27.456,343.469,28.85,343.53z"/>
		<path style="fill:#27DEBF;" d="M30.289,346.035l24.036-13.878c2.291-1.322,5.54-1.59,7.258-0.599L83.652,344.3
			c1.718,0.992,1.254,2.868-1.037,4.19l-24.036,13.878c-2.29,1.322-5.54,1.59-7.258,0.599l-22.069-12.741
			C27.535,349.234,27.999,347.358,30.289,346.035z"/>
		<g id="XMLID_511_">
			<g id="XMLID_1295_">
				<path id="XMLID_1296_" style="fill:#455A64;" d="M67.57,344.47c-0.066,0.038-0.164,0.057-0.263,0.045l-3.76-0.454l-10.465-2.868
					c-0.176-0.048-0.282-0.156-0.263-0.268l0.271-1.603l-0.233-0.135l-0.623,0.359c-0.113,0.065-0.297,0.065-0.41-0.001
					c-0.114-0.066-0.114-0.172-0.001-0.237l0.707-0.408c0.179-0.103,0.471-0.103,0.651,0.001l0.359,0.207
					c0.098,0.057,0.147,0.135,0.134,0.215l-0.268,1.587l10.357,2.839l3.66,0.437c0.157,0.019,0.259,0.108,0.227,0.198
					C67.636,344.419,67.608,344.448,67.57,344.47z"/>
			</g>
			<g id="XMLID_1291_">
				<path id="XMLID_1292_" style="fill:#F0F0F0;" d="M72.311,347.207c-2.71,1.564-7.133,1.556-9.861-0.019
					c-2.728-1.575-2.742-4.129-0.033-5.693c2.71-1.564,7.133-1.556,9.861,0.019C75.005,343.089,75.02,345.643,72.311,347.207z
					 M62.966,341.812c-2.409,1.391-2.396,3.661,0.029,5.062c2.425,1.4,6.358,1.408,8.767,0.017c2.409-1.391,2.396-3.661-0.029-5.062
					C69.308,340.429,65.375,340.421,62.966,341.812z"/>
			</g>
			<g id="XMLID_1288_">
				<path id="XMLID_1290_" style="fill:#27DEBF;" d="M72.812,341.364c-0.075,0.043-0.198,0.043-0.273-0.001
					c-2.872-1.658-7.531-1.667-10.384-0.02c-2.853,1.647-2.838,4.337,0.035,5.995c0.076,0.044,0.076,0.114,0.001,0.158
					c-0.075,0.044-0.198,0.043-0.274-0.001c-3.024-1.746-3.04-4.577-0.036-6.311c3.004-1.734,7.907-1.725,10.931,0.021
					C72.887,341.25,72.887,341.321,72.812,341.364z"/>
				<path id="XMLID_1289_" style="opacity:0.2;" d="M72.812,341.364c-0.075,0.043-0.198,0.043-0.273-0.001
					c-2.872-1.658-7.531-1.667-10.384-0.02c-2.853,1.647-2.838,4.337,0.035,5.995c0.076,0.044,0.076,0.114,0.001,0.158
					c-0.075,0.044-0.198,0.043-0.274-0.001c-3.024-1.746-3.04-4.577-0.036-6.311c3.004-1.734,7.907-1.725,10.931,0.021
					C72.887,341.25,72.887,341.321,72.812,341.364z"/>
			</g>
			<g id="XMLID_1283_">
				<path id="XMLID_1287_" style="fill:#27DEBF;" d="M56.857,350.576c-0.075,0.043-0.198,0.043-0.273-0.001
					c-2.872-1.658-7.531-1.667-10.384-0.02c-2.853,1.647-2.838,4.337,0.035,5.995c0.076,0.044,0.076,0.114,0.001,0.158
					c-0.075,0.043-0.198,0.043-0.273-0.001c-3.024-1.746-3.04-4.577-0.036-6.311c3.004-1.734,7.907-1.725,10.931,0.021
					C56.932,350.462,56.932,350.532,56.857,350.576z"/>
				<path id="XMLID_1286_" style="opacity:0.2;" d="M56.857,350.576c-0.075,0.043-0.198,0.043-0.273-0.001
					c-2.872-1.658-7.531-1.667-10.384-0.02c-2.853,1.647-2.838,4.337,0.035,5.995c0.076,0.044,0.076,0.114,0.001,0.158
					c-0.075,0.043-0.198,0.043-0.273-0.001c-3.024-1.746-3.04-4.577-0.036-6.311c3.004-1.734,7.907-1.725,10.931,0.021
					C56.932,350.462,56.932,350.532,56.857,350.576z"/>
			</g>
			<g id="XMLID_1273_">
				<path id="XMLID_1274_" style="fill:#F0F0F0;" d="M56.356,356.419c-2.71,1.564-7.133,1.556-9.861-0.019
					c-2.727-1.575-2.742-4.129-0.033-5.693c2.71-1.564,7.133-1.556,9.861,0.019C59.05,352.301,59.065,354.854,56.356,356.419z
					 M47.011,351.024c-2.409,1.391-2.396,3.661,0.029,5.062c2.425,1.4,6.358,1.408,8.767,0.017c2.409-1.391,2.396-3.661-0.029-5.062
					C53.353,349.64,49.42,349.633,47.011,351.024z"/>
			</g>
			<g id="XMLID_1271_">
				<path id="XMLID_1272_" style="fill:#455A64;" d="M59.298,350.399c-0.01,0.006-0.021,0.011-0.032,0.016l-7.684,3.283
					c-0.085,0.036-0.199,0.043-0.296,0.017c-0.097-0.026-0.161-0.081-0.167-0.143l-0.559-5.542
					c-0.009-0.093,0.114-0.171,0.272-0.176c0.16-0.005,0.297,0.066,0.306,0.159l0.528,5.232l7.127-3.045l-0.783-7.751
					c-0.009-0.093,0.114-0.171,0.272-0.176c0.16-0.005,0.297,0.066,0.306,0.158l0.792,7.842
					C59.387,350.319,59.356,350.365,59.298,350.399z"/>
			</g>
			<g id="XMLID_1269_">
				<path id="XMLID_1270_" style="fill:#455A64;" d="M59.298,350.399c-0.084,0.048-0.215,0.064-0.329,0.032l-12.399-3.398
					c-0.145-0.04-0.208-0.14-0.14-0.223c0.067-0.083,0.24-0.119,0.386-0.079l12.399,3.398c0.145,0.04,0.208,0.14,0.14,0.223
					C59.341,350.37,59.321,350.385,59.298,350.399z"/>
			</g>
			<g id="XMLID_1265_">
				<path id="XMLID_1266_" style="fill:#455A64;" d="M57.48,349.9c-0.006,0.003-0.011,0.006-0.017,0.009l-5.952,2.923
					c-0.122,0.06-0.305,0.051-0.409-0.02c-0.104-0.071-0.079-0.18,0.032-0.236l5.952-2.923c0.122-0.06,0.305-0.051,0.409,0.02
					C57.593,349.741,57.586,349.839,57.48,349.9z"/>
			</g>
			<path id="XMLID_1264_" style="fill:#27DEBF;" d="M46.525,346.071c-0.482,0.196-0.579,0.11-1.288,0.567
				c-0.597,0.385-0.706,0.723-0.189,1.064c0.117,0.077,0.331,0.073,0.44-0.007c0.186-0.136,0.467-0.323,0.661-0.371
				c0.313-0.076,0.7-0.174,0.894-0.346c0.194-0.172,0.258-0.505,0.612-0.815c0.354-0.31,0.63-0.368,1.012-0.602
				c0.09-0.055,0.17-0.109,0.237-0.155c0.117-0.082,0.075-0.208-0.092-0.254c-0.241-0.067-0.593-0.118-0.897,0.025
				C47.481,345.379,47.064,345.851,46.525,346.071z"/>
			<path id="XMLID_1263_" style="opacity:0.2;" d="M46.525,346.071c-0.482,0.196-0.579,0.11-1.288,0.567
				c-0.597,0.385-0.706,0.723-0.189,1.064c0.117,0.077,0.331,0.073,0.44-0.007c0.186-0.136,0.467-0.323,0.661-0.371
				c0.313-0.076,0.7-0.174,0.894-0.346c0.194-0.172,0.258-0.505,0.612-0.815c0.354-0.31,0.63-0.368,1.012-0.602
				c0.09-0.055,0.17-0.109,0.237-0.155c0.117-0.082,0.075-0.208-0.092-0.254c-0.241-0.067-0.593-0.118-0.897,0.025
				C47.481,345.379,47.064,345.851,46.525,346.071z"/>
			<g id="XMLID_1163_">
				<path id="XMLID_1262_" style="fill:#455A64;" d="M56.421,349.61c-0.082,0.048-0.21,0.063-0.323,0.034
					c-0.147-0.038-0.213-0.137-0.148-0.221c2.131-2.78,1.7-5.41-1.28-7.818c-0.094-0.075-0.065-0.18,0.066-0.233
					c0.13-0.053,0.311-0.036,0.405,0.04c3.108,2.511,3.559,5.253,1.339,8.149C56.466,349.579,56.446,349.596,56.421,349.61z"/>
			</g>
			<g id="XMLID_1161_">
				<path id="XMLID_1162_" style="fill:#455A64;" d="M58.848,345.935c-0.046,0.026-0.107,0.044-0.176,0.048l-1.063,0.059
					c-0.16,0.009-0.302-0.058-0.318-0.151c-0.016-0.092,0.101-0.174,0.258-0.183l1.063-0.059c0.16-0.009,0.302,0.058,0.318,0.151
					C58.939,345.852,58.907,345.901,58.848,345.935z"/>
			</g>
			<g id="XMLID_1134_">
				<path id="XMLID_1135_" style="fill:#F0F0F0;" d="M60.363,351.013c-0.696,0.402-1.833,0.4-2.533-0.005
					c-0.701-0.405-0.704-1.061-0.008-1.463c0.696-0.402,1.832-0.4,2.533,0.005C61.056,349.956,61.06,350.612,60.363,351.013z
					 M58.111,349.713c-0.538,0.31-0.535,0.817,0.006,1.13c0.541,0.313,1.419,0.314,1.957,0.004c0.537-0.31,0.535-0.817-0.007-1.13
					S58.649,349.403,58.111,349.713z"/>
			</g>
			<g id="XMLID_1006_">
				<path id="XMLID_1133_" style="fill:#F0F0F0;" d="M63.2,350.105c-0.031,0.018-0.073,0.03-0.12,0.034l-3.963,0.258
					c-0.112,0.007-0.213-0.039-0.227-0.104c-0.014-0.065,0.067-0.123,0.178-0.13l3.963-0.259c0.112-0.007,0.213,0.039,0.227,0.104
					C63.266,350.045,63.242,350.08,63.2,350.105z"/>
			</g>
			<g id="XMLID_674_">
				<path id="XMLID_691_" style="fill:#27DEBF;" d="M63.655,349.842l-1.075,0.621c-0.079,0.046-0.208,0.046-0.288-0.001
					c-0.08-0.046-0.08-0.121-0.001-0.167l1.075-0.621c0.079-0.046,0.208-0.046,0.288,0.001
					C63.733,349.722,63.734,349.797,63.655,349.842z"/>
				<path id="XMLID_683_" style="opacity:0.2;" d="M63.655,349.842l-1.075,0.621c-0.079,0.046-0.208,0.046-0.288-0.001
					c-0.08-0.046-0.08-0.121-0.001-0.167l1.075-0.621c0.079-0.046,0.208-0.046,0.288,0.001
					C63.733,349.722,63.734,349.797,63.655,349.842z"/>
			</g>
			<path id="XMLID_673_" style="fill:#27DEBF;" d="M50.963,340.043c-0.343-0.198-0.383-0.496-0.089-0.666
				c0.294-0.17,0.811-0.147,1.154,0.051c0.343,0.198,0.383,0.496,0.089,0.666C51.822,340.264,51.306,340.241,50.963,340.043z"/>
			<path id="XMLID_666_" style="opacity:0.4;" d="M50.963,340.043c-0.343-0.198-0.383-0.496-0.089-0.666
				c0.294-0.17,0.811-0.147,1.154,0.051c0.343,0.198,0.383,0.496,0.089,0.666C51.822,340.264,51.306,340.241,50.963,340.043z"/>
			<path id="XMLID_659_" style="fill:#27DEBF;" d="M51.778,339.906l-1.781,1.028c-0.226,0.13-0.803-0.203-0.577-0.333l1.781-1.028
				C51.4,339.457,51.977,339.791,51.778,339.906z"/>
			<path id="XMLID_646_" style="opacity:0.2;" d="M51.778,339.906l-1.781,1.028c-0.226,0.13-0.803-0.203-0.577-0.333l1.781-1.028
				C51.4,339.457,51.977,339.791,51.778,339.906z"/>
			<g id="XMLID_625_">
				<path id="XMLID_626_" style="fill:#F0F0F0;" d="M67.024,344.548c-0.189-0.109-0.19-0.285-0.002-0.394
					c0.188-0.108,0.493-0.108,0.682,0.001c0.189,0.109,0.19,0.285,0.002,0.394C67.518,344.657,67.213,344.657,67.024,344.548z"/>
			</g>
			<g id="XMLID_513_">
				<path id="XMLID_516_" style="fill:#F0F0F0;" d="M51.069,353.759c-0.189-0.109-0.19-0.285-0.002-0.394
					c0.188-0.108,0.493-0.108,0.682,0.001c0.189,0.109,0.19,0.285,0.002,0.394C51.563,353.869,51.258,353.868,51.069,353.759z"/>
			</g>
		</g>
	</g>
	<g id="Mail_Stamp">
		<g>
			<path style="fill:#FAFAFA;" d="M68.672,367.443l1.082,0.048c1.394,0.061,2.554-0.609,2.448-1.413l-0.082-0.625
				c-0.106-0.805,1.055-1.475,2.448-1.413l1.082,0.047c1.394,0.061,2.554-0.609,2.448-1.413l-0.082-0.625
				c-0.106-0.805,1.055-1.475,2.448-1.413l1.082,0.048c1.394,0.061,2.554-0.609,2.448-1.413l-0.082-0.625
				c-0.106-0.805,1.054-1.475,2.448-1.414l1.083,0.048c1.394,0.061,2.554-0.609,2.448-1.413l-0.082-0.625
				c-0.106-0.804,1.054-1.475,2.448-1.413l1.752,0.077c1.135,0.05,2.16-0.391,2.402-1.033l0.118-0.312
				c0.471-1.247,3.432-1.417,4.319-0.248l0.007,0.009c0.411,0.542,1.397,0.859,2.411,0.776l1.291-0.106
				c1.504-0.123,2.793,0.621,2.58,1.489l0,0c-0.214,0.868,1.075,1.613,2.58,1.489l0,0c1.504-0.123,2.793,0.621,2.58,1.489l0,0
				c-0.214,0.869,1.075,1.613,2.58,1.489l0,0c1.504-0.123,2.793,0.621,2.58,1.489v0c-0.214,0.868,1.075,1.613,2.58,1.489l0,0
				c1.504-0.123,2.793,0.621,2.58,1.489l0,0c-0.214,0.868,1.075,1.613,2.58,1.489h0c1.504-0.123,2.793,0.621,2.58,1.489
				l-0.183,0.746c-0.144,0.585,0.405,1.155,1.344,1.392l0.016,0.004c2.025,0.512,1.731,2.222-0.43,2.494l-0.54,0.068
				c-1.112,0.14-1.875,0.732-1.789,1.387l0.133,1.012c0.106,0.805-1.054,1.475-2.448,1.413l-1.082-0.048
				c-1.394-0.061-2.554,0.609-2.448,1.413l0.082,0.625c0.106,0.805-1.054,1.475-2.448,1.413l-1.082-0.048
				c-1.394-0.061-2.554,0.609-2.448,1.413l0.082,0.625c0.106,0.805-1.055,1.475-2.448,1.413l-1.082-0.048
				c-1.394-0.061-2.554,0.609-2.448,1.413l0.082,0.625c0.106,0.805-1.055,1.475-2.448,1.413l-1.082-0.048
				c-1.394-0.061-2.554,0.609-2.448,1.413l0.082,0.625c0.106,0.805-1.055,1.475-2.448,1.414l-1.753-0.077
				c-1.135-0.05-2.16,0.391-2.402,1.033l-0.118,0.312c-0.471,1.247-3.432,1.417-4.319,0.248l-0.007-0.009
				c-0.411-0.542-1.397-0.859-2.411-0.776l-1.291,0.106c-1.504,0.123-2.793-0.621-2.58-1.489l0,0
				c0.214-0.868-1.075-1.613-2.58-1.489h0c-1.504,0.123-2.793-0.621-2.58-1.489l0,0c0.214-0.869-1.075-1.613-2.58-1.489h0
				c-1.504,0.123-2.793-0.621-2.58-1.489l0,0c0.214-0.868-1.075-1.613-2.58-1.489h0c-1.504,0.123-2.793-0.621-2.58-1.489l0,0
				c0.214-0.868-1.075-1.613-2.58-1.489l0,0c-1.504,0.123-2.793-0.621-2.58-1.489l0.183-0.746c0.144-0.585-0.405-1.155-1.344-1.392
				l-0.016-0.004c-2.026-0.512-1.731-2.222,0.429-2.494l0.54-0.068c1.112-0.14,1.876-0.732,1.789-1.387l-0.133-1.012
				C66.117,368.052,67.278,367.382,68.672,367.443z"/>
			<path style="fill:#455A64;" d="M70.111,369.948l24.037-13.878c2.29-1.323,5.54-1.591,7.258-0.599l22.069,12.741
				c1.718,0.992,1.254,2.868-1.037,4.19L98.4,386.281c-2.29,1.323-5.54,1.59-7.258,0.599l-22.069-12.741
				C67.356,373.147,67.821,371.271,70.111,369.948z"/>
		</g>
		<g id="XMLID_1297_">
			<path id="XMLID_1315_" style="fill:#F0F0F0;" d="M104.755,364.876c0,0,0.275-0.818-0.64-1.098c-0.915-0.28-2.077,0.4-2.077,0.4
				s-0.537-0.51-2.117-0.36c-1.616,0.154-2.613,0.806-3.527,2.786c-0.095,0.206-0.147,0.392-0.18,0.569
				c-0.112-0.475-0.324-0.919-0.663-1.348c-0.67-0.849-2.143-2.626-4.429-2.439c-2.153,0.176-1.965,1.001-1.965,1.001
				s-1.263-0.404-2.007,0.012c-0.743,0.416,0.017,1.264,0.017,1.264s-1.006,0.137-1.247,1.051c-0.246,0.935,0.474,1.651,3.599,2.624
				c0.897,0.279,1.875,0.541,2.807,0.772c-1.686-0.128-3.472-0.254-4.227-0.272c-1.614-0.04-5.072,0.137-5.472,1.45
				c-0.376,1.237,1.042,1.388,1.042,1.388s-1.055,0.569-0.6,1.105c0.455,0.537,2.088,0.381,2.088,0.381s-0.085,0.595,1.346,1.009
				c1.464,0.424,2.866,0.25,5.434-1.165c0.689-0.38,1.373-0.802,2.005-1.215c-0.722,0.875-1.463,1.796-1.723,2.199
				c-0.564,0.874-1.341,2.827,0.698,3.452c1.921,0.589,2.609-0.143,2.609-0.143s0.611,0.755,1.636,0.671
				c1.025-0.084,1.273-1.028,1.273-1.028s0.954,0.23,2.079-0.428c1.151-0.673,1.297-1.497-0.24-3.344
				c-0.458-0.551-1.006-1.116-1.544-1.635c1.238,0.678,2.562,1.39,3.157,1.663c1.265,0.58,4.243,1.61,5.903,0.684
				c1.563-0.873,0.57-1.477,0.57-1.477s1.433-0.102,1.611-0.691s-1.301-1.017-1.301-1.017s0.674-0.453-0.062-1.274
				c-0.753-0.84-2.207-1.351-5.725-1.078c-0.192,0.015-0.389,0.031-0.585,0.052c0.839-0.242,1.609-0.528,1.944-0.691
				c1.367-0.661,3.782-1.866,2.768-3.064C106.056,364.518,104.755,364.876,104.755,364.876z"/>
			<g id="XMLID_1309_">
				<path id="XMLID_1311_" style="fill:#E0E0E0;" d="M102.355,366.289c-1.501,0.21-3.252,1.289-4.156,1.959
					c-0.657,0.487-2.002,1.515-1.388,2.192c0.068,0.075,0.283,0.077,0.4,0.048c1.189-0.297,1.612-1.275,2.266-1.886
					c0.864-0.807,2.099-1.34,3.137-2.061C102.795,366.415,102.644,366.249,102.355,366.289z"/>
				<path id="XMLID_1310_" style="fill:#E0E0E0;" d="M96.354,371.01c-0.002,0.005,0,0.01-0.002,0.015
					c-0.037,0.023-0.075,0.045-0.109,0.073c0.002-0.094-0.031-0.182-0.097-0.256c0.167-0.052,0.303-0.144,0.316-0.246
					c0.237-1.861-3.741-3.822-6.477-4.359c-0.09-0.018-0.442,0.049-0.304,0.125c1.293,0.71,2.515,1.424,3.547,2.283
					c0.671,0.558,1.26,1.405,2.032,1.964c-0.183-0.012-0.368-0.017-0.562-0.017c-0.815,0-1.657,0.072-2.422,0.223
					c-1.918,0.379-4.536,1.027-5.611,2.098c-0.119,0.119,0.267,0.111,0.36,0.079c1.445-0.489,2.908-0.862,4.547-1.072
					c1.073-0.137,2.424-0.345,3.506-0.13c0.263,0.052,0.503,0.007,0.697-0.088c-0.416,0.8-0.546,1.929-0.565,2.249
					c-0.05,0.811,0.192,1.81,1.153,2.442c0.155,0.102,0.688-0.037,0.566-0.174c-0.304-0.341-0.165-0.884-0.233-1.276
					c-0.098-0.563-0.038-1.105,0.077-1.664c0.078-0.377,0.174-0.74,0.344-1.106c0.059-0.125,0.107-0.248,0.154-0.375
					c0.003-0.009,0.003-0.01,0.005-0.017c0.019-0.033,0.039-0.068,0.059-0.106c0.748,0.12,1.719,0.114,2.184,0.142
					c1.613,0.097,3.658,0.357,5.068,0.834c0.153,0.052,0.585-0.052,0.425-0.169c-1.21-0.888-2.94-1.298-4.739-1.657
					C99.373,370.647,96.646,370.07,96.354,371.01z"/>
			</g>
			<g id="XMLID_1298_">
				<path id="XMLID_1308_" style="fill:#27DEBF;" d="M97.943,369.868c0.888,0.513,0.888,1.344,0,1.856
					c-0.888,0.513-2.327,0.513-3.215,0c-0.888-0.513-0.888-1.344,0-1.856C95.616,369.355,97.055,369.355,97.943,369.868z"/>
				<path id="XMLID_1307_" style="opacity:0.05;" d="M96.79,371.566c-1.252,0.168-2.415-0.397-2.684-1.026
					c-0.142,0.415,0.065,0.862,0.622,1.183c0.888,0.513,2.327,0.513,3.215,0c0.581-0.335,0.774-0.806,0.595-1.236
					C98.349,370.941,97.829,371.427,96.79,371.566z"/>
			</g>
		</g>
	</g>
</g>
<g id="Character_1_">
	<g id="Character_2_">
		<g>
			<path style="fill:#B16668;" d="M378.255,112.69c-3.486-2.828-12.331-8.372-14.845-10.012c-2.896-1.891-6.727-4.566-9.531-6.592
				c0,0-11.3-18.074-11.4-19.835l-2.51-6.793c-0.372-1.084,0.024-3.736,0.224-5.415c0.223-1.869,0.676-3.505,0.809-4.311
				c0.529-3.196-4.073-4.671-6.149-3.104c-1.216,0.918-2.704,2.688-3.552,5.255c-2.646,8.014,2.623,17.384,2.623,17.384
				s7.449,16.892,8.964,19.938c1.613,3.244,2.985,4.996,4.373,6.2c0,0,13.57,10.97,16.485,13.195
				c3.662,2.794,5.187,4.133,7.756,4.668c1.427,0.297,1.438,0.261,5.671,0.278c0.518-1.096,1.04-2.4,1.224-3.602
				C378.548,118.966,379.013,113.305,378.255,112.69z"/>
			<path style="fill:#455A64;" d="M365.121,120.264l5.047,3.836l11.891-11.133c-1.463-1.182-4.527-2.447-7.267-3.775
				c-1.416-0.686-2.952-1.418-5.129-2.697C369.663,106.495,365.165,112.852,365.121,120.264z"/>
			<g id="Letter_1_">
				<g id="XMLID_19_">
					<g id="XMLID_20_">
						<path id="XMLID_21_" style="fill:#27DEBF;" d="M314.827,53.695c-0.073-0.293,0.112-0.597,0.415-0.679l28.04-7.57
							c0.303-0.082,0.853,0.023,1.229,0.235l0.768,0.432c0.376,0.211,0.741,0.62,0.814,0.914l4.519,18.028
							c0.073,0.292-0.114,0.597-0.415,0.679l-28.041,7.57c-0.301,0.081-0.855-0.024-1.229-0.235l-0.768-0.432
							c-0.375-0.211-0.741-0.622-0.814-0.914L314.827,53.695z"/>
					</g>
				</g>
				<path id="XMLID_18_" style="opacity:0.4;fill:#FFFFFF;" d="M314.893,53.276l1.933,1.086l28.974-7.824
					c-0.147-0.165-0.332-0.32-0.519-0.426l-0.77-0.431c-0.374-0.212-0.927-0.318-1.227-0.235l-28.041,7.569
					C315.09,53.057,314.968,53.154,314.893,53.276z"/>
				<path id="XMLID_17_" style="opacity:0.2;" d="M314.826,53.694l4.519,18.028c0.074,0.294,0.439,0.703,0.816,0.914l0.767,0.432
					c0.058,0.032,0.118,0.062,0.183,0.089c0.083,0.035,0.172,0.066,0.264,0.092c0.164,0.046,0.331,0.074,0.482,0.08
					c0.039,0.001,0.078,0,0.113-0.001c0.024-0.002,0.046-0.004,0.067-0.008c-0.106,0.009-0.206-0.014-0.295-0.06
					c-0.128-0.068-0.227-0.186-0.265-0.339l-4.519-18.028c-0.048-0.189,0.044-0.308,0.222-0.33l-0.355-0.2l-1.933-1.086
					C314.819,53.398,314.79,53.548,314.826,53.694z"/>
				<path id="XMLID_16_" style="opacity:0.2;" d="M316.826,54.362l15.582,6.852c1.111,0.488,2.205,0.423,2.636-0.155l1.667-2.233
					l9.193-12.316l-8.702,12.506l13.413,6.046c0.034,0.147,0.003,0.299-0.077,0.422l-13.36-6.433l-1.902,2.734
					c-0.438,0.626-1.627,0.677-2.793,0.114l-2.095-1.008l-8.645,12.369c-0.128-0.068-0.227-0.186-0.265-0.339l-0.075-0.3
					l8.92-11.761L316.826,54.362z"/>
			</g>
			<path style="fill:#B16668;" d="M344.143,69.044c0.102-1.782-0.327-3.528,0.054-5.298c0.094-0.436,0.119-1.055-0.316-1.158
				c-0.123-0.029-0.252,0-0.371,0.04c-1.102,0.373-1.671,1.297-2.057,2.394c-0.326,0.926-0.51,2.734-1.813,3.666l2.964,8.02
				C342.486,74.63,343.992,71.69,344.143,69.044z"/>
		</g>
		<g id="XMLID_12_">
			<path id="XMLID_15_" style="fill:#37474F;" d="M382.907,273.794c0.22,0.062,0.392,0.2,0.466,0.451
				c0.284,0.966,0.274,2.069,0.47,3.06c0.308,1.552,0.639,3.786,0.385,5.032c-0.254,1.246-1.939,2.457-5.099,3.353
				c-1.904,0.54-5.303,2.185-6.857,3.598c-1.905,1.731-5.977,3.177-8.73,3.26c-3.228,0.097-6.593-0.764-7.371-3.089
				c-0.327-0.977-0.582-2.651,4.031-4.464c2.404-0.944,3.347-1.436,4.503-2.117c2.141-1.262,5.36-2.933,7.139-4.593
				c0.66-0.616,2.659-3.051,2.626-6.146c1.23-0.416,2.665-0.161,3.676,0.653c1.011,0.814,1.566,2.162,1.422,3.452
				c0.22,0.121,0.494-0.087,0.572-0.325c0.078-0.238,0.038-0.499,0.079-0.746c0.088-0.536,0.552-0.95,1.062-1.137
				C381.725,273.874,382.43,273.659,382.907,273.794z"/>
			<g id="XMLID_13_">
				<path id="XMLID_14_" style="fill:#37474F;" d="M427.081,273.897c-0.346,0.724-0.3,1.448-0.397,2.219
					c-0.08,0.641-0.266,1.215-0.262,1.888c0.003,0.56-0.131,1.23-0.653,1.432c-0.409,0.158-0.878-0.067-1.177-0.388
					c-0.298-0.322-0.483-0.731-0.742-1.086c-0.546-0.748-1.437-1.232-2.361-1.283c-0.924-0.051-0.989,0.035-1.613,0.718
					c0.074,0.176,0.461,1.095,0.531,1.273c1.784,4.547,1.891,8.577,0.782,13.288c-0.226,0.961-1.615,2.526-2.378,3.289
					c-0.452,0.452-0.925,0.879-1.43,1.271c-0.447,0.347-0.893,0.759-0.946,1.144c-0.074,0.536,0.012,1.097,0.274,1.57
					c0.385,0.694,1.026,1.025,1.748,1.274c2.732,0.943,5.701,0.917,8.338-0.271c1.311-0.591,2.541-1.895,2.819-2.379
					c1.546-2.698,1.373-5.267,1.393-7.589c0.045-5.129,0.891-7.78,1.303-10.346C432.807,276.815,428.052,273.431,427.081,273.897z"
					/>
			</g>
			<path style="fill:#B16668;" d="M372.341,276.686c1.901-2.054,2.265-4.035,2.004-7.845s-2.164-37.514-2.942-45.828
				c-1.306-13.966-1.966-53.229-0.807-62.919l37.243,2.931c2.706,6.763,4.694,15.089,4.274,28.154
				c-0.32,9.965-0.087,36.993-0.087,36.993s4.545,3.972,7.791,11.816c2.869,6.93,6.171,30.874,6.171,30.874l0,0
				c0.507,1.588,0.916,2.799,1.091,3.036c0.784,1.063,1.342,2.201,1.342,3.495c0,4.136-0.441,8.272-1.313,12.316
				c-0.451,2.093-1.758,3.441-3.846,4.272c-0.463,0.184-0.964,0.278-1.46,0.242c-0.254-0.019-0.525-0.081-0.707-0.263
				c-0.353-0.354-0.031-1.192,0.036-1.612c0.108-0.677,0.167-1.361,0.187-2.046c0.04-1.345-0.002-2.988-0.091-4.329
				c-0.232-3.512-0.745-6.362-1.448-8.923c0-0.001-0.288-0.685-0.724-1.725l0,0c0,0-16.165-32.595-20.756-40.54
				c-3.651-6.235-6.076-30.436-8.664-43.667l-4.37,31.624c0,0,1.917,5.713,2.422,10.082c0.677,5.868-3.466,28.861-4.705,37.037
				c-0.23,1.518-0.248,3.056-0.053,4.58l0,0c-0.437,3.543-3.096,4.635-5.846,6.642c-1.367,0.998-7.379,4.65-11.01,5.386
				c-2.953,0.599-5.219-1.17-3.404-2.307C366.115,281.824,370.441,278.739,372.341,276.686z"/>
		</g>
		<g>
			<path style="fill:#37474F;" d="M391.155,201.167c-0.376-3.556-1.403-8.419-1.403-8.419l-1.198,8.222l-1.8,21.222
				c0,0,0.605,2.345,1.168,6.393c0.588,4.231,0.309,11.029-0.464,15.572c-0.773,4.543-2.382,12.694-2.382,12.694
				c-6.753,3.526-11.874-0.087-11.874-0.087s-0.658-9.087-1.916-22.411c-1.259-13.324-1.698-26.643-1.789-37.712
				c0,0-1.6-27.604,3.062-46.227c5.479,3.857,21.758,4.629,28.328-0.554c0,0,2.633,4.353,8.381,14.067
				c4.513,7.627,3.188,19.879,3.266,30.122c0.121,15.802,0.036,33.646,0.036,33.646s2.695,2.841,5.575,7.482
				c2.88,4.641,4.357,14.95,4.357,14.95s-2.908,6.184-12.837,6.449c0,0-9.646-17.562-12.07-21.549S391.531,204.723,391.155,201.167z
				"/>
			<path style="fill:#263238;" d="M389.752,192.748l-3.625-13.947c0,0-6.943-0.74-12.348-4.712c0,0,1.116,5.102,10.673,6.602
				l4.116,13.69l-0.24,8.408L389.752,192.748z"/>
		</g>
		<g>
			<path style="fill:#27DEBF;" d="M368.859,125.695c3.621-5.601,10.845-10.934,13.189-12.791l13.648,0.099
				c2.684,0.136,6.607,0.485,6.607,0.485c2.844,1.516,2.704,5.042,2.8,8.377c0.111,3.657,0.129,5.265-0.876,11.307l-1.833,7.698
				l-0.282,1.182c-0.049,0.203-0.093,0.406-0.143,0.615c-0.638,2.857-0.408,5.89,1.091,8.751c3.125,5.963,6.824,10.473,7.867,15.482
				c0,0-2.405-0.509-4.718-2.725c-2.013-1.928-3.227-2.823-4.839-5.097c0,0-0.16,3.392-3.531,7.839
				c-0.802,1.064-1.773,2.124-2.946,3.104c-6.049,5.069-24.253,7.268-24.848-8.608c0,0,0.686-7.231,0.797-12.606
				c-0.111-4.816-0.491-8.717-0.529-9.829C366.156,135.242,366.221,129.77,368.859,125.695z"/>
			<path style="opacity:0.1;" d="M376.897,138.358c0,0,4.481,3.962,9.984,2.398c5.503-1.564,6.59-6.217,6.59-6.217
				s0.177,6.188-6.745,7.851C380.046,143.994,376.897,138.358,376.897,138.358z"/>
		</g>
		<g id="XMLID_3_">
			<path style="fill:#263238;" d="M393.398,72.849c-5.94-1.23-9.947-0.1-12.603,0.996c-12.423-3.194-19.185,13.855-7.543,19.705
				c0,0,2.572,11.907,12.193,13.188l9.499,0.248c2.329-4.257,9.924-6.251,10.586-17.345
				C406.763,80.368,399.742,74.162,393.398,72.849z"/>
			<path style="fill:#263238;" d="M416.708,112.078l-0.395,0.024c-5.528,0.34-10.285-3.865-10.626-9.394l-1.175-19.095l0.395-0.024
				c5.528-0.34,10.285,3.865,10.626,9.394L416.708,112.078z"/>
			<g id="XMLID_10_">
				<path id="XMLID_11_" style="fill:#B16668;" d="M376.424,80.275c-1.923,1.184-4.234,6.117-3.809,16.36
					c0.361,8.681,3.216,10.775,4.641,11.368c1.425,0.592,4.144,0.166,6.787-0.325l0.096,5.212c0,0-3.323,2.65-3.049,5.036
					c0.275,2.386,5.604,3.183,8.989,0.785c3.384-2.398,4.995-4.646,4.995-4.646l-0.249-13.507c0,0,1.762,1.912,4.653-0.086
					c2.891-1.997,2.567-5.805,0.834-7.501c-1.733-1.696-4.956-0.734-5.596,1.664c0,0-3.765-0.166-9.264-3.486
					C379.496,87.553,378.002,83.894,376.424,80.275z"/>
			</g>
			<g>
				<path id="XMLID_9_" style="fill:#263238;" d="M383.834,94.037c-0.02,0.627,0.453,1.148,1.056,1.166
					c0.603,0.017,1.108-0.476,1.128-1.103c0.02-0.626-0.453-1.148-1.056-1.166C384.359,92.918,383.854,93.411,383.834,94.037z"/>
				<path id="XMLID_8_" style="fill:#9A4A4D;" d="M382.724,101.612l-3.121,1.059c0.277,0.894,1.2,1.381,2.062,1.089
					C382.527,103.467,383.001,102.505,382.724,101.612z"/>
				<path id="XMLID_7_" style="fill:#263238;" d="M374.228,91.068l2.181-1.572c-0.415-0.623-1.24-0.777-1.842-0.343
					C373.965,89.587,373.813,90.445,374.228,91.068z"/>
				<path id="XMLID_6_" style="fill:#263238;" d="M374.785,93.623c-0.02,0.626,0.453,1.148,1.056,1.166
					c0.603,0.018,1.108-0.476,1.128-1.103c0.02-0.626-0.453-1.148-1.056-1.166C375.31,92.503,374.805,92.996,374.785,93.623z"/>
				<polygon id="XMLID_5_" style="fill:#9A4A4D;" points="380.107,92.899 380.055,99.477 376.575,98.469 				"/>
				<path id="XMLID_4_" style="fill:#9A4A4D;" d="M384.042,107.678c2.786-0.418,8.502-2.174,9.356-4.463
					c0,0-0.272,1.433-1.962,2.936c-1.689,1.503-7.362,3.265-7.362,3.265L384.042,107.678z"/>
			</g>
		</g>
		<g id="XMLID_1_">
			<path id="XMLID_2_" style="fill:#B16668;" d="M434.533,174.088c0,0-1.76-19.77-2.237-23.54c-0.569-4.499-1.46-6.232-2.622-7.923
				c0,0-10.848-17.266-13.375-20.489c-3.174-4.048-4.559-6.361-7.186-7.66c-1.459-0.721-2.199-0.823-6.313-0.959
				c-4.156,12.146,3.188,19.312,3.188,19.312l14.747,18.479c0,0,5.36,21.477,4.973,23.409c-0.387,1.931-1.796,4.407-2.563,6.794
				c-0.517,1.607-0.539,3.308-1.308,4.837c-0.19,0.377-0.359,0.938,0.014,1.135c0.105,0.056,0.23,0.06,0.349,0.051
				c1.098-0.079,1.838-0.79,2.452-1.703c0.519-0.77,0.606-1.389,1.124-2.159c0.098,1.277-0.247,2.876-0.617,4.728
				c-0.202,1.013-0.368,2.195-0.57,3.085c-0.387,1.711,2.062,2.395,3.715,2.035c1.807-0.393,2.777-1.243,3.851-2.661
				C435.984,185.8,434.533,174.088,434.533,174.088z"/>
			<path style="fill:#455A64;" d="M402.268,113.484c0,0,3.907-0.192,6.072,0.392c2.164,0.584,3.903,2.548,6.229,5.492
				c2.327,2.943,5.371,7.659,5.371,7.659s-6.49,6.251-12.83,7.719l-2.304-3.043c0,0-2.941-3.419-3.676-8.397
				C400.34,117.956,402.268,113.484,402.268,113.484z"/>
		</g>
	</g>
</g>
</svg>
